<svg xmlns="http://www.w3.org/2000/svg" viewBox="0 0 550 500"><defs><style>.cls-1{isolation:isolate;}.cls-2{fill:#f2f2f2;}.cls-3{fill:#999;}.cls-4{fill:#e6e6e6;}.cls-5{fill:#ccc;}.cls-6{fill:#333;}.cls-7{fill:#f33;}.cls-8{fill:#666;}.cls-9{fill:#bfbfbf;}.cls-10{fill:#a6a6a6;}.cls-11{fill:#595959;}.cls-12{fill:#d9d9d9;}.cls-13{fill:#0081ed;}.cls-14{mix-blend-mode:screen;}.cls-15{fill:#525d66;}.cls-16{fill:#ffb78c;}.cls-17{fill:#80c5ff;}.cls-18{fill:#424242;}.cls-19{fill:#ffe5cc;}.cls-20{fill:#733118;}.cls-21{opacity:0.6;}.cls-22{opacity:0.3;}.cls-23{fill:#1d1d1c;}.cls-24{fill:#1381f2;}.cls-25{fill:#0f6adc;}.cls-26{fill:#cacaca;}.cls-27{fill:#1f2125;}.cls-28{fill:#5f3915;}.cls-29{fill:#fff;}.cls-30{fill:#919191;}.cls-31{fill:#585aa7;}.cls-32{fill:#ffe100;}.cls-33{fill:#ffa600;}.cls-34{fill:#ff8080;}.cls-35{fill:#d60000;}.cls-36{fill:#00559c;}.cls-37{fill:#f80;}.cls-38{fill:#ff0;}.cls-39{fill:#bdd600;}.cls-40{fill:#e1ff00;}.cls-41{fill:#a1d100;}.cls-42{fill:#c4ff00;}.cls-43{fill:#ff7003;}</style></defs><g class="cls-1"><g id="Layer"><path class="cls-2" d="M497.57,386.42l-50.39-29.08c-1.08-.62-.94-1.71.3-2.43l2.86-1.65a4.65,4.65,0,0,1,4.21-.17l50.39,29.08c1.07.62.94,1.71-.31,2.42l-2.86,1.66A4.66,4.66,0,0,1,497.57,386.42Z"/><path class="cls-3" d="M502.52,243.55l-46.36-26.77a2.2,2.2,0,0,0-2.27-.17l-4.58,2.64,5.39,4.19,1.31-.33V333c0,2.58,1.57,5.57,3.5,6.68l40.66,29.76v1.84l4.73-2.77h0a3.16,3.16,0,0,0,1.12-2.76V250.23C506,247.65,504.45,244.66,502.52,243.55Z"/><path class="cls-4" d="M495.43,253.35v-5.18l-4.56,3.42L471,243.24,456,232.38V223.1l-1.32.33-5.37-4.18,4.57-2.64a2.24,2.24,0,0,1,2.27.16l46.36,26.78a7.62,7.62,0,0,1,3,4Z"/><path class="cls-5" d="M497.92,371.05l-46.37-26.77a8.4,8.4,0,0,1-3.5-6.69V222.1c0-2.57,1.57-3.76,3.5-2.64l46.37,26.77c1.93,1.11,3.5,4.11,3.5,6.68V368.4C501.42,371,499.85,372.16,497.92,371.05Z"/><path class="cls-6" d="M449.08,338.27V222.6c0-1.87,1.14-2.74,2.55-1.92l46.22,26.68a6.12,6.12,0,0,1,2.55,4.87V367.9c0,1.88-1.15,2.74-2.55,1.93l-46.22-26.68A6.12,6.12,0,0,1,449.08,338.27Z"/><path class="cls-7" d="M499,253.46v112c0,1.67-1.18,2.33-2.62,1.5l-43.36-25a5.8,5.8,0,0,1-2.63-4.53v-112c0-1.67,1.18-2.34,2.63-1.5l7.92,4.57a1.65,1.65,0,0,1,.71,1l.37,1.67a6.64,6.64,0,0,0,3,4.24l19.33,11.16c1.47.85,2.74.53,3-.76l.37-1.25c.09-.32.38-.4.71-.21l7.93,4.58A5.79,5.79,0,0,1,499,253.46Z"/><path d="M472.78,308.43a3.63,3.63,0,0,1-.61-2,1.18,1.18,0,0,1,.63-1.22,1.63,1.63,0,0,1,1.52.24,4.2,4.2,0,0,1,1.49,1.5,3.68,3.68,0,0,1,.6,1.93,1.28,1.28,0,0,1-.58,1.27,1.61,1.61,0,0,1-1.51-.25A4.44,4.44,0,0,1,472.78,308.43Zm2.94-28.83v23.61l-3-1.74V277.86Z"/><path d="M474.29,270.07c-11.69-6.74-21.16-1.34-21.16,12.06s9.47,29.74,21.16,36.49,21.15,1.34,21.15-12.06S486,276.82,474.29,270.07Zm0,43.3c-9.16-5.29-16.58-18.09-16.58-28.6s7.42-14.74,16.58-9.45,16.58,18.09,16.58,28.6S483.45,318.66,474.29,313.37Z"/><path class="cls-8" d="M466.84,233.78c0,.9-.63,1.25-1.41.81a3.11,3.11,0,0,1-1.41-2.43c0-.89.63-1.25,1.41-.8A3.09,3.09,0,0,1,466.84,233.78Z"/><path class="cls-6" d="M466.2,233.42c0,.49-.35.68-.77.44a1.69,1.69,0,0,1-.77-1.33c0-.49.34-.69.77-.44A1.7,1.7,0,0,1,466.2,233.42Z"/><path d="M481.49,240.27l-13.75-8a1,1,0,0,1-.41-.78V231c0-.3.18-.44.41-.31l13.75,8a1,1,0,0,1,.41.78V240C481.9,240.26,481.72,240.4,481.49,240.27Z"/><g class="cls-1"><path class="cls-4" d="M504.74,268a1.06,1.06,0,0,0-1.07.1,3.31,3.31,0,0,0-1.5,2.6l0,13.72a1,1,0,0,0,.44,1l.83.49a1.05,1.05,0,0,1-.44-1l0-13.73a3.31,3.31,0,0,1,1.5-2.59,1.06,1.06,0,0,1,1.07-.11Z"/><path class="cls-9" d="M504.5,268.62c.83-.48,1.5-.1,1.51.86l0,13.72a3.26,3.26,0,0,1-1.49,2.59c-.83.48-1.5.09-1.51-.85l0-13.73A3.31,3.31,0,0,1,504.5,268.62Z"/><path class="cls-5" d="M504.74,270.16c.68-.39,1.24-.08,1.24.71l0,11.26a2.72,2.72,0,0,1-1.23,2.12c-.68.39-1.23.07-1.23-.7l0-11.26A2.69,2.69,0,0,1,504.74,270.16Z"/></g><path class="cls-2" d="M431.74,332.42l-60.63-35,9.85-5.69c1.57-.9,1.74-2.28.38-3.06l-56.51-32.5a5.91,5.91,0,0,0-5.31.22l-9.76,5.64L252.2,228.85a3.48,3.48,0,0,0-3.12.13l-2,1.17c-.92.53-1,1.34-.22,1.8l57.56,33.2-17.17,9.91c-1.57.91-1.74,2.28-.38,3.07l56.52,32.49a5.88,5.88,0,0,0,5.31-.22l17.07-9.86,60.63,35a3.48,3.48,0,0,0,3.12-.13l2-1.17C432.44,333.69,432.54,332.88,431.74,332.42Z"/><path class="cls-5" d="M374.92,283l-.53,2.74L373,288.37l-3.18,2.33-2.28,1.66-10.36,5.78L344,306.47l-50.51-29.2v0a.64.64,0,0,1-.21-.51,2,2,0,0,1,.88-1.53l24.4-14.13,1.09-.63a8.64,8.64,0,0,0,3.37-3.82,6.18,6.18,0,0,0,.56-4.47l-14.12-40.67,1.69-1.61,50.51,29.19-.19,3.81,5.81,15.61,4.53,13.38,2.9,7.68Z"/><path class="cls-4" d="M369.82,290.7l-2.28,1.66-10.36,5.78L344,306.47l-50.51-29.2v0a.64.64,0,0,1-.21-.51,2,2,0,0,1,.88-1.53l24.4-14.13Z"/><path class="cls-10" d="M370.09,291.71l-25.45,14.73c-.49.28-.88.05-.88-.51h0a2,2,0,0,1,.88-1.53l25.49-14.75a8.79,8.79,0,0,0,3.37-3.83,6.2,6.2,0,0,0,.56-4.46l-14.12-40.68,1.68-1.61,14.12,40.67A8.83,8.83,0,0,1,375,286,12.83,12.83,0,0,1,370.09,291.71Z"/><g class="cls-1"><path class="cls-11" d="M427.54,160.79l-173-99.88a2.77,2.77,0,0,0-2.81-.28l-3.47,2a2.8,2.8,0,0,1,2.82.27l173,99.88a8.69,8.69,0,0,1,3.94,6.82l-.38,132.79a2.74,2.74,0,0,1-1.15,2.53l3.47-2a2.77,2.77,0,0,0,1.15-2.53l.38-132.8A8.7,8.7,0,0,0,427.54,160.79Z"/><path class="cls-9" d="M431.16,277.12l-.07,23.28a2.74,2.74,0,0,1-1.15,2.53l-3.46,2a2.76,2.76,0,0,0,1.15-2.54l.07-23.29Z"/><path class="cls-6" d="M428,169.62l-.38,132.79c0,2.51-1.78,3.51-4,2.26l-173-99.88a8.65,8.65,0,0,1-3.94-6.82l.37-132.8c0-2.49,1.78-3.51,4-2.25l173,99.88A8.65,8.65,0,0,1,428,169.62Z"/></g><path class="cls-12" d="M427.7,279.14l-.07,23.27c0,2.51-1.78,3.51-4,2.26l-173-99.88a8.65,8.65,0,0,1-3.94-6.82l.07-23.28Z"/><polygon class="cls-13" points="423.24 268.78 253.03 170.23 253.03 71.74 423.24 170.29 423.24 268.78"/><g class="cls-14"><polygon class="cls-15" points="381.91 146.35 279.4 185.5 253.03 170.23 253.03 71.74 381.91 146.35"/><polygon class="cls-15" points="404.25 159.29 301.74 198.43 288.55 190.8 391.05 151.65 404.25 159.29"/></g><ellipse class="cls-2" cx="213.05" cy="375.19" rx="24.73" ry="42.84" transform="translate(-163.29 586.21) rotate(-89.69)"/><path class="cls-16" d="M250,176.09a.8.8,0,0,0-.76-.59,1.06,1.06,0,0,0-.1-1.5,2.27,2.27,0,0,0-1.59-.46c0-.67.58-1.39.18-1.92s-1.07-.29-1.61-.06a36.74,36.74,0,0,0-6.48,3.62c-1.15.8-2.4,1.72-3.8,1.57a4.16,4.16,0,0,1,.64-2.28A6.83,6.83,0,0,0,237,172c0-.46-.07-1-.5-1.21s-1,.19-1.21.66-.22,1-.43,1.47a4,4,0,0,1-1.11,1.3,14,14,0,0,0-2.65,3,6.66,6.66,0,0,0-.93,2.54c-.11.77.28,1.7,0,2.36-.51,1.25-12.28,8.1-16.61,10.86-2.75,1.74-5.59,3.39-8.25,5.26a5.2,5.2,0,0,1-2.7,1.19,13.43,13.43,0,0,1-4.88-1,6.65,6.65,0,0,1-1.58-.84,2.23,2.23,0,0,0-1-.62,2.54,2.54,0,0,0-2.23,1.76,2,2,0,0,0,.3,1.36c.24.41.54.79.74,1.22.78,1.64,0,3.72.81,5.35A5.27,5.27,0,0,0,198,209a19.78,19.78,0,0,0,10,.56,3.9,3.9,0,0,0,.76-.22,4.61,4.61,0,0,0,1.74-.71c.81-.49,14.68-12.3,19.82-17.12,1.37-1.29,2.29-2.78,4.18-3.38,1-.33,2.13-.49,3.17-.9a32.41,32.41,0,0,0,3.21-1.52,43.11,43.11,0,0,0,6-3.54,9.45,9.45,0,0,0,2.08-2,1.46,1.46,0,0,0,.31-.71.64.64,0,0,0-.35-.65,4.14,4.14,0,0,0,1-1.66A1.73,1.73,0,0,0,250,176.09Z"/><path class="cls-13" d="M177.75,381.06a3.62,3.62,0,0,0,2.49,2.81,4.38,4.38,0,0,0,2.21-.13,9.32,9.32,0,0,0,4.56-3.53,27.64,27.64,0,0,0,2.38-3.9,5.3,5.3,0,0,1,2.92-2.32,17.4,17.4,0,0,0,4.33-2.78A10,10,0,0,0,199.5,367a2.93,2.93,0,0,0,0-2.32,3.45,3.45,0,0,0-1.67-1.55,6.52,6.52,0,0,0-3-.41c-4.39.28-8.43,2.52-11.89,5.24a10.51,10.51,0,0,0-3.5,4.1,27.61,27.61,0,0,0-1.73,5.47A8.84,8.84,0,0,0,177.75,381.06Z"/><path class="cls-6" d="M200.41,263.55c-1-3.69-2.22-7.4-4.55-10.42s-5.9-5.29-9.72-5.23c-4.37.07-6.84,3.37-9,6.73a39.73,39.73,0,0,0-5.32,12.69,22.28,22.28,0,0,0-.34,9.05c.53,2.44,2,4.1,3,6.28,1,2,1,4.36,1,6.61q-.08,7.71-.16,15.42c0,3.6-.24,7.18-.18,10.77a14.63,14.63,0,0,1-.47,3.46c-.39,1.74-.88,3.45-1.35,5.17a50,50,0,0,0-1.35,6,43.3,43.3,0,0,0,1.09,15.65c1.15,5.13,2.75,10.16,3.81,15.31a126.83,126.83,0,0,1,1.82,12.74,1.3,1.3,0,0,0,.24.73,1.09,1.09,0,0,0,.72.27,7.64,7.64,0,0,0,4.64-1.44,18.12,18.12,0,0,0,5.4-5.28,3.27,3.27,0,0,0,.62-1.4,3.6,3.6,0,0,0-.16-1.34c-.51-1.91-1.17-3.77-1.7-5.66-1.91-6.9-1.71-14.14-.58-21.15a63.37,63.37,0,0,1,2.2-10.39c.71-2.08,1.48-4.15,2.19-6.22a97.47,97.47,0,0,0,2.48-10.66c1.56-7.06,3.19-14.11,5.1-21.08a69.16,69.16,0,0,0,2.15-9.27C202.79,275.11,201.9,269.21,200.41,263.55Z"/><path class="cls-2" d="M199.45,201.44a6.17,6.17,0,0,0-1.33-3.34c-2.85-3-7-4.44-11.11-4.82a.44.44,0,0,0-.3,0,.38.38,0,0,0-.15.2,5.93,5.93,0,0,1-.81,1.51,2.14,2.14,0,0,0-.48,1.92c.24.63,1,.88,1.6,1.14a15.14,15.14,0,0,1,2.8,1.58,16.14,16.14,0,0,1,3.61,3.08,14.82,14.82,0,0,1,2.6,6.05c0,.06,2.56-1.48,2.78-1.59a1.66,1.66,0,0,0,.48-.29,1.29,1.29,0,0,0,.34-.59,7,7,0,0,0,.18-2.89C199.61,202.84,199.56,202.14,199.45,201.44Z"/><path class="cls-17" d="M219.67,372a4.6,4.6,0,0,0,.54,1.85,4.07,4.07,0,0,0,2,1.59,6.5,6.5,0,0,0,3.14.5c2.51-.22,4.57-1.76,7.09-1.88s4.82,0,7.23-.15a20.61,20.61,0,0,0,7.05-1.43c2-.86,4.7-2.32,5.43-4.58a3.59,3.59,0,0,0-1.07-4,7.89,7.89,0,0,0-2.68-1.09c-6.55-1.73-13.49-2.94-20.08-1.34-3.27.79-6.68,2.54-8,5.84A10.1,10.1,0,0,0,219.67,372Z"/><path class="cls-18" d="M233.59,360c-5.14-12.74-4.72-26.76-5.13-40.24a65.27,65.27,0,0,0-.4-8.05c-.37-2.39-.75-4.78-1.19-7.16a91.22,91.22,0,0,0-3.57-14c-2.31-6.5-5.66-12.63-7.41-19.3-1.16-4.42-1.71-9.25-4.65-12.75-.58,1-.93,2.29-1.84,3a8.91,8.91,0,0,1-3.42,1.43,12.51,12.51,0,0,1-6.4-.67,21.13,21.13,0,0,1-8.56-5.57,29.46,29.46,0,0,0-3.47-3.59,5.11,5.11,0,0,0-4.68-1.05,3.18,3.18,0,0,0-2,2.8,6.73,6.73,0,0,1-1.06,3.25,29.19,29.19,0,0,0-3.3,9,17.71,17.71,0,0,0,1.68,11.46c2.28,4.09,6.3,6.73,10,9.43a21.89,21.89,0,0,1,3.62,3.17,41.72,41.72,0,0,1,2.78,4.31l6.43,9.82a42.92,42.92,0,0,0,2.65,3.75c1,1.18,2,2.25,3,3.41a18.13,18.13,0,0,1,4.45,8.48c.56,3.21.06,6.48.3,9.71q.23,3.11.72,6.17a28.35,28.35,0,0,0,1,4.47,47.61,47.61,0,0,0,1.89,4.5,74.26,74.26,0,0,1,5.78,19.83,2,2,0,0,0,.28.93,1.94,1.94,0,0,0,1.62.57,15.67,15.67,0,0,0,10.09-3.65,3,3,0,0,0,1.14-1.59A3.42,3.42,0,0,0,233.59,360Z"/><path class="cls-12" d="M172.29,201.86a24.32,24.32,0,0,0,.28,6.86,330.22,330.22,0,0,1,2.86,44.1c0,2.84-1.31,6.1.13,8.58a15.18,15.18,0,0,0,6.27,5.72A31.22,31.22,0,0,0,192.64,270a57.66,57.66,0,0,0,14.26,0,14,14,0,0,0,5.92-1.9c3-2.06,2-6,1.92-9.14q-.15-6-.35-11.9-.4-11.88-1-23.78a6.32,6.32,0,0,0-1.81-4.79l-7-8.63c-4.31-5.3-8.66-10.69-11.48-16.92a6.65,6.65,0,0,0-1.15-2,5,5,0,0,0-1.94-1.13c-3.58-1.32-8.49-1.84-11.23,1.17S173,197.5,172.29,201.86Z"/><path class="cls-19" d="M202.74,167.8a5.62,5.62,0,0,0,.77,2.82,12.45,12.45,0,0,0,1.27,1.14,1.63,1.63,0,0,1,.6,1.52,2.43,2.43,0,0,1-.74,1c-2,2-2.27,5-2.36,7.8a7.78,7.78,0,0,1-.19,1.81c-.47,1.74-2,2.83-3.56,3.6-1.14.59-3.83,1.06-4.06,2.49a19.3,19.3,0,0,0,.33,5.14,33.73,33.73,0,0,1,.2,5.32,12.76,12.76,0,0,0-5.57-3.26c-1.5-.41-3.06-.55-4.59-.81a27.52,27.52,0,0,1-6.15-1.82c-.58-.26-1.26-.68-1.22-1.32a1.68,1.68,0,0,1,.43-.86,7.79,7.79,0,0,0,2-4.76c-.08-2.88-2.73-4.91-4.36-7.29-1.8-2.61-2.38-5.81-2.62-8.91a16.91,16.91,0,0,1,1.39-9.1A14.53,14.53,0,0,1,184.5,155a15.83,15.83,0,0,1,9.73,1.43,27.4,27.4,0,0,1,4.38,2.56,7.72,7.72,0,0,1,2.31,3.34A18.15,18.15,0,0,1,202.74,167.8Z"/><path class="cls-20" d="M199,162.26c-.35,1.81-1.14,3.5-1.47,5.31a19.23,19.23,0,0,0-.13,4.42,1.34,1.34,0,0,1-.11.8,1.28,1.28,0,0,1-.47.39,9.83,9.83,0,0,1-3.23,1.15c-1.6.25-3.45.2-4.53,1.39a3.16,3.16,0,0,0-.62,2.86,4.87,4.87,0,0,0,1.66,2.48c1.88,1.56,4,3.12,4.21,5.78a1,1,0,0,1-.1.63,1.12,1.12,0,0,1-.45.35A25.57,25.57,0,0,1,181.6,191,17.41,17.41,0,0,1,170,186.6a7.33,7.33,0,0,1-2.41-3.95c-.29-1.65.33-3.45.68-5.07q1.14-5.39,2.79-10.64a19.65,19.65,0,0,1,3.34-7,14.87,14.87,0,0,1,5.18-3.74c5-2.29,10.95-2.74,15.86-.34C198,157.13,199.6,159.39,199,162.26Z"/><path class="cls-18" d="M231.42,157.79l4.16,114.14a11.13,11.13,0,0,0,11.8,10.66h0a11.11,11.11,0,0,0,10.34-12.52l-14-108.72Z"/><g class="cls-1"><path class="cls-18" d="M230.21,77.72c-9.74-5.62-18.57-6.14-25-2.44l-6.57,3.82c6.37-3.7,15.2-3.18,24.95,2.44,19.38,11.19,35,38.31,35,60.57,0,11-3.93,18.83-10.23,22.49l6.58-3.82c6.29-3.66,10.19-11.44,10.23-22.49C265.24,116,249.59,88.91,230.21,77.72Z"/><path class="cls-6" d="M223.63,81.54c-19.36-11.19-35.11-2.18-35.18,20.06S204,151,223.4,162.14s35.14,2.22,35.2-20S243,92.73,223.63,81.54Zm-.21,75.55c-16.93-9.78-30.62-33.47-30.56-52.95s13.83-27.31,30.76-17.53,30.63,33.49,30.58,53S240.37,166.87,223.42,157.09Z"/><g class="cls-21"><path class="cls-13" d="M223.62,86.6c16.95,9.79,30.63,33.5,30.58,53s-13.83,27.31-30.78,17.53-30.62-33.48-30.56-52.94S206.69,76.83,223.62,86.6Z"/></g><path class="cls-18" d="M226.8,153.87c-16.93-9.78-30.62-33.48-30.56-52.94,0-6.7,1.69-12,4.54-15.7-4.89,3.43-7.9,9.93-7.92,19-.06,19.46,13.63,43.16,30.56,52.94,11.11,6.41,20.83,5.21,26.24-1.84C244,159.25,235.88,159.12,226.8,153.87Z"/><g class="cls-22"><path class="cls-17" d="M220.3,97.2c12.31,7.1,22.24,24.32,22.2,38.45s-10,19.83-22.34,12.73-22.24-24.31-22.2-38.44S208,90.1,220.3,97.2Z"/></g></g><path class="cls-19" d="M251.35,246.12c-2.79-.82-5.78-.36-8.67-.64-.63-.06-1.37-.24-1.6-.84a2,2,0,0,1,.17-1.34,5.51,5.51,0,0,0,.32-3,1.75,1.75,0,0,0-.66-1.13.87.87,0,0,0-1.19.19,1.42,1.42,0,0,0-.15.62,3.55,3.55,0,0,1-.74,1.91c-.32.37-.76.64-1.1,1a5.34,5.34,0,0,0-.89,1.44c-.44,1-.75,1.95-1.1,2.93-.28.76-1.24.75-1.93.88a151.88,151.88,0,0,1-18.9-2.17c-2.46-.44-5.54-.59-7.46-2.4-1.5-1.41-1.94-3.65-2.66-5.46-2.44-6-3.42-12.57-5.88-18.59a4.08,4.08,0,0,0-1.1-1.73,4.21,4.21,0,0,0-2.23-.68,19,19,0,0,0-5.27.06,8,8,0,0,0-4.6,2.39,7,7,0,0,0-1.65,5.6,41.22,41.22,0,0,0,2.22,7q1.16,2.87,2.34,5.74c1.59,3.86,3.22,7.71,4.92,11.53,1.26,2.8,2.81,5.83,5.67,6.92a1.78,1.78,0,0,0,.62.3,49.41,49.41,0,0,0,7,1.45c7.73,1,15.59.19,23.27-1.13,1.58-.26,3.15-.57,4.7-1a10.6,10.6,0,0,1,1.26,0,11.2,11.2,0,0,1,2.13.51,17,17,0,0,0,4.59.69c.78,0,1.55-.09,2.32-.1a1.35,1.35,0,0,0,1.34-.86A1,1,0,0,0,246,255a10.77,10.77,0,0,0,2.1-.45,2.25,2.25,0,0,0,1.19-.79,1.43,1.43,0,0,0,.18-.67c0-.06-.15-.79-.25-.71a4.65,4.65,0,0,0,1.23-1.31,1.66,1.66,0,0,0,0-1.71,4.73,4.73,0,0,0,1.66-1.78,1.11,1.11,0,0,0,.17-.63C252.24,246.47,251.77,246.24,251.35,246.12Z"/><path class="cls-2" d="M181.38,215.31a28.25,28.25,0,0,0,1,6.37c.64,2.68,1.27,5.37,2,8a1.26,1.26,0,0,0,.21.47,1,1,0,0,0,.56.24,19.28,19.28,0,0,0,14.3-2.78c1-.65,2.9-2.1,2.77-3.4a21.69,21.69,0,0,0-1-4.36c-.95-3.09-1.91-6.71-3.8-9.38a15.88,15.88,0,0,0-4.06-3.95,8.77,8.77,0,0,0-5.27-1.36c-2.17.11-3.83,1.88-5,3.55a9.58,9.58,0,0,0-1.17,2.86A13.63,13.63,0,0,0,181.38,215.31Z"/><g class="cls-1"><path class="cls-4" d="M148.65,145.29l-6.6,3.83c-.51,4.2-1.25,19.48,13.81,28.73l6.6-3.84C147.4,164.77,148.14,149.49,148.65,145.29Z"/><path class="cls-4" d="M160.31,101.48,108.57,71.6c-1.85-1.07-3.53-1.17-4.74-.46L97.23,75c1.21-.7,2.89-.6,4.74.47l51.74,29.87a14.53,14.53,0,0,1,6.61,11.45L160.23,152c0,2.1-.75,3.58-1.95,4.28l6.6-3.84c1.2-.69,1.94-2.17,1.94-4.27l.1-35.19A14.52,14.52,0,0,0,160.31,101.48Z"/><path class="cls-10" d="M153.71,105.31a14.53,14.53,0,0,1,6.61,11.45L160.23,152c0,4.21-3,5.94-6.66,3.82l-11.52-6.65c-.51,4.2-1.25,19.48,13.81,28.73-.14,0-2.81-.17-7-2.61-6.66-3.85-16.83-13.33-25-36.67l-22-12.67a14.66,14.66,0,0,1-6.64-11.49l.1-35.19c0-4.21,3-5.9,6.68-3.78Z"/><path d="M124,120.16a8.56,8.56,0,0,1,.5-3.29,3.25,3.25,0,0,1,1.19-1.56,15.36,15.36,0,0,1,2.06-1,6.1,6.1,0,0,0,2.38-1.5A4.14,4.14,0,0,0,131,110a8.85,8.85,0,0,0-1.38-4.6,9.2,9.2,0,0,0-3.2-3.36,3.67,3.67,0,0,0-3.32-.53,4,4,0,0,0-2,2.42l-3.21-3.57A5.84,5.84,0,0,1,119.42,98a4.67,4.67,0,0,1,3-1.16,8.09,8.09,0,0,1,4.37,1.33,17.45,17.45,0,0,1,6,5.88,14.79,14.79,0,0,1,2.33,8,9,9,0,0,1-.52,3.41,4.34,4.34,0,0,1-1.33,1.86,10.92,10.92,0,0,1-2.14,1.17q-1.22.56-1.8.9a2.7,2.7,0,0,0-1,1.33,7.32,7.32,0,0,0-.4,2.73v2L124,123.17Zm.21,11.07a4.25,4.25,0,0,1-.71-2.27,1.39,1.39,0,0,1,.73-1.42,2,2,0,0,1,1.77.28,4.81,4.81,0,0,1,1.73,1.74,4.32,4.32,0,0,1,.69,2.24,1.5,1.5,0,0,1-.67,1.48A1.87,1.87,0,0,1,126,133,5.08,5.08,0,0,1,124.25,131.23Z"/></g><path class="cls-2" d="M426.36,448.69c-12.67,7.32-33.28,7.28-46-.09s-12.82-19.26-.14-26.58,33.28-7.28,46,.09S439,441.37,426.36,448.69Z"/><g class="cls-1"><path class="cls-4" d="M375.92,353.17a2.16,2.16,0,0,0-.93-.28c-2.19-.18-5,2.44-6.05,5.68l-10.05,29c-.56,1.69-.29,3.13.6,3.64l2.25,1.31c-.89-.52-1.16-1.95-.6-3.64l10.05-29c1.08-3.25,3.86-5.86,6.05-5.68a2,2,0,0,1,.93.28Z"/><path class="cls-10" d="M377.24,354.2c2.19.17,2.86,3.07,1.45,6.28l-12.25,28.87c-.89,2-2.65,3.52-4,3.41s-1.94-1.79-1.26-3.84l10.05-29C372.27,356.63,375.05,354,377.24,354.2Z"/></g><path class="cls-4" d="M435.81,365.82l-32.53,5.94-32.54-5.94s3.14,61.34,25.63,69.69l.09-.07a22,22,0,0,0,13.79,0h0l.26-.1a15.33,15.33,0,0,0,2.24-1,10.77,10.77,0,0,0,1.29-.88C433.1,420.05,435.81,365.82,435.81,365.82Z"/><path class="cls-10" d="M426.36,378.35c-12.67,7.32-33.28,7.28-46-.08s-12.82-19.27-.14-26.58,33.28-7.28,46,.08S439,371,426.36,378.35Z"/><g class="cls-1"><path class="cls-2" d="M381.06,358.08c-10.86-6.54-10.49-16.95.83-23.26s29.3-6.13,40.16.4,10.48,16.95-.84,23.26S391.92,364.61,381.06,358.08Z"/></g><path class="cls-4" d="M435.17,335.94a29,29,0,0,0-3.12-7.64,30.63,30.63,0,0,0-9-9.67c-.52-.36-1.22-.82-1.76-1.14s-1.49-.83-2.13-1.18A34.83,34.83,0,0,0,408.59,313c-.49-.07-1.15-.17-1.65-.21-2.13-.16-2.17-.17-3.28-.18a36.15,36.15,0,0,0-8.33.88c-.56.12-1.3.29-1.84.46-1,.32-2.43.79-3.46,1.17-.63.25-1.46.63-2.08.92s-1.24.64-1.77.92c-.72.38-1.64,1-2.33,1.43-.52.34-1.18.85-1.68,1.22-.8.58-1.76,1.48-2.49,2.14a25.1,25.1,0,0,0-2.66,2.89,42.8,42.8,0,0,0-2.49,3.61,18.66,18.66,0,0,0-1.15,2.16c-.54,1.24-1.21,2.91-1.63,4.2a25.14,25.14,0,0,0-.9,3.93,37.82,37.82,0,0,0-.35,4.63,13.54,13.54,0,0,0,.23,2.55,15.34,15.34,0,0,0,.83,2.8,15.52,15.52,0,0,0,.88,1.84c.17.33.45.75.65,1.07a16.53,16.53,0,0,0,1.62,2.1,20.59,20.59,0,0,0,2.88,2.71c.83.67,2,1.44,2.93,2h0a32.3,32.3,0,0,0,4.18,2.12c1.21.49,2.84,1.07,4.07,1.48.67.22,1.58.44,2.27.62a50.59,50.59,0,0,0,11.6,1.43c1.42,0,3.32-.08,4.74-.17.71,0,1.66-.16,2.37-.24.25,0,2.63-.34,4.65-.8.73-.17,1.69-.39,2.4-.61,1.27-.39,2.94-.95,4.17-1.41.7-.26,1.59-.67,2.26-1s1.29-.66,1.83-.95,1.52-.9,2.15-1.32c.45-.29,1-.73,1.47-1.05.6-.44,1.34-1.12,1.89-1.62a21.46,21.46,0,0,0,1.83-2,24.12,24.12,0,0,0,1.53-2.21,11.15,11.15,0,0,0,.63-1.18c.29-.66.65-1.54.87-2.22a14.34,14.34,0,0,0,.58-3.06A27.43,27.43,0,0,0,435.17,335.94Z"/><path class="cls-23" d="M391.63,359.76,375,350.17a4.26,4.26,0,0,1-1.77-3.39h0c0-5.86,3.56-8.56,8-6l4.25,2.46c4.39,2.53,7.95,9.34,7.95,15.2h0C393.4,359.73,392.61,360.33,391.63,359.76Z"/><path class="cls-24" d="M381,348.48c0,1.79-1.26,2.5-2.82,1.61a6.23,6.23,0,0,1-2.81-4.86c0-1.79,1.26-2.51,2.81-1.61A6.21,6.21,0,0,1,381,348.48Z"/><path class="cls-25" d="M379.93,347.85c0,1.1-.78,1.55-1.74,1a3.83,3.83,0,0,1-1.73-3c0-1.1.78-1.54,1.73-1A3.84,3.84,0,0,1,379.93,347.85Z"/><path class="cls-24" d="M389.43,353.28c0,1.78-1.27,2.5-2.82,1.6a6.2,6.2,0,0,1-2.82-4.86c0-1.78,1.26-2.5,2.82-1.6A6.22,6.22,0,0,1,389.43,353.28Z"/><path class="cls-25" d="M388.34,352.65c0,1.1-.77,1.54-1.73,1a3.81,3.81,0,0,1-1.74-3c0-1.1.78-1.54,1.74-1A3.8,3.8,0,0,1,388.34,352.65Z"/><path class="cls-4" d="M421.86,392.14c0,3.38,2.39,4.73,5.33,3a11.73,11.73,0,0,0,5.32-9.18c0-3.38-2.38-4.73-5.32-3A11.74,11.74,0,0,0,421.86,392.14Z"/><path class="cls-26" d="M423,390.36c0,1.67,1.18,2.35,2.64,1.51a5.81,5.81,0,0,0,2.64-4.56c0-1.67-1.18-2.34-2.64-1.5A5.81,5.81,0,0,0,423,390.36Z"/><g class="cls-1"><path class="cls-10" d="M427.39,386.57a1.44,1.44,0,0,0-1.46.14,4.51,4.51,0,0,0-2.05,3.54,1.43,1.43,0,0,0,.6,1.32l5.81,3.38a1.44,1.44,0,0,1-.6-1.32,4.5,4.5,0,0,1,2.05-3.55,1.44,1.44,0,0,1,1.46-.14Z"/><path class="cls-10" d="M431.74,390.08c1.13-.65,2.05-.12,2.05,1.18a4.46,4.46,0,0,1-2,3.54c-1.14.66-2.06.14-2.06-1.17A4.5,4.5,0,0,1,431.74,390.08Z"/></g><g class="cls-1"><path class="cls-2" d="M433.4,386.41a2.3,2.3,0,0,0-.93-.28c-2.19-.17-5,2.44-6.05,5.68l-10.05,29.05c-.56,1.69-.29,3.12.6,3.64l2.25,1.3c-.89-.51-1.16-1.95-.6-3.64l10.05-29c1.08-3.24,3.86-5.86,6.05-5.68a2.3,2.3,0,0,1,.93.28Z"/><path class="cls-10" d="M434.72,387.44c2.19.18,2.86,3.07,1.45,6.29l-12.25,28.86c-.89,2-2.66,3.53-4,3.41s-1.94-1.78-1.26-3.84l10.05-29C429.75,389.88,432.53,387.26,434.72,387.44Z"/></g><g class="cls-1"><path class="cls-17" d="M274.52,288.94c-2.67-1.55-5.09-1.69-6.84-.67l-1.54.89c1.76-1,4.18-.88,6.85.67,5.33,3.07,9.63,10.52,9.61,16.62,0,3-1.08,5.18-2.81,6.19l1.53-.89c1.73-1,2.8-3.15,2.81-6.19C284.15,299.46,279.85,292,274.52,288.94Z"/><path class="cls-13" d="M273,289.83c5.33,3.07,9.63,10.52,9.61,16.62s-4.34,8.59-9.67,5.52-9.61-10.52-9.59-16.64S267.68,286.76,273,289.83Z"/><path class="cls-2" d="M278.61,300.38,267,293.66c-.44-.26-.8-.05-.8.45v3.05a1.76,1.76,0,0,0,.8,1.38l11.65,6.73c.44.25.8.05.8-.46v-3.05A1.79,1.79,0,0,0,278.61,300.38Zm-8.25-.8a2.91,2.91,0,0,1-1.33-2.29c0-.84.59-1.18,1.33-.75a2.93,2.93,0,0,1,1.33,2.28C271.69,299.66,271.09,300,270.36,299.58Zm4.85,2.8a2.93,2.93,0,0,1-1.33-2.29c0-.84.6-1.18,1.33-.75a2.93,2.93,0,0,1,1.33,2.29C276.54,302.47,275.94,302.81,275.21,302.38Z"/><path class="cls-2" d="M275.83,305.73l-6.08-3.5c-2-1.13-3.59-.22-3.59,2v.59a20,20,0,0,0,6.78,7.1c2.5,1.46,4.78,1.68,6.47.87v-.91A7.93,7.93,0,0,0,275.83,305.73Z"/></g><g class="cls-1"><path class="cls-17" d="M344.76,363.41c-2.67-1.54-5.1-1.69-6.85-.67l-1.53.89c1.75-1,4.18-.87,6.85.67,5.33,3.08,9.63,10.52,9.61,16.63,0,3-1.08,5.18-2.81,6.18l1.53-.89c1.73-1,2.8-3.14,2.81-6.18C354.39,373.93,350.09,366.49,344.76,363.41Z"/><path class="cls-13" d="M343.23,364.3c5.33,3.08,9.63,10.52,9.61,16.63s-4.35,8.58-9.67,5.51-9.61-10.52-9.6-16.64S337.92,361.23,343.23,364.3Z"/><path class="cls-27" d="M349.19,387.48c-1.65.58-3.74.28-6-1.05a18.62,18.62,0,0,1-5.73-5.49c.37-1.59,1.76-2.11,3.43-1.13l5,2.86A7.75,7.75,0,0,1,349.19,387.48Z"/><path class="cls-19" d="M344.67,383.72h0c-.67.46-1.83-.18-2.54-1.41l0-.07a3.57,3.57,0,0,1-.51-1.7v-3.18l3.54,2v3.23A1.27,1.27,0,0,1,344.67,383.72Z"/><path class="cls-28" d="M341.37,367.69a1.37,1.37,0,0,0-.34-.34,1.2,1.2,0,0,0-.79-.22,2.05,2.05,0,0,0-1.5.82,4.8,4.8,0,0,0-.78,1.79c0,.1,0,.2-.07.31a11.85,11.85,0,0,0-.15,3.41,15.06,15.06,0,0,0,.68,3.61,5.49,5.49,0,0,0,.46,1.06c.37.65.81.94,1.2.92s.62-.56.69-1.06a13.79,13.79,0,0,0,.21-2,10.63,10.63,0,0,0-.31-2.36,9.32,9.32,0,0,1-.29-1.39,1.39,1.39,0,0,1,0-.55c.05-.13.2-.19.29-.29a3.66,3.66,0,0,0,.75-1.79A2.47,2.47,0,0,0,341.37,367.69Z"/><path class="cls-28" d="M345.86,369.19a3.89,3.89,0,0,1,.31.71l.27.65c.17.42.43.82.61,1.25s.33.91.47,1.35a5.74,5.74,0,0,1,.34,1.6,1.94,1.94,0,0,1-.11.43c-.06.25-.11.51-.16.77a2.69,2.69,0,0,1-1.11,1.86,1.39,1.39,0,0,0-.43.28,1.32,1.32,0,0,0-.18.59A11,11,0,0,0,346,381a3.61,3.61,0,0,0,.69,1.85c.39.47.83.69,1.2.47a1.33,1.33,0,0,0,.46-.53,8.27,8.27,0,0,0,.69-3.88,20.06,20.06,0,0,0-.28-3.19,17.9,17.9,0,0,0-.89-3.41A9,9,0,0,0,345.86,369.19Z"/><path class="cls-19" d="M346.5,377.19a2.11,2.11,0,0,0,.17,2.33,1,1,0,0,0,1.7-.12,2.1,2.1,0,0,0-.17-2.34A1,1,0,0,0,346.5,377.19Z"/><path class="cls-19" d="M340.34,373.63c.42,1.17.34,2.13-.17,2.14s-1.28-.92-1.7-2.09-.35-2.12.17-2.14S339.92,372.47,340.34,373.63Z"/><path class="cls-19" d="M346.93,372.54a9.54,9.54,0,0,0-3.6-4.21h0c-1.44-.83-2.8-.8-3.62.1h0a2.08,2.08,0,0,0-.4,1.64l.52,5.37a6.6,6.6,0,0,0,1.14,2.95l.51.75c1.1,1.59,2.61,2.49,3.72,2.21l.58-.14a1.77,1.77,0,0,0,1.22-1.75l.4-4.74a4.32,4.32,0,0,0-.43-2.08Z"/><path class="cls-28" d="M341.18,367.74c-.13.17.61,1.61.73,1.85a11.33,11.33,0,0,0,1.49,2.3c.7.84,1.49,1.52,2.23,2.3a7.6,7.6,0,0,1,1.62,2.49,1.46,1.46,0,0,1,1.07.43,15.18,15.18,0,0,0-.93-5.53,9,9,0,0,0-3.08-3.83C343.06,366.88,341.84,366.88,341.18,367.74Z"/><path class="cls-28" d="M341.93,368.42a2.31,2.31,0,0,1-1.57,2.22,1,1,0,0,0-.66,1,.57.57,0,0,1-.19.49l-.34-1.37.08-1.85.44-.93.67-.46.64,0,1,.52Z"/></g><g class="cls-1"><path class="cls-17" d="M351.67,334.1,293.5,300.51a1.92,1.92,0,0,0-1.92-.19l-1.53.89a1.92,1.92,0,0,1,1.92.19L350.14,335a5.93,5.93,0,0,1,2.7,4.67l0,13.5a1.88,1.88,0,0,1-.78,1.72l1.53-.89a1.88,1.88,0,0,0,.78-1.72l0-13.5A5.93,5.93,0,0,0,351.67,334.1Z"/><path class="cls-13" d="M350.14,335a5.93,5.93,0,0,1,2.7,4.67l0,13.5c0,1.7-1.22,2.39-2.71,1.53L291.92,321.1a5.91,5.91,0,0,1-2.7-4.65l0-13.5c0-1.72,1.21-2.41,2.71-1.55Z"/><polygon class="cls-29" points="344.74 340.15 297.44 312.84 297.44 311.71 344.74 339.01 344.74 340.15"/><polygon class="cls-29" points="327.07 334.13 297.44 317.02 297.44 315.88 327.07 332.99 327.07 334.13"/><polygon class="cls-29" points="344.74 344.33 329.35 335.44 329.35 334.31 344.74 343.19 344.74 344.33"/></g><g class="cls-1"><path class="cls-17" d="M325.79,352.93l-58.19-33.6a1.88,1.88,0,0,0-1.9-.18l-1.53.89a1.88,1.88,0,0,1,1.9.18l58.19,33.6a6,6,0,0,1,2.68,4.66l0,13.5a1.9,1.9,0,0,1-.79,1.74l1.53-.89a1.89,1.89,0,0,0,.79-1.74l0-13.5A5.92,5.92,0,0,0,325.79,352.93Z"/><path class="cls-13" d="M324.26,353.82a5.92,5.92,0,0,1,2.68,4.66l0,13.5c0,1.72-1.21,2.41-2.7,1.55L266,339.94a5.9,5.9,0,0,1-2.68-4.66l0-13.5c0-1.71,1.22-2.41,2.7-1.56Z"/><polygon class="cls-29" points="317.43 363.72 270.13 336.41 270.13 335.27 317.43 362.58 317.43 363.72"/><polygon class="cls-29" points="299.76 348.95 270.13 331.84 270.13 330.71 299.76 347.81 299.76 348.95"/><polygon class="cls-29" points="317.43 359.15 302.04 350.27 302.04 349.13 317.43 358.01 317.43 359.15"/></g><polygon class="cls-9" points="388.53 77.48 392.1 75.43 458.03 113.49 454.46 115.55 388.53 77.48"/><polygon class="cls-11" points="454.46 202.35 458.03 200.29 458.03 113.49 454.46 115.55 454.46 202.35"/><polygon class="cls-30" points="454.46 202.35 388.53 164.28 388.53 77.48 454.46 115.55 454.46 202.35"/><polygon class="cls-29" points="451.76 197.69 391.23 162.75 391.23 93.29 451.76 128.24 451.76 197.69"/><path class="cls-27" d="M441.49,189v2.75l-40-23.08v-2.75c0-7.42,5.23-10.4,11.69-6.67l16.59,9.58C436.25,172.57,441.49,181.59,441.49,189Z"/><path class="cls-19" d="M425.88,172.31h0c-2.24,1.55-6.1-.58-8.45-4.67l-.15-.25a11.82,11.82,0,0,1-1.67-5.66V151.15l11.77,6.8V168.7A4.21,4.21,0,0,1,425.88,172.31Z"/><path class="cls-28" d="M414.91,119a4.7,4.7,0,0,0-1.16-1.15,4,4,0,0,0-2.63-.71,6.75,6.75,0,0,0-5,2.73,15.84,15.84,0,0,0-2.61,6c-.08.33-.15.67-.22,1a39.47,39.47,0,0,0-.52,11.38,50.11,50.11,0,0,0,2.28,12,19.88,19.88,0,0,0,1.52,3.54c1.23,2.15,2.71,3.12,4,3,1.49-.1,2.06-1.85,2.29-3.53a44.32,44.32,0,0,0,.71-6.6,35,35,0,0,0-1-7.88,30,30,0,0,1-1-4.62,4.7,4.7,0,0,1,.12-1.83c.19-.44.67-.64,1-1a12.22,12.22,0,0,0,2.53-5.95C415.51,123.79,416.34,121,414.91,119Z"/><path class="cls-28" d="M429.83,124a12.61,12.61,0,0,1,1,2.35c.31.72.61,1.45.91,2.18.58,1.4,1.44,2.74,2,4.16a47,47,0,0,1,1.57,4.49,20.19,20.19,0,0,1,1.14,5.32,6.25,6.25,0,0,1-.39,1.43c-.2.83-.34,1.72-.53,2.56-.62,2.71-1.7,5.13-3.7,6.21a4.07,4.07,0,0,0-1.42.93,4.2,4.2,0,0,0-.59,2,35,35,0,0,0,.41,7.74,12,12,0,0,0,2.29,6.17c1.29,1.56,2.76,2.29,4,1.56a4.59,4.59,0,0,0,1.53-1.77c1.84-3.27,2.32-8.11,2.28-12.89a63,63,0,0,0-.93-10.62,56.9,56.9,0,0,0-3-11.38A29.46,29.46,0,0,0,429.83,124Z"/><path class="cls-31" d="M432,150.58a7.07,7.07,0,0,0,.58,7.78,3.3,3.3,0,0,0,5.66-.42,7.05,7.05,0,0,0-.58-7.78A3.3,3.3,0,0,0,432,150.58Z"/><path class="cls-31" d="M411.46,138.75c1.41,3.88,1.15,7.06-.57,7.11s-4.26-3.08-5.66-7-1.15-7.07.57-7.11S410.06,134.86,411.46,138.75Z"/><path class="cls-19" d="M433.38,135.12c-2.74-6-7.2-11.27-11.95-14h0c-4.82-2.78-9.32-2.67-12.05.31h0A7,7,0,0,0,408,126.9l1.75,17.87a21.82,21.82,0,0,0,3.78,9.83l1.71,2.49c3.64,5.29,8.67,8.28,12.38,7.35l1.93-.49c2.31-.58,3.79-2.69,4.05-5.8L435,142.37a14.31,14.31,0,0,0-1.42-6.92Z"/><path class="cls-28" d="M414.26,119.12c-.43.57,2,5.36,2.43,6.17a38.41,38.41,0,0,0,4.95,7.65c2.35,2.8,5,5.05,7.44,7.66a26.07,26.07,0,0,1,5.38,8.28,4.94,4.94,0,0,1,3.58,1.43,50.68,50.68,0,0,0-3.11-18.4,29.69,29.69,0,0,0-10.24-12.73C420.5,116.26,416.45,116.26,414.26,119.12Z"/><path class="cls-28" d="M416.76,121.41s0,6.07-5.24,7.39c-1.3.33-2.11,1.54-2.17,3.33a2,2,0,0,1-.65,1.61l-1.13-4.54.26-6.17,1.48-3.11,2.23-1.52,2.13-.11,3.25,1.74Z"/><path class="cls-31" d="M423.6,121.55l-4-2.3c-7.33-4.23-13.26-.84-13.26,7.56v7.72l2.38-.35V127.6c0-7.09,5-9.07,11.19-5.5l3.37,1.94c6.18,3.57,11.2,11.34,11.2,18.44v6.58l2.37,3.16v-7.79C436.86,136,430.92,125.78,423.6,121.55Z"/><path class="cls-31" d="M418.16,158.52l-2.37-1.37a3.44,3.44,0,0,1-1.44-2.76h0c0-1.06.64-1.55,1.44-1.09l2.37,1.37a3.48,3.48,0,0,1,1.44,2.76h0C419.6,158.49,419,159,418.16,158.52Z"/><path class="cls-31" d="M417.18,156.33l-3.26-2a13.32,13.32,0,0,1-5.5-8l-.85-3.78.49.11.86,3.79a12.11,12.11,0,0,0,5,7.32l3.26,2Z"/><path class="cls-29" d="M438.69,114.07c0,1-.68,1.35-1.51.87a3.36,3.36,0,0,1-1.52-2.62c0-1,.68-1.35,1.52-.87A3.37,3.37,0,0,1,438.69,114.07Z"/><path class="cls-29" d="M443.05,116.58c0,1-.68,1.35-1.52.87a3.34,3.34,0,0,1-1.52-2.62c0-1,.68-1.35,1.52-.86A3.32,3.32,0,0,1,443.05,116.58Z"/><path class="cls-29" d="M447.4,119.1c0,1-.68,1.35-1.52.86a3.33,3.33,0,0,1-1.52-2.62c0-1,.68-1.35,1.52-.86A3.33,3.33,0,0,1,447.4,119.1Z"/><path class="cls-29" d="M451.75,121.61c0,1-.68,1.35-1.52.87a3.35,3.35,0,0,1-1.51-2.62c0-1,.67-1.35,1.51-.87A3.36,3.36,0,0,1,451.75,121.61Z"/><g class="cls-1"><path class="cls-32" d="M324.2,38.77a2.88,2.88,0,0,1,2.88.29l50.41,29.1a8.9,8.9,0,0,1,4,7l-.06,21.45a2.82,2.82,0,0,1-1.18,2.6l-4,2.34a2.86,2.86,0,0,0,1.18-2.6l.06-21.46a8.89,8.89,0,0,0-4-7L323.05,41.39a2.85,2.85,0,0,0-2.88-.28Z"/><path class="cls-32" d="M370.38,94.86a17.69,17.69,0,0,0,8.42,17.52l-4,2.34a17.73,17.73,0,0,1-8.42-17.52Z"/><path class="cls-33" d="M323.05,41.39c-2.23-1.29-4.05-.25-4.06,2.32l-.06,21.46a8.9,8.9,0,0,0,4,7l32.24,18.62c5,14.23,11.2,20,15.27,22.36a10.84,10.84,0,0,0,4.29,1.59,17.73,17.73,0,0,1-8.42-17.52l7,4.06c2.23,1.29,4.05.25,4.06-2.32l.06-21.46a8.89,8.89,0,0,0-4-7Z"/><path class="cls-29" d="M358.4,82.42a5.1,5.1,0,0,0,2.3,4c1.28.73,2.31.14,2.31-1.32a5.08,5.08,0,0,0-2.31-4C359.43,80.36,358.4,81,358.4,82.42Z"/><path class="cls-29" d="M349.63,77.35a5.05,5.05,0,0,0,2.31,4c1.27.74,2.3.15,2.3-1.31a5.08,5.08,0,0,0-2.3-4C350.66,75.3,349.63,75.89,349.63,77.35Z"/><path class="cls-29" d="M340.86,72.29a5.07,5.07,0,0,0,2.31,4c1.27.74,2.3.15,2.3-1.31a5.07,5.07,0,0,0-2.3-4C341.89,70.24,340.86,70.83,340.86,72.29Z"/><path class="cls-29" d="M332.09,67.23a5.08,5.08,0,0,0,2.31,4c1.27.73,2.31.15,2.31-1.32a5.11,5.11,0,0,0-2.31-4C333.12,65.18,332.09,65.77,332.09,67.23Z"/></g><path class="cls-2" d="M77.17,376.29,91.51,368c1-.56.86-1.56-.27-2.21L64.67,350.46a4.23,4.23,0,0,0-3.83-.16l-14.35,8.28c-1,.57-.86,1.56.28,2.22l26.57,15.33A4.23,4.23,0,0,0,77.17,376.29Z"/><path class="cls-2" d="M126.21,347.23,140.55,339c1-.57.86-1.56-.27-2.22l-26.57-15.34a4.31,4.31,0,0,0-3.84-.16l-14.34,8.28c-1,.57-.86,1.56.28,2.22l26.56,15.34A4.31,4.31,0,0,0,126.21,347.23Z"/><g class="cls-1"><path class="cls-34" d="M132.31,314.76q-2.38-1.18-6,.9a17,17,0,0,0-5.66,5.39,8.46,8.46,0,0,0-.49.73,14.68,14.68,0,0,0-2.52,7.86c0,2.44.7,4.07,2.09,4.86L94.29,319.73c-1.4-.81-2.09-2.44-2.09-4.88A14.93,14.93,0,0,1,94.71,307c.15-.22.29-.44.45-.66a17,17,0,0,1,5.71-5.46c2.4-1.39,4.39-1.68,6-.9Z"/><path class="cls-7" d="M120.17,321.78a14.68,14.68,0,0,0-2.52,7.86c0,2.44.7,4.07,2.09,4.86L94.29,319.73c-1.4-.81-2.09-2.44-2.09-4.88A14.93,14.93,0,0,1,94.71,307c.15-.22.29-.44.45-.66l25.5,14.72A8.46,8.46,0,0,0,120.17,321.78Z"/><path class="cls-35" d="M132.32,314.77c1.6.79,2.41,2.47,2.41,5a15,15,0,0,1-2.3,7.83,16.91,16.91,0,0,1-6.06,6c-2.52,1.45-4.59,1.81-6.24,1.1s-2.47-2.4-2.48-5.07a14.77,14.77,0,0,1,2.52-7.86,17.7,17.7,0,0,1,6.14-6.12C128.72,314.27,130.72,314,132.32,314.77Z"/></g><g class="cls-1"><polygon class="cls-7" points="119.33 305.02 93.88 290.23 93.85 279.76 119.3 294.56 119.33 305.02"/><path d="M125,189.2,150.4,204a9.8,9.8,0,0,0-1.07-.55l-25.45-14.79A9.8,9.8,0,0,1,125,189.2Z"/><path class="cls-7" d="M113.29,206.43l25.45,14.79q4.42,2.58,4.44,10.24a32,32,0,0,1-2.72,13.08,108.9,108.9,0,0,1-8.21,14.73q-4.77,7.41-7.15,11.61a47.36,47.36,0,0,0-4.1,10.19,48.41,48.41,0,0,0-1.7,13.48L93.85,279.76a48.41,48.41,0,0,1,1.7-13.48,47.36,47.36,0,0,1,4.1-10.19q2.37-4.2,7.15-11.61A108.9,108.9,0,0,0,115,229.75a32,32,0,0,0,2.72-13.08Q117.72,209,113.29,206.43Z"/><path class="cls-34" d="M97.58,250.64,72.13,235.85a75.78,75.78,0,0,1,5.47-14.74A79.18,79.18,0,0,1,88,205a55.23,55.23,0,0,1,15.17-12.92q12.59-7.1,20.72-3.47l25.45,14.79q-8.12-3.65-20.72,3.47a55.23,55.23,0,0,0-15.17,12.92,79.18,79.18,0,0,0-10.39,16.07A76.44,76.44,0,0,0,97.58,250.64Z"/><path class="cls-35" d="M149.33,203.44q8.13,3.65,8.17,18.43a51.33,51.33,0,0,1-1.78,13.94,59.85,59.85,0,0,1-4.59,11.8q-2.81,5.37-7.44,12.71-4.19,6.75-6.19,10.31a37.27,37.27,0,0,0-3.38,8.54,41,41,0,0,0-1.36,11.1l0,7L119.33,305l0-10.47a48.41,48.41,0,0,1,1.7-13.48,47.36,47.36,0,0,1,4.1-10.19q2.37-4.2,7.15-11.61a108.9,108.9,0,0,0,8.21-14.73,32,32,0,0,0,2.72-13.08c0-5.31-1.61-8.8-4.82-10.44s-6.91-1.27-11.15,1.18a33.16,33.16,0,0,0-11.49,11.47,58.31,58.31,0,0,0-7,16.53l-11.16.44a76.44,76.44,0,0,1,5.47-14.74,79.18,79.18,0,0,1,10.39-16.07,55.23,55.23,0,0,1,15.17-12.92Q141.2,199.82,149.33,203.44Z"/></g><g class="cls-1"><path class="cls-17" d="M87.36,341.83,65.6,329.18l-.38-.19c-1.81-.78-4-.43-6.54,1.05a17.89,17.89,0,0,0-6.38,6.41l21.75,12.64a17.92,17.92,0,0,1,6.39-6.41c2.56-1.48,4.73-1.82,6.53-1.05A2.38,2.38,0,0,1,87.36,341.83Z"/><path class="cls-13" d="M52,350.05l21.75,12.64q-2.22-1.29-2.23-5.35a16,16,0,0,1,2.51-8.25L52.3,336.45a16,16,0,0,0-2.51,8.25C49.79,347.41,50.54,349.19,52,350.05Z"/><path class="cls-36" d="M74.05,349.09a16,16,0,0,0-2.51,8.25q0,4.28,2.47,5.48c1.66.82,3.81.46,6.48-1.09a18.54,18.54,0,0,0,6.58-6.45,15.5,15.5,0,0,0,2.6-8.4c0-2.69-.92-4.43-2.7-5.25s-4-.43-6.53,1.05A17.92,17.92,0,0,0,74.05,349.09Z"/></g><g class="cls-1"><polygon class="cls-13" points="74.11 231.69 52.36 219.05 52.65 320.24 74.4 332.88 74.11 231.69"/><polygon class="cls-17" points="87.01 224.25 65.25 211.61 52.36 219.05 74.11 231.69 87.01 224.25"/><polygon class="cls-36" points="74.11 231.69 74.4 332.88 87.3 325.44 87.01 224.25 74.11 231.69"/></g><g class="cls-1"><path class="cls-2" d="M132.26,388.19c.61.35.62.92,0,1.27l-17.85,10.38a2.46,2.46,0,0,1-2.21,0l-18-10.38a.67.67,0,0,1,0-1.27l17.85-10.38a2.44,2.44,0,0,1,2.2,0Z"/><path class="cls-35" d="M129.66,384.06,114.26,393a2.08,2.08,0,0,1-1.91,0l-15.51-8.95a.67.67,0,0,1-.39-.55v4.39a.67.67,0,0,0,.39.55l15.51,9a2.14,2.14,0,0,0,1.91,0l15.4-9a.65.65,0,0,0,.39-.54v-4.39A.67.67,0,0,1,129.66,384.06Z"/><path class="cls-7" d="M129.65,383c.53.3.54.8,0,1.1L114.26,393a2.08,2.08,0,0,1-1.91,0l-15.51-8.95a.58.58,0,0,1,0-1.1L112.25,374a2.06,2.06,0,0,1,1.9,0Z"/><polygon class="cls-29" points="110.31 385.41 104.73 384.4 109.49 382.46 109.39 379.08 114.09 381.11 119.61 380.04 117.75 383.23 121.26 385.94 115.42 385.88 112.06 388.63 110.31 385.41"/></g><g class="cls-1"><path class="cls-2" d="M153.13,400.38a.68.68,0,0,1,0,1.28L135.29,412a2.4,2.4,0,0,1-2.21,0l-18-10.37a.67.67,0,0,1,0-1.28L133,390a2.38,2.38,0,0,1,2.2,0Z"/><path class="cls-37" d="M150.53,396.26l-15.4,8.95a2.14,2.14,0,0,1-1.91,0l-15.51-8.95a.69.69,0,0,1-.39-.56v4.4a.65.65,0,0,0,.39.55l15.51,9a2.08,2.08,0,0,0,1.91,0l15.4-9a.67.67,0,0,0,.39-.55v-4.39A.67.67,0,0,1,150.53,396.26Z"/><path class="cls-33" d="M150.52,395.15c.53.31.54.8,0,1.11l-15.4,8.95a2.14,2.14,0,0,1-1.91,0l-15.51-8.95a.59.59,0,0,1,0-1.11l15.41-8.95a2.12,2.12,0,0,1,1.9,0Z"/><polygon class="cls-29" points="131.18 397.6 125.59 396.59 130.35 394.65 130.26 391.28 134.96 393.31 140.48 392.23 138.62 395.42 142.13 398.13 136.29 398.08 132.93 400.83 131.18 397.6"/></g><g class="cls-1"><path class="cls-2" d="M174.25,412.48a.68.68,0,0,1,0,1.28l-17.86,10.37a2.46,2.46,0,0,1-2.21,0l-18-10.37a.68.68,0,0,1,0-1.28l17.86-10.38a2.42,2.42,0,0,1,2.19,0Z"/><path class="cls-32" d="M171.66,408.35l-15.41,9a2.12,2.12,0,0,1-1.9,0l-15.51-9a.68.68,0,0,1-.4-.55v4.4a.66.66,0,0,0,.4.55l15.5,8.95a2.14,2.14,0,0,0,1.91,0l15.41-8.95a.67.67,0,0,0,.39-.55v-4.39A.65.65,0,0,1,171.66,408.35Z"/><path class="cls-38" d="M171.65,407.25c.53.31.53.8,0,1.1l-15.41,9a2.12,2.12,0,0,1-1.9,0l-15.51-9c-.53-.3-.53-.79,0-1.1l15.4-8.95a2.12,2.12,0,0,1,1.9,0Z"/><polygon class="cls-29" points="152.31 409.7 146.72 408.69 151.48 406.75 151.39 403.38 156.08 405.4 161.61 404.33 159.75 407.52 163.26 410.23 157.42 410.18 154.06 412.93 152.31 409.7"/></g><g class="cls-1"><path class="cls-2" d="M195.35,424.61a.68.68,0,0,1,0,1.28l-17.85,10.37a2.46,2.46,0,0,1-2.21,0l-18-10.37a.68.68,0,0,1,0-1.28l17.85-10.37a2.38,2.38,0,0,1,2.2,0Z"/><path class="cls-39" d="M192.75,420.49l-15.4,8.95a2.14,2.14,0,0,1-1.91,0l-15.51-8.95a.69.69,0,0,1-.39-.56v4.4a.67.67,0,0,0,.39.55l15.51,8.95a2.08,2.08,0,0,0,1.91,0l15.4-8.95a.67.67,0,0,0,.39-.55v-4.39A.68.68,0,0,1,192.75,420.49Z"/><path class="cls-40" d="M192.74,419.38c.53.31.54.8,0,1.11l-15.4,8.95a2.14,2.14,0,0,1-1.91,0l-15.51-8.95a.59.59,0,0,1,0-1.11l15.41-8.95a2.12,2.12,0,0,1,1.9,0Z"/><polygon class="cls-29" points="173.4 421.83 167.82 420.82 172.58 418.88 172.48 415.51 177.18 417.54 182.7 416.46 180.84 419.65 184.35 422.36 178.51 422.31 175.15 425.06 173.4 421.83"/></g><g class="cls-1"><path class="cls-2" d="M216.22,436.76c.61.35.62.92,0,1.27l-17.85,10.38a2.46,2.46,0,0,1-2.21,0L178.2,438a.67.67,0,0,1,0-1.27l17.85-10.38a2.44,2.44,0,0,1,2.2,0Z"/><path class="cls-41" d="M213.62,432.63l-15.4,8.95a2.08,2.08,0,0,1-1.91,0l-15.51-8.95a.67.67,0,0,1-.39-.55v4.39a.69.69,0,0,0,.39.56l15.51,9a2.14,2.14,0,0,0,1.91,0l15.4-9a.68.68,0,0,0,.39-.55v-4.39A.65.65,0,0,1,213.62,432.63Z"/><path class="cls-42" d="M213.61,431.53c.53.3.54.8,0,1.1l-15.4,8.95a2.08,2.08,0,0,1-1.91,0l-15.51-8.95a.58.58,0,0,1,0-1.1l15.41-8.95a2.06,2.06,0,0,1,1.9,0Z"/><polygon class="cls-29" points="194.27 433.98 188.69 432.97 193.45 431.03 193.35 427.66 198.05 429.68 203.57 428.61 201.71 431.8 205.22 434.51 199.38 434.46 196.02 437.2 194.27 433.98"/></g><g class="cls-1"><path class="cls-2" d="M323.45,445.2c-16.82,9.71-44,9.73-60.7,0s-16.62-25.46.2-35.17,44-9.72,60.72,0S340.27,435.49,323.45,445.2Z"/><path class="cls-33" d="M319.55,439.29c7.37-4.25,11.06-9.84,11-15.42v-5.94c0,5.57-3.67,11.16-11.05,15.42-14.64,8.45-38.29,8.47-52.83,0-7.23-4.2-10.85-9.69-10.86-15.2v5.94c0,5.51,3.64,11,10.86,15.21C281.26,447.76,304.91,447.75,319.55,439.29Z"/><path class="cls-32" d="M319.53,433.35c-14.64,8.45-38.29,8.47-52.83,0s-14.47-22.16.17-30.62,38.31-8.45,52.86,0S334.17,424.89,319.53,433.35Z"/><path class="cls-29" d="M278.1,415.19l-2,1.16-9.62-5.56h1.41c2.91,0,5.23,0,6.94-.06a40.47,40.47,0,0,0,4.77-.38,9.67,9.67,0,0,0,3.44-1c.86-.5,1.27-1,1.21-1.59a2.06,2.06,0,0,0-1.21-1.48,5,5,0,0,0-1.83-.64,5.27,5.27,0,0,0-1.78,0,4.31,4.31,0,0,0-1.37.49c-.92.52-1.38,1.12-1.41,1.77l-2.42-.06a1.56,1.56,0,0,1,.29-1.5A4.63,4.63,0,0,1,276,405a7.92,7.92,0,0,1,2.78-.92,10.09,10.09,0,0,1,3.33.05,9.74,9.74,0,0,1,3.27,1.18,3.9,3.9,0,0,1,1.72,1.7,2,2,0,0,1,0,1.85,4.14,4.14,0,0,1-1.69,1.62,10.37,10.37,0,0,1-3,1.07,27.42,27.42,0,0,1-3.71.49c-1.27.08-2.91.16-4.91.22l-.68,0Z"/><path class="cls-29" d="M292.6,420.11,291,421,289.15,420l-3.39,2-2.08-1.2,3.39-2L280.52,415h0L300,413.71h0L290.75,419Zm-3.93-2.27,4.37-2.53-7.78.56Z"/><path class="cls-29" d="M290.14,424.92l-1.82-1.05,14.91-3.95,7.46-2,1.83,1.05Z"/><path class="cls-29" d="M320.58,425.81l-19.71,4.84-2.34-1.35,17-4.1-6.2-3.58,2-1.15Z"/></g><path class="cls-2" d="M484.9,396.28c-8.68-5.28-22.88-5.6-31.71-.74s-9,13.11-.31,18.38,22.85,5.59,31.71.71S493.56,401.54,484.9,396.28Z"/><g class="cls-1"><path class="cls-13" d="M449,399a13.2,13.2,0,0,1,5.19-4.73c8.28-4.56,21.59-4.26,29.73.69a13.17,13.17,0,0,1,5.17,5.22l.84.27,0,2.89c.11,3.24-2,6.46-6.27,8.83-8.31,4.57-21.62,4.27-29.73-.67-4.05-2.46-6.05-5.6-6-8.7h0v-3Z"/><path class="cls-17" d="M483.9,391.53c-8.14-4.95-21.45-5.25-29.73-.69s-8.43,12.28-.29,17.23,21.42,5.24,29.73.67S492,396.47,483.9,391.53Z"/><path class="cls-27" d="M449,401.49l-.74.4a12.36,12.36,0,0,0,5.59,6.18A28.29,28.29,0,0,0,466,411.79c2.8-1.53,2.83-4.13.11-5.8l-7-4.27A11.11,11.11,0,0,0,449,401.49Z"/><path class="cls-19" d="M458.55,403.91h0c-.13,1.17,1.47,2.18,3.5,2.23h.12a5,5,0,0,0,2.48-.54l4-2.18-5-3-4,2.21A1.8,1.8,0,0,0,458.55,403.91Z"/><path class="cls-31" d="M474.53,402.58c-1.7.26-2.81,1-2.48,1.62s2,.94,3.67.67,2.81-1,2.48-1.62S476.23,402.32,474.53,402.58Z"/><path class="cls-31" d="M465.67,397.19a2.93,2.93,0,0,1-2.94,1.35,1.38,1.38,0,0,1-1-2.15A2.93,2.93,0,0,1,464.7,395,1.37,1.37,0,0,1,465.67,397.19Z"/><path class="cls-19" d="M471.17,393.52a13.57,13.57,0,0,1,7.75,1.61h0c2,1.24,2.92,3,2.37,4.61h0a3.05,3.05,0,0,1-1.79,1.64l-7.1,3a9.24,9.24,0,0,1-4.48.6l-1.29-.13c-2.74-.27-4.9-1.55-5.32-3.14l-.22-.83a2.54,2.54,0,0,1,1.35-2.72l5.68-3.76a6.24,6.24,0,0,1,2.9-.89Z"/><path class="cls-43" d="M481.1,397.38c-.07.12-.15.24-.23.35a1.31,1.31,0,0,1-.43.3,4.14,4.14,0,0,1-1.07.44,5.7,5.7,0,0,1-1.76.2,3.69,3.69,0,0,1-1.92-1,3.2,3.2,0,0,0-2-.84,4.17,4.17,0,0,0-2,.71,2.84,2.84,0,0,1-2.19.32c-.56-.22-.63-.67-.9-1a2.64,2.64,0,0,0-2.6-.91,5.26,5.26,0,0,1-1.26.2.57.57,0,0,0,0-.76c-.68-.89-2.53.53-2.76.93a3.27,3.27,0,0,0-.38.89.82.82,0,0,0,.27.82c.11.1.49.24.44.34a1.14,1.14,0,0,1-.26.37,1.61,1.61,0,0,1-.63.3,2.28,2.28,0,0,1-1.19,0,2.54,2.54,0,0,1-1-.45,1.5,1.5,0,0,1-.69-1.47,2.19,2.19,0,0,1,1.16-1.35,6.72,6.72,0,0,1,1.35-.49,3.11,3.11,0,0,0,1.15-.66c.5-.49.6-1.09,1.08-1.59a4.14,4.14,0,0,1,2.61-1c1.89-.14,3.78.6,5.68.47,1-.06,1.84-.34,2.8-.4a7.93,7.93,0,0,1,3.1.51,10,10,0,0,1,1.86.9c1.41.9,2.1,2,2,3.18A1.78,1.78,0,0,1,481.1,397.38Z"/><path class="cls-43" d="M475.52,401.71l.22.24a2.55,2.55,0,0,0,1,.63,4.82,4.82,0,0,1,1.23.44c1.22,1-1.77,1.68-2.93,1.8a6.89,6.89,0,0,1-1.12.06,3,3,0,0,1-1-.16c-.2-.09-.35-.2-.55-.28a1.56,1.56,0,0,0-1.62.26.49.49,0,0,0-.05.61,3.64,3.64,0,0,0,2.64,1.21c1.07.09,1.47-.51,2.25-.78a7,7,0,0,1,1.8-.3,9.69,9.69,0,0,0,1.09-.06,2.64,2.64,0,0,0,2.38-1.93,4.81,4.81,0,0,1,.61-2.26c.61-.77,1.86-1.28,2.49-2a1.1,1.1,0,0,0,.35-.94,2.08,2.08,0,0,0-.65-1.15c-.82-.77-2.7-.64-3.72-.12a1.78,1.78,0,0,0-1.06,1.27,1.91,1.91,0,0,1-.13.78c-.25.39-.89.51-1.52.6a3.38,3.38,0,0,0-1.83.68.8.8,0,0,0-.18.85A1.65,1.65,0,0,0,475.52,401.71Z"/><path class="cls-31" d="M467,394.15l-2.94,1.61.77.73,3.39-1.85a9.94,9.94,0,0,1,9.25.42l1.43.87c2.62,1.59,2.91,3.89.24,5.35l-2.48,1.36.36,1,2.9-1.59c3.17-1.73,3.22-4.66.12-6.55l-1.69-1A12.55,12.55,0,0,0,467,394.15Z"/><path class="cls-31" d="M464.91,403.72l1,.61a1.47,1.47,0,0,0,1.34,0h0c.4-.22.45-.56.11-.77l-1-.61a1.51,1.51,0,0,0-1.34,0h0C464.62,403.17,464.57,403.52,464.91,403.72Z"/><path class="cls-31" d="M465.94,403.64l1.42.82a5.69,5.69,0,0,0,4.16.41l1.6-.45-.15-.17-1.6.46a5.17,5.17,0,0,1-3.79-.38l-1.43-.82Z"/></g></g></g></svg>