<?xml version="1.0" encoding="utf-8"?>
<!-- Generator: Adobe Illustrator 24.3.0, SVG Export Plug-In . SVG Version: 6.00 Build 0)  -->
<svg version="1.2" baseProfile="tiny" id="Layer_1" xmlns="http://www.w3.org/2000/svg" xmlns:xlink="http://www.w3.org/1999/xlink"
	 x="0px" y="0px" viewBox="0 0 550 500" overflow="visible" xml:space="preserve">
<g>
	<g id="Layer">
		<path fill="#F2F2F2" d="M453.5,362.8l-40.6-23.4c-0.9-0.5-0.8-1.4,0.2-2l2.3-1.3c1-0.6,2.3-0.6,3.4-0.1l40.6,23.4
			c0.9,0.5,0.8,1.4-0.2,1.9l-2.3,1.3C455.8,363.2,454.5,363.3,453.5,362.8z"/>
		<path fill="#999999" d="M457.4,247.8l-37.3-21.6c-0.5-0.4-1.2-0.4-1.8-0.1l-3.7,2.1l4.3,3.4l1.1-0.3v88.5c0,2.1,1.3,4.5,2.8,5.4
			l32.7,24v1.5l3.8-2.2l0,0c0.7-0.5,1-1.4,0.9-2.2v-93C460.2,251.1,459,248.7,457.4,247.8z"/>
		<path fill="#E6E6E6" d="M451.7,255.6v-4.2l-3.7,2.8l-16-6.7l-12.1-8.7v-7.5l-1.1,0.3l-4.3-3.4l3.7-2.1c0.6-0.3,1.3-0.2,1.8,0.1
			l37.3,21.6c1.1,0.8,2,1.9,2.4,3.2L451.7,255.6z"/>
		<path fill="#CCCCCC" d="M453.7,350.4l-37.3-21.6c-1.7-1.2-2.8-3.2-2.8-5.4v-93c0-2.1,1.3-3,2.8-2.1l37.3,21.6
			c1.6,0.9,2.8,3.3,2.8,5.4v93C456.6,350.4,455.3,351.3,453.7,350.4z"/>
		<path fill="#333333" d="M414.4,324v-93.1c0-1.5,0.9-2.2,2.1-1.5l37.2,21.5c1.3,0.9,2,2.4,2.1,3.9v93.1c0,1.5-0.9,2.2-2.1,1.6
			L416.5,328C415.2,327,414.4,325.6,414.4,324z"/>
		<path fill="#FF3333" d="M454.6,255.7v90.2c0,1.3-1,1.9-2.1,1.2L417.6,327c-1.2-0.8-2-2.2-2.1-3.6v-90.2c0-1.3,1-1.9,2.1-1.2
			l6.4,3.7c0.3,0.2,0.5,0.5,0.6,0.8l0.3,1.3c0.3,1.4,1.2,2.7,2.4,3.4l15.6,9c1.2,0.7,2.2,0.4,2.4-0.6l0.3-1c0.1-0.3,0.3-0.3,0.6-0.2
			l6.4,3.7C453.7,252.9,454.5,254.3,454.6,255.7z"/>
		<path d="M433.5,300c-0.3-0.5-0.5-1-0.5-1.6c-0.1-0.4,0.1-0.8,0.5-1c0.4-0.1,0.9-0.1,1.2,0.2c0.5,0.3,0.9,0.7,1.2,1.2
			c0.3,0.5,0.5,1,0.5,1.6c0.1,0.4-0.1,0.8-0.5,1c-0.4,0.1-0.9,0.1-1.2-0.2C434.2,300.9,433.8,300.5,433.5,300z M435.9,276.8v19
			l-2.4-1.4v-19L435.9,276.8z"/>
		<path d="M434.7,269.1c-9.4-5.4-17-1.1-17,9.7s7.6,23.9,17,29.4s17,1.1,17-9.7C451.7,287.7,444.1,274.5,434.7,269.1z M434.7,304
			c-7.4-4.3-13.3-14.6-13.3-23c0-8.5,6-11.9,13.3-7.6c7.4,4.3,13.3,14.6,13.3,23C448.1,304.8,442.1,308.2,434.7,304z"/>
		<path fill="#666666" d="M428.7,239.9c0,0.7-0.5,1-1.1,0.7c-0.7-0.4-1.1-1.2-1.1-2c0-0.7,0.5-1,1.1-0.6
			C428.3,238.4,428.7,239.1,428.7,239.9z"/>
		<path fill="#333333" d="M428.2,239.6c0,0.4-0.3,0.5-0.6,0.4c-0.4-0.2-0.6-0.6-0.6-1.1c0-0.4,0.3-0.6,0.6-0.4
			C427.9,238.8,428.2,239.2,428.2,239.6z"/>
		<path d="M440.5,245.1l-11.1-6.4c-0.2-0.1-0.3-0.4-0.3-0.6v-0.4c0-0.2,0.1-0.4,0.3-0.2l11.1,6.4c0.2,0.1,0.3,0.4,0.3,0.6v0.4
			C440.8,245.1,440.7,245.2,440.5,245.1z"/>
		<g>
			<path fill="#E6E6E6" d="M459.2,267.4c-0.3-0.1-0.6-0.1-0.9,0.1c-0.7,0.5-1.2,1.2-1.2,2.1v11c-0.1,0.3,0.1,0.6,0.4,0.8l0.7,0.4
				c-0.3-0.2-0.4-0.5-0.4-0.8V270c0-0.8,0.5-1.6,1.2-2.1c0.2-0.2,0.6-0.2,0.9-0.1L459.2,267.4z"/>
			<path fill="#BFBFBF" d="M459,267.9c0.7-0.4,1.2-0.1,1.2,0.7v11c0,0.8-0.5,1.6-1.2,2.1c-0.7,0.4-1.2,0.1-1.2-0.7V270
				C457.9,269.2,458.3,268.4,459,267.9z"/>
			<path fill="#CCCCCC" d="M459.2,269.2c0.5-0.3,1-0.1,1,0.6v9.1c0,0.7-0.4,1.3-1,1.7c-0.5,0.3-1,0.1-1-0.6v-9.1
				C458.3,270.2,458.6,269.6,459.2,269.2z"/>
		</g>
		<path fill="#F2F2F2" d="M400.5,319.3l-48.8-28.2l7.9-4.6c1.3-0.7,1.4-1.8,0.3-2.5l-45.5-26.2c-1.4-0.6-3-0.6-4.3,0.2l-7.9,4.5
			l-46.3-26.7c-0.8-0.4-1.7-0.3-2.5,0.1l-1.6,0.9c-0.7,0.4-0.8,1.1-0.2,1.4l46.3,26.7l-13.8,8c-1.3,0.7-1.4,1.8-0.3,2.5l45.5,26.2
			c1.4,0.6,3,0.6,4.3-0.2l13.7-7.9l48.8,28.2c0.8,0.4,1.7,0.3,2.5-0.1l1.6-0.9C401,320.3,401.1,319.7,400.5,319.3z"/>
		<path fill="#CCCCCC" d="M354.7,279.5l-0.4,2.2l-1.1,2.1l-2.6,1.9l-1.8,1.3l-8.3,4.7l-10.6,6.7l-40.7-23.5l0,0
			c-0.1-0.1-0.2-0.3-0.2-0.4c0-0.5,0.3-1,0.7-1.2l19.6-11.4l0.9-0.5c1.2-0.7,2.1-1.8,2.7-3.1c0.6-1.1,0.8-2.4,0.5-3.6L302,222
			l1.4-1.3l40.7,23.5l-0.2,3.1l4.7,12.6l3.6,10.8l2.3,6.2L354.7,279.5z"/>
		<path fill="#E6E6E6" d="M350.6,285.7l-1.8,1.3l-8.3,4.7l-10.6,6.7l-40.7-23.5l0,0c-0.1-0.1-0.2-0.3-0.2-0.4c0-0.5,0.3-1,0.7-1.2
			l19.6-11.4L350.6,285.7z"/>
		<path fill="#A6A6A6" d="M350.8,286.5l-20.5,11.9c-0.4,0.2-0.7,0-0.7-0.4l0,0c0-0.5,0.3-1,0.7-1.2l20.5-11.9
			c1.2-0.7,2.1-1.8,2.7-3.1c0.6-1.1,0.8-2.4,0.5-3.6l-11.4-32.8l1.4-1.3l11.4,32.7c0.4,1.7,0.2,3.5-0.6,5
			C353.9,283.8,352.6,285.4,350.8,286.5z"/>
		<g>
			<path fill="#595959" d="M397.1,181.1l-139.3-80.4c-0.7-0.5-1.5-0.6-2.3-0.2l-2.8,1.6c0.7-0.3,1.6-0.3,2.3,0.2l139.3,80.4
				c1.9,1.2,3.1,3.3,3.2,5.5l-0.3,106.9c0.1,0.8-0.3,1.6-0.9,2l2.8-1.6c0.7-0.5,1-1.2,0.9-2l0.3-106.9
				C400.1,184.4,398.9,182.3,397.1,181.1z"/>
			<path fill="#BFBFBF" d="M400,274.8l-0.1,18.7c0.1,0.8-0.3,1.6-0.9,2l-2.8,1.6c0.7-0.5,1-1.2,0.9-2l0.1-18.8L400,274.8z"/>
			<path fill="#333333" d="M397.4,188.2l-0.3,106.9c0,2-1.4,2.8-3.2,1.8l-139.3-80.4c-1.9-1.2-3.1-3.3-3.2-5.5l0.3-106.9
				c0-2,1.4-2.8,3.2-1.8l139.3,80.4C396.1,184,397.3,186,397.4,188.2z"/>
		</g>
		<path fill="#D9D9D9" d="M397.2,276.4l-0.1,18.7c0,2-1.4,2.8-3.2,1.8l-139.3-80.4c-1.9-1.2-3.1-3.3-3.2-5.5l0.1-18.7L397.2,276.4z"
			/>
		<polygon fill="#0081ED" points="393.6,268.1 256.6,188.7 256.6,109.4 393.6,188.8 		"/>
		<g>
			<polygon fill="#525D66" points="360.3,169.5 277.8,201 256.6,188.7 256.6,109.4 			"/>
			<polygon fill="#525D66" points="378.3,179.9 295.8,211.4 285.2,205.3 367.7,173.8 			"/>
		</g>
		
			<ellipse transform="matrix(5.410451e-03 -1 1 5.410451e-03 -130.5951 576.2073)" fill="#F2F2F2" cx="224.4" cy="353.8" rx="19.9" ry="34.5"/>
		<path fill="#FFB78C" d="M254.1,193.4c-0.1-0.3-0.3-0.5-0.6-0.5c0.3-0.4,0.3-0.9-0.1-1.2c0,0,0,0,0,0c-0.4-0.3-0.8-0.4-1.3-0.4
			c0-0.5,0.5-1.1,0.1-1.5c-0.3-0.4-0.9-0.2-1.3,0c-1.8,0.8-3.6,1.8-5.2,2.9c-0.9,0.6-1.9,1.4-3.1,1.3c0-0.6,0.2-1.3,0.5-1.8
			c0.3-0.6,0.4-1.3,0.4-2c0-0.4-0.1-0.8-0.4-1c-0.3-0.2-0.8,0.2-1,0.5s-0.2,0.8-0.3,1.2c-0.2,0.4-0.5,0.8-0.9,1
			c-0.8,0.7-1.5,1.5-2.1,2.4c-0.4,0.6-0.6,1.3-0.7,2c-0.1,0.6,0.2,1.4,0,1.9c-0.4,1-9.9,6.5-13.4,8.7c-2.2,1.4-4.5,2.7-6.6,4.2
			c-0.6,0.5-1.4,0.9-2.2,1c-1.3,0-2.7-0.3-3.9-0.8c-0.5-0.2-0.9-0.4-1.3-0.7c-0.2-0.2-0.5-0.4-0.8-0.5c-0.8,0.1-1.5,0.6-1.8,1.4
			c-0.1,0.4,0,0.8,0.2,1.1c0.2,0.3,0.4,0.6,0.6,1c0.6,1.3,0,3,0.7,4.3c0.6,0.9,1.5,1.6,2.6,1.9c2.6,0.8,5.4,1,8.1,0.5
			c0.2,0,0.4-0.1,0.6-0.2c0.5-0.1,1-0.3,1.4-0.6c0.7-0.4,11.8-9.9,16-13.8c1.1-1,1.8-2.2,3.4-2.7c0.8-0.3,1.7-0.4,2.6-0.7
			c0.9-0.4,1.7-0.8,2.6-1.2c1.7-0.8,3.3-1.8,4.8-2.9c0.6-0.4,1.2-1,1.7-1.6c0.1-0.2,0.2-0.4,0.2-0.6c0-0.2-0.1-0.4-0.3-0.5
			c0.4-0.4,0.6-0.8,0.8-1.3C254.2,194,254.2,193.7,254.1,193.4z"/>
		<path fill="#0081ED" d="M195.9,358.5c0.2,1.1,1,1.9,2,2.3c0.6,0.1,1.2,0.1,1.8-0.1c1.5-0.5,2.8-1.5,3.7-2.8c0.7-1,1.4-2,1.9-3.1
			c0.5-0.9,1.4-1.6,2.4-1.9c1.3-0.6,2.4-1.3,3.5-2.2c1-0.9,1.8-2.1,2.3-3.4c0.3-0.6,0.3-1.3,0-1.9c-0.3-0.6-0.8-1-1.3-1.2
			c-0.8-0.3-1.6-0.4-2.4-0.3c-3.5,0.2-6.8,2-9.6,4.2c-1.2,0.8-2.2,2-2.8,3.3c-0.6,1.4-1.1,2.9-1.4,4.4
			C195.7,356.6,195.7,357.5,195.9,358.5z"/>
		<path fill="#333333" d="M214.2,263.9c-0.8-3-1.8-6-3.7-8.4s-4.8-4.3-7.8-4.2c-3.5,0.1-5.5,2.7-7.2,5.4c-2,3.1-3.5,6.6-4.3,10.2
			c-0.6,2.4-0.7,4.9-0.3,7.3c0.4,2,1.6,3.3,2.4,5.1c0.8,1.6,0.8,3.5,0.8,5.3c0,4.1-0.1,8.3-0.1,12.4c0,2.9-0.2,5.8-0.1,8.7
			c0,0.9-0.1,1.9-0.4,2.8c-0.3,1.4-0.7,2.8-1.1,4.2c-0.5,1.6-0.8,3.2-1.1,4.8c-0.5,4.2-0.2,8.5,0.9,12.6c0.9,4.1,2.2,8.2,3.1,12.3
			c0.7,3.4,1.2,6.8,1.5,10.3c0,0.2,0.1,0.4,0.2,0.6c0.2,0.1,0.4,0.2,0.6,0.2c1.3,0,2.7-0.4,3.7-1.2c1.7-1.1,3.2-2.5,4.3-4.3
			c0.3-0.3,0.4-0.7,0.5-1.1c0-0.4,0-0.7-0.1-1.1c-0.4-1.5-0.9-3-1.4-4.6c-1.5-5.6-1.4-11.4-0.5-17c0.4-2.8,0.9-5.6,1.8-8.4
			c0.6-1.7,1.2-3.3,1.8-5c0.8-2.8,1.5-5.7,2-8.6c1.3-5.7,2.6-11.4,4.1-17c0.7-2.4,1.3-4.9,1.7-7.5
			C216.1,273.2,215.4,268.4,214.2,263.9z"/>
		<path fill="#F2F2F2" d="M213.4,213.9c-0.1-1-0.5-1.9-1.1-2.7c-2.3-2.4-5.6-3.6-8.9-3.9c-0.1,0-0.2,0-0.2,0c-0.1,0-0.1,0.1-0.1,0.2
			c-0.2,0.4-0.4,0.8-0.7,1.2c-0.4,0.4-0.5,1-0.4,1.5c0.2,0.5,0.8,0.7,1.3,0.9c0.8,0.3,1.6,0.8,2.3,1.3c1.1,0.7,2.1,1.5,2.9,2.5
			c1.1,1.4,1.8,3.1,2.1,4.9c0,0,2.1-1.2,2.2-1.3c0.1-0.1,0.3-0.1,0.4-0.2c0.1-0.1,0.2-0.3,0.3-0.5c0.2-0.8,0.3-1.5,0.1-2.3
			C213.5,215,213.5,214.4,213.4,213.9z"/>
		<path fill="#80C5FF" d="M229.7,351.2c0,0.5,0.2,1,0.4,1.5c0.4,0.6,1,1,1.6,1.3c0.8,0.3,1.7,0.5,2.5,0.4c2-0.2,3.7-1.4,5.7-1.5
			c2-0.1,3.9,0,5.8-0.1c1.9,0,3.9-0.4,5.7-1.2c1.6-0.7,3.8-1.9,4.4-3.7c0.4-1.1,0.1-2.4-0.9-3.2c-0.7-0.4-1.4-0.7-2.2-0.9
			c-5.3-1.4-10.9-2.4-16.2-1.1c-2.6,0.6-5.4,2-6.4,4.7C229.8,348.6,229.6,349.9,229.7,351.2z"/>
		<path fill="#424242" d="M240.9,341.5c-4.1-10.3-3.8-21.5-4.1-32.4c0-2.2-0.1-4.3-0.3-6.5c-0.3-1.9-0.6-3.8-1-5.8
			c-0.7-3.8-1.6-7.6-2.9-11.3c-1.9-5.2-4.6-10.2-6-15.5c-0.9-3.6-1.4-7.4-3.7-10.3c-0.5,0.8-0.7,1.8-1.5,2.4c-0.8,0.6-1.8,1-2.8,1.2
			c-1.7,0.3-3.5,0.1-5.2-0.5c-2.6-0.9-5-2.4-6.9-4.5c-0.8-1-1.8-2-2.8-2.9c-1-0.9-2.4-1.2-3.8-0.8c-0.9,0.4-1.6,1.3-1.6,2.3
			c-0.1,0.9-0.3,1.8-0.9,2.6c-1.3,2.3-2.2,4.7-2.7,7.2c-0.6,3.1-0.1,6.4,1.4,9.2c1.8,3.3,5.1,5.4,8.1,7.6c1.1,0.7,2,1.6,2.9,2.6
			c0.8,1.1,1.6,2.3,2.2,3.5l5.2,7.9c0.7,1,1.4,2.1,2.1,3c0.8,1,1.6,1.8,2.4,2.7c1.8,1.9,3,4.3,3.6,6.8c0.5,2.6,0,5.2,0.2,7.8
			c0.1,1.7,0.3,3.3,0.6,5c0.2,1.2,0.4,2.4,0.8,3.6c0.4,1.2,1,2.4,1.5,3.6c2.3,5.1,3.9,10.5,4.7,16c0,0.3,0.1,0.5,0.2,0.7
			c0.3,0.3,0.8,0.5,1.3,0.5c3,0,5.8-1,8.1-2.9c0.4-0.3,0.8-0.8,0.9-1.3C241.2,342.5,241.1,342,240.9,341.5z"/>
		<path fill="#D9D9D9" d="M191.6,214.2c-0.2,1.8-0.1,3.7,0.2,5.5c1.6,11.8,2.3,23.6,2.3,35.5c0,2.3-1.1,4.9,0.1,6.9
			c1.2,2,3,3.6,5,4.6c2.7,1.3,5.7,2.1,8.7,2.3c3.8,0.5,7.7,0.5,11.5,0c1.7-0.1,3.3-0.7,4.8-1.5c2.4-1.7,1.6-4.8,1.5-7.4
			c-0.1-3.2-0.2-6.4-0.3-9.6c-0.2-6.4-0.5-12.8-0.8-19.1c0.1-1.4-0.4-2.8-1.5-3.9l-5.6-6.9c-3.5-4.3-7-8.6-9.2-13.6
			c-0.2-0.6-0.5-1.1-0.9-1.6c-0.4-0.4-1-0.7-1.6-0.9c-2.9-1.1-6.8-1.5-9,0.9C194.6,207.9,192.1,210.7,191.6,214.2z"/>
		<path fill="#FFE5CC" d="M216.1,186.8c0,0.8,0.2,1.6,0.6,2.3c0.3,0.3,0.7,0.6,1,0.9c0.4,0.3,0.6,0.8,0.5,1.2
			c-0.1,0.3-0.3,0.6-0.6,0.8c-1.6,1.6-1.8,4-1.9,6.3c0,0.5,0,1-0.2,1.5c-0.4,1.4-1.6,2.3-2.9,2.9c-0.9,0.5-3.1,0.9-3.3,2
			c-0.1,1.4,0,2.8,0.3,4.1c0.2,1.4,0.2,2.9,0.2,4.3c-1.2-1.2-2.8-2.1-4.5-2.6c-1.2-0.3-2.5-0.4-3.7-0.7c-1.7-0.3-3.4-0.8-5-1.5
			c-0.5-0.2-1-0.5-1-1.1c0-0.3,0.2-0.5,0.3-0.7c1-1.1,1.5-2.4,1.6-3.8c-0.1-2.3-2.2-4-3.5-5.9c-1.4-2.1-1.9-4.7-2.1-7.2
			c-0.3-2.5,0.1-5,1.1-7.3c1.7-3.1,4.7-5.3,8.2-5.9c2.7-0.5,5.4-0.1,7.8,1.2c1.2,0.6,2.4,1.3,3.5,2.1c0.8,0.7,1.5,1.6,1.9,2.7
			C215.3,183.7,215.8,185.2,216.1,186.8z"/>
		<path fill="#733118" d="M213.1,182.3c-0.3,1.5-0.9,2.8-1.2,4.3c-0.2,1.2-0.2,2.4-0.1,3.6c0,0.2,0,0.4-0.1,0.6
			c-0.1,0.1-0.2,0.2-0.4,0.3c-0.8,0.5-1.7,0.8-2.6,0.9c-1.3,0.2-2.8,0.2-3.6,1.1c-0.5,0.6-0.7,1.5-0.5,2.3c0.2,0.8,0.7,1.5,1.3,2
			c1.5,1.3,3.2,2.5,3.4,4.7c0,0.2,0,0.4-0.1,0.5c-0.1,0.1-0.2,0.2-0.4,0.3c-3,1.7-6.4,2.5-9.8,2.6c-3.4,0-6.8-1.3-9.3-3.5
			c-1-0.8-1.7-1.9-1.9-3.2c-0.2-1.3,0.3-2.8,0.5-4.1c0.6-2.9,1.4-5.7,2.2-8.6c0.5-2,1.4-4,2.7-5.6c1.2-1.3,2.6-2.3,4.2-3
			c4-1.8,8.8-2.2,12.8-0.3C212.3,178.2,213.5,180,213.1,182.3z"/>
		<path fill="#424242" d="M239.2,178.7l3.3,91.9c0.2,4.9,4.4,8.8,9.3,8.6c0.1,0,0.1,0,0.2,0l0,0c4.9-0.3,8.7-4.5,8.4-9.5
			c0-0.2,0-0.4-0.1-0.6l-11.3-87.5L239.2,178.7z"/>
		<g>
			<path fill="#424242" d="M238.2,114.2c-7.8-4.5-15-4.9-20.1-2l-5.3,3.1c5.1-3,12.2-2.6,20.1,2c15.6,9,28.2,30.8,28.2,48.8
				c0,8.9-3.2,15.2-8.2,18.1l5.3-3.1c5.1-2.9,8.2-9.2,8.2-18.1C266.4,145.1,253.8,123.2,238.2,114.2z"/>
			<path fill="#333333" d="M232.9,117.3c-15.6-9-28.3-1.8-28.3,16.2c-0.1,17.9,12.5,39.8,28.1,48.7S261,184,261,166.1
				S248.5,126.3,232.9,117.3z M232.7,178.1c-13.6-7.9-24.7-26.9-24.6-42.6s11.1-22,24.8-14.1c13.6,7.9,24.7,27,24.6,42.7
				C257.5,179.8,246.4,186,232.7,178.1z"/>
			<image width="50" height="64" xlink:href="C40B5650.png"  transform="matrix(1 0 0 1 208 118)">
			</image>
			<path fill="#424242" d="M235.4,175.6c-13.6-7.9-24.7-27-24.6-42.6c0-5.4,1.4-9.7,3.7-12.6c-3.9,2.8-6.4,8-6.4,15.3
				c0,15.7,11,34.8,24.6,42.6c8.9,5.2,16.8,4.2,21.1-1.5C249.3,179.9,242.8,179.8,235.4,175.6z"/>
			<image width="37" height="47" xlink:href="C40B5651.png"  transform="matrix(1 0 0 1 212 127)">
			</image>
		</g>
		<path fill="#FFE5CC" d="M255.2,249.8c-2.2-0.7-4.7-0.3-7-0.5c-0.5,0-1.1-0.2-1.3-0.7c-0.1-0.4,0-0.7,0.1-1.1
			c0.3-0.8,0.4-1.6,0.3-2.4c-0.1-0.4-0.2-0.7-0.5-0.9c-0.3-0.2-0.7-0.1-1,0.2c-0.1,0.2-0.1,0.3-0.1,0.5c0,0.6-0.3,1.1-0.6,1.5
			c-0.3,0.3-0.6,0.5-0.9,0.8c-0.3,0.3-0.5,0.7-0.7,1.2c-0.4,0.8-0.6,1.6-0.9,2.4c-0.2,0.6-1,0.6-1.6,0.7c-5.1-0.3-10.2-0.8-15.2-1.7
			c-2-0.4-4.5-0.5-6-1.9c-1.2-1.1-1.6-2.9-2.1-4.4c-2-4.8-2.8-10.1-4.7-15c-0.2-0.5-0.5-1-0.9-1.4c-0.5-0.3-1.2-0.5-1.8-0.5
			c-1.4-0.2-2.8-0.2-4.2,0c-1.4,0.2-2.7,0.9-3.7,1.9c-1.1,1.2-1.6,2.9-1.3,4.5c0.4,1.9,1,3.8,1.8,5.6c0.6,1.5,1.3,3.1,1.9,4.6
			c1.3,3.1,2.6,6.2,4,9.3c1,2.3,2.3,4.7,4.6,5.6c0.1,0.1,0.3,0.2,0.5,0.2c1.8,0.5,3.7,0.9,5.6,1.2c6.2,0.8,12.6,0.2,18.7-0.9
			c1.3-0.2,2.5-0.5,3.8-0.8c0.3,0,0.7,0,1,0c0.6,0.1,1.2,0.2,1.7,0.4c1.2,0.4,2.4,0.5,3.7,0.6c0.6,0,1.2-0.1,1.9-0.1
			c0.5,0,0.9-0.3,1.1-0.7c0.1-0.4,0-0.8-0.4-1c0.6-0.1,1.1-0.2,1.7-0.4c0.4-0.1,0.7-0.3,1-0.6c0.1-0.2,0.1-0.4,0.1-0.5
			c0,0-0.1-0.6-0.2-0.6c0.4-0.3,0.7-0.6,1-1.1c0.3-0.4,0.3-1,0-1.4c0.6-0.4,1-0.8,1.3-1.4c0.1-0.2,0.1-0.3,0.1-0.5
			C255.9,250.1,255.5,249.9,255.2,249.8z"/>
		<path fill="#F2F2F2" d="M198.9,225c0.1,1.7,0.3,3.5,0.8,5.1c0.5,2.2,1,4.3,1.6,6.4c0,0.1,0.1,0.3,0.2,0.4c0.1,0.1,0.3,0.2,0.5,0.2
			c4,0.8,8.1,0,11.5-2.2c0.8-0.5,2.3-1.7,2.2-2.7c-0.1-1.2-0.4-2.4-0.8-3.5c-0.8-2.5-1.5-5.4-3.1-7.6c-0.9-1.2-2-2.3-3.3-3.2
			c-1.3-0.8-2.7-1.2-4.2-1.1c-1.7,0.1-3.1,1.5-4,2.9c-0.4,0.7-0.8,1.5-0.9,2.3C199,223,198.9,224,198.9,225z"/>
		<g>
			<path fill="#E6E6E6" d="M172.5,168.6l-5.3,3.1c-0.4,3.4-1,15.7,11.1,23.1l5.3-3.1C171.5,184.3,172.1,172,172.5,168.6z"/>
			<path fill="#E6E6E6" d="M181.9,133.4l-41.7-24.1c-1.5-0.9-2.8-0.9-3.8-0.4l-5.3,3.1c1-0.6,2.3-0.5,3.8,0.4l41.7,24.1
				c3.2,2,5.1,5.5,5.3,9.2l-0.1,28.4c0,1.7-0.6,2.9-1.6,3.4l5.3-3.1c1-0.6,1.6-1.7,1.6-3.4l0.1-28.3
				C187.1,138.9,185.1,135.4,181.9,133.4z"/>
			<path fill="#A6A6A6" d="M176.6,136.5c3.2,2,5.1,5.5,5.3,9.2l-0.1,28.4c0,3.4-2.4,4.8-5.4,3.1l-9.3-5.4c-0.4,3.4-1,15.7,11.1,23.1
				c-0.1,0-2.3-0.1-5.6-2.1c-5.4-3.1-13.6-10.7-20.1-29.5l-17.7-10.2c-3.2-2.1-5.1-5.5-5.3-9.3l0.1-28.3c0-3.4,2.4-4.8,5.4-3
				L176.6,136.5z"/>
			<path d="M152.7,148.4c0-0.9,0.1-1.8,0.4-2.6c0.2-0.5,0.5-0.9,1-1.3c0.5-0.3,1.1-0.6,1.7-0.8c0.7-0.2,1.4-0.7,1.9-1.2
				c0.5-0.6,0.8-1.4,0.7-2.3c0-1.3-0.4-2.6-1.1-3.7c-0.6-1.1-1.5-2-2.6-2.7c-0.8-0.6-1.8-0.7-2.7-0.4c-0.8,0.4-1.4,1.1-1.6,1.9
				l-2.6-2.9c0.2-0.7,0.7-1.4,1.2-1.9c0.7-0.6,1.5-0.9,2.4-0.9c1.3,0,2.5,0.4,3.5,1.1c2,1.2,3.6,2.8,4.8,4.7
				c1.2,1.9,1.9,4.2,1.9,6.4c0,0.9-0.1,1.9-0.4,2.7c-0.2,0.6-0.6,1.1-1.1,1.5c-0.5,0.4-1.1,0.7-1.7,0.9c-0.7,0.3-1.1,0.5-1.4,0.7
				c-0.4,0.3-0.7,0.6-0.8,1.1c-0.2,0.7-0.4,1.5-0.3,2.2v1.6l-3.2-1.8V148.4z M152.8,157.3c-0.4-0.5-0.6-1.2-0.6-1.8
				c-0.1-0.5,0.2-0.9,0.6-1.1c0.5-0.2,1-0.1,1.4,0.2c0.6,0.3,1.1,0.8,1.4,1.4c0.3,0.5,0.5,1.2,0.6,1.8c0.1,0.5-0.1,0.9-0.5,1.2
				c-0.5,0.2-1,0.1-1.4-0.2C153.7,158.4,153.2,157.9,152.8,157.3L152.8,157.3z"/>
		</g>
		<path fill="#F2F2F2" d="M396.1,412.9c-10.2,5.9-26.8,5.9-37-0.1s-10.3-15.5-0.1-21.4c10.2-5.9,26.8-5.9,37,0.1
			C406.3,397.5,406.3,407,396.1,412.9z"/>
		<g>
			<path fill="#E6E6E6" d="M355.5,336c-0.2-0.1-0.5-0.2-0.7-0.2c-1.8-0.1-4,2-4.9,4.6l-8.1,23.4c-0.5,1.4-0.2,2.5,0.5,2.9l1.8,1.1
				c-0.7-0.4-0.9-1.6-0.5-2.9l8.1-23.4c0.9-2.6,3.1-4.7,4.9-4.6c0.3,0,0.5,0.1,0.7,0.2L355.5,336z"/>
			<path fill="#A6A6A6" d="M356.6,336.9c1.8,0.1,2.3,2.5,1.2,5.1l-9.9,23.2c-0.7,1.6-2.1,2.8-3.2,2.7c-1.1-0.1-1.6-1.4-1-3.1
				l8.1-23.4C352.6,338.8,354.8,336.7,356.6,336.9z"/>
		</g>
		<path fill="#E6E6E6" d="M403.7,346.2l-26.2,4.8l-26.2-4.8c0,0,2.5,49.4,20.6,56.1l0.1-0.1c3.6,1.2,7.5,1.2,11.1,0l0,0l0.2-0.1
			c0.6-0.2,1.2-0.5,1.8-0.8c0.4-0.2,0.7-0.4,1-0.7C401.6,389.9,403.7,346.2,403.7,346.2z"/>
		<path fill="#A6A6A6" d="M396.1,356.3c-10.2,5.9-26.8,5.9-37-0.1s-10.3-15.5-0.1-21.4c10.2-5.9,26.8-5.9,37,0.1
			C406.3,340.8,406.3,350.4,396.1,356.3z"/>
		<g>
			<path fill="#F2F2F2" d="M359.6,340c-8.7-5.3-8.4-13.6,0.7-18.7c9.1-5.1,23.6-4.9,32.3,0.3c8.7,5.3,8.4,13.6-0.7,18.7
				C382.9,345.4,368.4,345.2,359.6,340z"/>
		</g>
		<path fill="#E6E6E6" d="M403.2,322.1c-0.5-2.2-1.4-4.2-2.5-6.2c-1.8-3.1-4.3-5.7-7.2-7.8c-0.4-0.3-1-0.7-1.4-0.9
			c-0.4-0.3-1.2-0.7-1.7-1c-2.7-1.3-5.5-2.2-8.5-2.7c-0.4-0.1-0.9-0.1-1.3-0.2c-1.7-0.1-1.7-0.1-2.6-0.1c-2.3,0-4.5,0.2-6.7,0.7
			c-0.5,0.1-1,0.2-1.5,0.4c-0.8,0.3-2,0.6-2.8,0.9c-0.5,0.2-1.2,0.5-1.7,0.7s-1,0.5-1.4,0.7c-0.6,0.3-1.3,0.8-1.9,1.2
			c-0.4,0.3-1,0.7-1.4,1c-0.6,0.5-1.4,1.2-2,1.7c-0.8,0.7-1.5,1.5-2.1,2.3c-0.7,0.9-1.4,1.9-2,2.9c-0.3,0.6-0.7,1.1-0.9,1.7
			c-0.4,1-1,2.3-1.3,3.4c-0.3,1-0.6,2.1-0.7,3.2c-0.2,1.2-0.3,2.5-0.3,3.7c0,0.7,0.1,1.4,0.2,2.1c0.2,0.8,0.4,1.5,0.7,2.3
			c0.2,0.5,0.4,1,0.7,1.5c0.1,0.3,0.4,0.6,0.5,0.9c0.4,0.6,0.8,1.2,1.3,1.7c0.7,0.8,1.5,1.5,2.3,2.2c0.7,0.5,1.6,1.2,2.4,1.6l0,0
			c1.1,0.6,2.2,1.2,3.4,1.7c1,0.4,2.3,0.9,3.3,1.2c0.5,0.2,1.3,0.4,1.8,0.5c3.1,0.7,6.2,1.1,9.3,1.2c1.1,0,2.7-0.1,3.8-0.1
			c0.6,0,1.3-0.1,1.9-0.2c0.2,0,2.1-0.3,3.7-0.6c0.6-0.1,1.4-0.3,1.9-0.5c1-0.3,2.4-0.8,3.4-1.1c0.6-0.2,1.3-0.5,1.8-0.8
			c0.5-0.3,1-0.5,1.5-0.8c0.4-0.2,1.2-0.7,1.7-1.1c0.4-0.2,0.8-0.6,1.2-0.8c0.5-0.4,1.1-0.9,1.5-1.3c0.5-0.5,1-1,1.5-1.6
			c0.4-0.6,0.9-1.2,1.2-1.8c0.2-0.3,0.4-0.6,0.5-1c0.2-0.5,0.5-1.2,0.7-1.8c0.2-0.8,0.4-1.6,0.5-2.5
			C404,326.5,403.8,324.3,403.2,322.1z"/>
		<path fill="#1D1D1C" d="M368.2,341.3l-13.4-7.7c-0.9-0.6-1.4-1.6-1.4-2.7l0,0c0-4.7,2.9-6.9,6.4-4.8l3.4,2c3.5,2,6.4,7.5,6.4,12.2
			l0,0C369.6,341.3,368.9,341.8,368.2,341.3z"/>
		<path fill="#1381F2" d="M359.6,332.2c0,1.4-1,2-2.3,1.3c-1.3-0.9-2.2-2.3-2.3-3.9c0-1.4,1-2,2.3-1.3
			C358.7,329.2,359.5,330.7,359.6,332.2z"/>
		<path fill="#0F6ADC" d="M358.7,331.7c0,0.9-0.6,1.2-1.4,0.8c-0.8-0.5-1.3-1.4-1.4-2.4c0-0.9,0.6-1.2,1.4-0.8
			C358.2,329.9,358.7,330.8,358.7,331.7z"/>
		<path fill="#1381F2" d="M366.4,336.1c0,1.4-1,2-2.3,1.3c-1.3-0.9-2.2-2.3-2.3-3.9c0-1.4,1-2,2.3-1.3
			C365.5,333.1,366.3,334.5,366.4,336.1z"/>
		<path fill="#0F6ADC" d="M365.5,335.6c0,0.9-0.6,1.2-1.4,0.8c-0.8-0.5-1.3-1.4-1.4-2.4c0-0.9,0.6-1.2,1.4-0.8
			C364.9,333.7,365.5,334.6,365.5,335.6z"/>
		<path fill="#E6E6E6" d="M392.5,367.4c0,2.7,1.9,3.8,4.3,2.4c2.5-1.6,4.1-4.4,4.3-7.4c0-2.7-1.9-3.8-4.3-2.4
			C394.3,361.6,392.7,364.4,392.5,367.4z"/>
		<path fill="#CACACA" d="M393.4,366c0,1.3,1,1.9,2.1,1.2c1.3-0.8,2-2.2,2.1-3.7c0-1.3-1-1.9-2.1-1.2
			C394.3,363.1,393.5,364.5,393.4,366z"/>
		<g>
			<path fill="#A6A6A6" d="M397,362.9c-0.4-0.2-0.8-0.1-1.2,0.1c-1,0.6-1.6,1.7-1.7,2.9c0,0.4,0.1,0.8,0.5,1.1l4.7,2.7
				c-0.3-0.2-0.5-0.6-0.5-1.1c0.1-1.2,0.7-2.2,1.7-2.9c0.3-0.2,0.8-0.3,1.2-0.1L397,362.9z"/>
			<path fill="#A6A6A6" d="M400.5,365.7c0.9-0.5,1.7-0.1,1.7,1c0,1.2-0.6,2.2-1.6,2.9c-0.9,0.5-1.7,0.1-1.7-0.9
				C398.9,367.4,399.5,366.4,400.5,365.7z"/>
		</g>
		<g>
			<path fill="#F2F2F2" d="M401.8,362.8c-0.2-0.1-0.5-0.2-0.7-0.2c-1.8-0.1-4,2-4.9,4.6l-8.1,23.4c-0.5,1.4-0.2,2.5,0.5,2.9l1.8,1
				c-0.7-0.4-0.9-1.6-0.5-2.9l8.1-23.4c0.9-2.6,3.1-4.7,4.9-4.6c0.3,0,0.5,0.1,0.7,0.2L401.8,362.8z"/>
			<path fill="#A6A6A6" d="M402.9,363.6c1.8,0.1,2.3,2.5,1.2,5.1l-9.9,23.2c-0.7,1.6-2.1,2.8-3.2,2.7c-1.1-0.1-1.6-1.4-1-3.1
				l8.1-23.4C398.9,365.6,401.1,363.5,402.9,363.6z"/>
		</g>
		<g>
			<path fill="#80C5FF" d="M273.9,284.3c-2.1-1.2-4.1-1.4-5.5-0.5l-1.2,0.7c1.4-0.8,3.4-0.7,5.5,0.5c4.3,2.5,7.8,8.5,7.7,13.4
				c0,2.4-0.9,4.2-2.3,5l1.2-0.7c1.4-0.8,2.3-2.5,2.3-5C281.6,292.8,278.2,286.8,273.9,284.3z"/>
			<path fill="#0081ED" d="M272.6,285c4.3,2.5,7.8,8.5,7.7,13.4c0,4.9-3.5,6.9-7.8,4.4c-4.3-2.5-7.7-8.5-7.7-13.4
				C264.9,284.5,268.4,282.6,272.6,285z"/>
			<path fill="#F2F2F2" d="M277.2,293.5l-9.3-5.4c-0.4-0.2-0.6,0-0.6,0.4v2.5c0,0.5,0.3,0.9,0.6,1.1l9.4,5.4c0.4,0.2,0.6,0,0.6-0.4
				v-2.5C277.8,294.2,277.5,293.8,277.2,293.5z M270.5,292.9c-0.6-0.4-1-1.1-1.1-1.8c0-0.7,0.5-1,1.1-0.6c0.6,0.4,1,1.1,1.1,1.8
				C271.6,292.9,271.1,293.2,270.5,292.9L270.5,292.9z M274.4,295.1c-0.6-0.4-1-1.1-1.1-1.8c0-0.7,0.5-1,1.1-0.6
				c0.6,0.4,1,1.1,1.1,1.8C275.5,295.2,275,295.5,274.4,295.1z"/>
			<path fill="#F2F2F2" d="M274.9,297.8L270,295c-1.6-0.9-2.9-0.2-2.9,1.6v0.5c1.3,2.3,3.2,4.3,5.5,5.7c2,1.2,3.8,1.4,5.2,0.7v-0.7
				C277.7,300.8,276.6,298.9,274.9,297.8z"/>
		</g>
		<g>
			<path fill="#80C5FF" d="M330.4,344.3c-2.1-1.2-4.1-1.4-5.5-0.5l-1.2,0.7c1.4-0.8,3.4-0.7,5.5,0.5c4.3,2.5,7.8,8.5,7.7,13.4
				c0,2.4-0.9,4.2-2.3,5l1.2-0.7c1.4-0.8,2.3-2.5,2.3-5C338.2,352.7,334.7,346.7,330.4,344.3z"/>
			<path fill="#0081ED" d="M329.2,345c4.3,2.5,7.8,8.5,7.7,13.4c0,4.9-3.5,6.9-7.8,4.4c-4.3-2.5-7.7-8.5-7.7-13.4
				C321.4,344.5,324.9,342.5,329.2,345z"/>
			<path fill="#1F2125" d="M334,363.6c-1.3,0.5-3,0.2-4.8-0.8c-1.8-1.1-3.4-2.6-4.6-4.4c0.3-1.3,1.4-1.7,2.8-0.9l4,2.3
				C332.7,360.7,333.6,362.1,334,363.6z"/>
			<path fill="#FFE5CC" d="M330.3,360.6L330.3,360.6c-0.5,0.4-1.5-0.1-2-1.1v-0.1c-0.2-0.4-0.4-0.9-0.4-1.4v-2.6l2.9,1.6v2.6
				C330.8,360.1,330.6,360.4,330.3,360.6z"/>
			<path fill="#5F3915" d="M327.7,347.7c-0.1-0.1-0.2-0.2-0.3-0.3c-0.2-0.1-0.4-0.2-0.6-0.2c-0.5,0-0.9,0.3-1.2,0.7
				c-0.3,0.4-0.5,0.9-0.6,1.4c0,0.1,0,0.2-0.1,0.2c-0.2,0.9-0.2,1.8-0.1,2.7c0.1,1,0.2,2,0.5,2.9c0.1,0.3,0.2,0.6,0.4,0.9
				c0.3,0.5,0.7,0.8,1,0.7c0.3,0,0.5-0.5,0.6-0.9c0.1-0.5,0.2-1.1,0.2-1.6c0-0.6-0.1-1.3-0.2-1.9c-0.1-0.4-0.2-0.7-0.2-1.1
				c0-0.1,0-0.3,0-0.4c0-0.1,0.2-0.2,0.2-0.2c0.3-0.4,0.5-0.9,0.6-1.4C327.9,348.8,327.9,348.2,327.7,347.7z"/>
			<path fill="#5F3915" d="M331.3,348.9c0.1,0.2,0.2,0.4,0.2,0.6l0.2,0.5c0.1,0.3,0.3,0.7,0.5,1s0.3,0.7,0.4,1.1
				c0.2,0.4,0.2,0.8,0.3,1.3c0,0.1,0,0.2-0.1,0.3c0,0.2-0.1,0.4-0.1,0.6c-0.1,0.6-0.4,1.1-0.9,1.5c-0.1,0.1-0.2,0.1-0.3,0.2
				c-0.1,0.1-0.1,0.3-0.1,0.5c0,0.6,0,1.3,0.1,1.9c0,0.5,0.2,1.1,0.6,1.5c0.3,0.4,0.7,0.6,1,0.4c0.2-0.1,0.3-0.3,0.4-0.4
				c0.4-1,0.6-2.1,0.6-3.1c0-0.9-0.1-1.7-0.2-2.6c-0.1-0.9-0.4-1.9-0.7-2.7C332.6,350.5,332,349.6,331.3,348.9z"/>
			<path fill="#FFE5CC" d="M331.8,355.4c-0.3,0.6-0.3,1.3,0.1,1.9c0.3,0.4,0.8,0.4,1.1,0.2c0.1-0.1,0.2-0.2,0.2-0.3
				c0.3-0.6,0.3-1.3-0.1-1.9c-0.3-0.4-0.8-0.4-1.1-0.2C332,355.2,331.9,355.3,331.8,355.4z"/>
			<path fill="#FFE5CC" d="M326.9,352.5c0.3,0.9,0.3,1.7-0.1,1.7c-0.4,0-1-0.7-1.4-1.7c-0.3-0.9-0.3-1.7,0.1-1.7
				C325.9,350.8,326.5,351.6,326.9,352.5z"/>
			<path fill="#FFE5CC" d="M332.2,351.6c-0.6-1.4-1.6-2.6-2.9-3.4l0,0c-1.2-0.7-2.3-0.6-2.9,0.1l0,0c-0.3,0.4-0.4,0.9-0.3,1.3
				l0.4,4.3c0.1,0.9,0.4,1.7,0.9,2.4l0.4,0.6c0.9,1.3,2.1,2,3,1.8l0.5-0.1c0.6-0.2,1-0.8,1-1.4l0.3-3.8
				C332.6,352.8,332.5,352.2,332.2,351.6L332.2,351.6z"/>
			<path fill="#5F3915" d="M327.5,347.8c-0.1,0.1,0.5,1.3,0.6,1.5c0.3,0.7,0.7,1.3,1.2,1.9c0.6,0.7,1.2,1.2,1.8,1.9
				c0.6,0.6,1,1.3,1.3,2c0.3,0,0.6,0.1,0.9,0.3c0-1.5-0.2-3-0.7-4.5c-0.5-1.2-1.4-2.3-2.5-3.1C329.1,347.1,328.1,347.1,327.5,347.8z
				"/>
			<path fill="#5F3915" d="M328.1,348.3c0,0.8-0.5,1.5-1.3,1.8c-0.3,0.1-0.6,0.4-0.5,0.8c0,0.1,0,0.3-0.2,0.4l-0.3-1.1l0.1-1.5
				l0.4-0.7l0.5-0.4h0.5l0.8,0.4L328.1,348.3z"/>
		</g>
		<g>
			<path fill="#80C5FF" d="M336,320.7l-46.8-27c-0.5-0.3-1-0.4-1.5-0.2l-1.2,0.7c0.5-0.2,1.1-0.2,1.5,0.2l46.8,27.1
				c1.3,0.8,2.1,2.2,2.2,3.8V336c0.1,0.5-0.2,1.1-0.6,1.4l1.2-0.7c0.4-0.3,0.7-0.8,0.6-1.4v-10.9C338.1,322.9,337.3,321.5,336,320.7
				z"/>
			<path fill="#0081ED" d="M334.8,321.4c1.3,0.8,2.1,2.2,2.2,3.8V336c0,1.4-1,1.9-2.2,1.2l-46.9-27.1c-1.3-0.8-2.1-2.2-2.2-3.7
				v-10.9c0-1.4,1-1.9,2.2-1.2L334.8,321.4z"/>
			<polygon fill="#FFFFFF" points="330.4,325.5 292.3,303.6 292.3,302.6 330.4,324.6 			"/>
			<polygon fill="#FFFFFF" points="316.2,320.7 292.3,306.9 292.3,306 316.2,319.8 			"/>
			<polygon fill="#FFFFFF" points="330.4,328.9 318,321.7 318,320.8 330.4,328 			"/>
		</g>
		<g>
			<path fill="#80C5FF" d="M315.1,335.8l-46.9-27.1c-0.4-0.3-1-0.4-1.5-0.1l-1.2,0.7c0.5-0.2,1.1-0.2,1.5,0.1l46.9,27.1
				c1.3,0.8,2.1,2.2,2.2,3.8v10.9c0.1,0.5-0.2,1.1-0.6,1.4l1.2-0.7c0.4-0.3,0.7-0.9,0.6-1.4v-10.9
				C317.2,338.1,316.4,336.7,315.1,335.8z"/>
			<path fill="#0081ED" d="M313.9,336.5c1.3,0.8,2.1,2.2,2.2,3.8v10.9c0,1.4-1,1.9-2.2,1.2l-46.9-27c-1.3-0.8-2.1-2.2-2.2-3.8v-10.9
				c0-1.4,1-1.9,2.2-1.3L313.9,336.5z"/>
			<polygon fill="#FFFFFF" points="308.4,344.5 270.3,322.5 270.3,321.6 308.4,343.6 			"/>
			<polygon fill="#FFFFFF" points="294.2,332.6 270.3,318.8 270.3,317.9 294.2,331.7 			"/>
			<polygon fill="#FFFFFF" points="308.4,340.8 296,333.7 296,332.8 308.4,339.9 			"/>
		</g>
		<polygon fill="#BFBFBF" points="365.7,114 368.5,112.4 421.6,143 418.7,144.7 		"/>
		<polygon fill="#595959" points="418.7,214.6 421.6,212.9 421.6,143 418.7,144.7 		"/>
		<polygon fill="#919191" points="418.7,214.6 365.7,183.9 365.7,114 418.7,144.7 		"/>
		<polygon fill="#FFFFFF" points="416.6,210.8 367.8,182.7 367.8,126.8 416.6,154.9 		"/>
		<path fill="#1F2125" d="M408.3,203.8v2.2l-32.2-18.6v-2.2c0-6,4.2-8.4,9.4-5.4l13.4,7.7C404.1,190.6,408.3,197.9,408.3,203.8z"/>
		<path fill="#FFE5CC" d="M395.7,190.4L395.7,190.4c-1.8,1.2-4.9-0.5-6.8-3.8l-0.1-0.2c-0.8-1.4-1.3-2.9-1.3-4.6v-8.5l9.5,5.5v8.7
			C397,188.6,396.6,189.7,395.7,190.4z"/>
		<path fill="#5F3915" d="M386.9,147.5c-0.3-0.4-0.6-0.7-0.9-0.9c-0.6-0.4-1.4-0.6-2.1-0.6c-1.6,0.1-3.1,0.9-4,2.2
			c-1,1.4-1.7,3.1-2.1,4.8c-0.1,0.3-0.1,0.5-0.2,0.8c-0.6,3-0.7,6.1-0.4,9.2c0.2,3.3,0.8,6.5,1.8,9.7c0.3,1,0.7,1.9,1.2,2.9
			c1,1.7,2.2,2.5,3.2,2.4c1.2-0.1,1.7-1.5,1.8-2.8c0.3-1.8,0.5-3.5,0.6-5.3c0-2.1-0.3-4.3-0.8-6.3c-0.4-1.2-0.6-2.5-0.8-3.7
			c-0.1-0.5,0-1,0.1-1.5c0.2-0.4,0.5-0.5,0.8-0.8c1.1-1.4,1.8-3,2-4.8C387.4,151.3,388.1,149.1,386.9,147.5z"/>
		<path fill="#5F3915" d="M398.9,151.5c0.3,0.6,0.6,1.2,0.8,1.9c0.2,0.6,0.5,1.2,0.7,1.8c0.5,1.1,1.2,2.2,1.6,3.3
			c0.5,1.2,0.9,2.4,1.3,3.6c0.5,1.4,0.8,2.8,0.9,4.3c-0.1,0.4-0.2,0.8-0.3,1.2c-0.2,0.7-0.3,1.4-0.4,2.1c-0.5,2.2-1.4,4.1-3,5
			c-0.4,0.2-0.8,0.4-1.1,0.7c-0.3,0.5-0.5,1-0.5,1.6c-0.1,2.1,0,4.2,0.3,6.2c0.1,1.8,0.8,3.5,1.8,5c1,1.3,2.2,1.8,3.2,1.3
			c0.5-0.4,1-0.9,1.2-1.4c1.5-2.6,1.9-6.5,1.8-10.4c0-2.9-0.3-5.7-0.7-8.6c-0.5-3.1-1.3-6.2-2.4-9.2
			C403.1,156.8,401.3,153.9,398.9,151.5z"/>
		<path fill="#585AA7" d="M400.7,172.9c-1.1,2-0.9,4.5,0.5,6.3c0.8,1.2,2.5,1.5,3.7,0.7c0.4-0.3,0.7-0.6,0.9-1
			c1.1-2,0.9-4.5-0.5-6.3c-0.8-1.2-2.5-1.5-3.7-0.7C401.2,172.2,400.9,172.5,400.7,172.9z"/>
		<path fill="#585AA7" d="M384.1,163.4c1.1,3.1,0.9,5.7-0.5,5.7c-1.4,0-3.4-2.5-4.6-5.6c-1.1-3.2-0.9-5.7,0.5-5.7
			C381,157.7,383,160.2,384.1,163.4z"/>
		<path fill="#FFE5CC" d="M401.8,160.5c-2.2-4.8-5.8-9.1-9.6-11.3l0,0c-3.9-2.2-7.5-2.1-9.7,0.2l0,0c-1,1.2-1.4,2.8-1.1,4.4
			l1.4,14.4c0.4,2.8,1.4,5.6,3,7.9l1.4,2c2.9,4.3,7,6.7,10,5.9l1.6-0.4c1.9-0.5,3.1-2.2,3.3-4.7l1.1-12.7c0.1-1.9-0.3-3.8-1.1-5.6
			L401.8,160.5z"/>
		<path fill="#5F3915" d="M386.4,147.6c-0.3,0.5,1.6,4.3,2,5c1.1,2.2,2.4,4.3,4,6.2c1.9,2.3,4,4.1,6,6.2c1.9,1.9,3.3,4.2,4.3,6.7
			c1.1,0,2.1,0.4,2.9,1.2c0.1-5.1-0.8-10.1-2.5-14.8c-1.7-4.1-4.6-7.7-8.2-10.2C391.4,145.3,388.1,145.3,386.4,147.6z"/>
		<path fill="#5F3915" d="M388.4,149.4c0,0,0,4.9-4.2,6c-1,0.3-1.7,1.2-1.7,2.7c0,0.5-0.2,1-0.5,1.3l-0.9-3.7l0.2-5l1.2-2.5l1.8-1.2
			l1.7-0.1l2.6,1.4L388.4,149.4z"/>
		<path fill="#585AA7" d="M393.9,149.5l-3.2-1.9c-5.9-3.4-10.7-0.7-10.7,6.1v6.2l1.9-0.3v-5.3c0-5.7,4-7.3,9-4.4l2.7,1.6
			c5,2.9,9,9.1,9,14.8v5.3l1.9,2.5v-6.3C404.6,161.2,399.8,152.9,393.9,149.5z"/>
		<path fill="#585AA7" d="M389.5,179.3l-1.9-1.1c-0.7-0.5-1.1-1.3-1.2-2.2l0,0c0-0.9,0.5-1.2,1.2-0.9l1.9,1.1
			c0.7,0.5,1.1,1.3,1.2,2.2l0,0C390.7,179.3,390.2,179.7,389.5,179.3z"/>
		<path fill="#585AA7" d="M388.7,177.5l-2.6-1.6c-2.2-1.5-3.8-3.8-4.4-6.4l-0.7-3l0.4,0.1l0.7,3.1c0.5,2.4,2,4.5,4,5.9l2.6,1.6
			L388.7,177.5z"/>
		<path fill="#FFFFFF" d="M406.1,143.5c0,0.8-0.5,1.1-1.2,0.7c-0.7-0.5-1.2-1.3-1.2-2.1c0-0.8,0.5-1.1,1.2-0.7
			C405.6,141.9,406,142.6,406.1,143.5z"/>
		<path fill="#FFFFFF" d="M409.6,145.5c0,0.8-0.5,1.1-1.2,0.7c-0.7-0.5-1.2-1.3-1.2-2.1c0-0.8,0.5-1.1,1.2-0.7
			C409.1,143.9,409.5,144.7,409.6,145.5z"/>
		<path fill="#FFFFFF" d="M413.1,147.6c0,0.8-0.5,1.1-1.2,0.7c-0.7-0.5-1.2-1.3-1.2-2.1c0-0.8,0.5-1.1,1.2-0.7
			C412.6,145.9,413,146.7,413.1,147.6z"/>
		<path fill="#FFFFFF" d="M416.6,149.6c0,0.8-0.5,1.1-1.2,0.7c-0.7-0.5-1.2-1.3-1.2-2.1c0-0.8,0.5-1.1,1.2-0.7
			C416.1,147.9,416.5,148.7,416.6,149.6z"/>
		<g>
			<path fill="#FFE100" d="M313.9,82.9c0.8-0.3,1.6-0.3,2.3,0.2l40.6,23.4c1.9,1.3,3.1,3.4,3.2,5.6l0,17.3c0.1,0.8-0.3,1.6-1,2.1
				l-3.2,1.9c0.7-0.5,1-1.3,1-2.1l0-17.3c-0.1-2.3-1.3-4.4-3.2-5.6L312.9,85c-0.7-0.5-1.6-0.6-2.3-0.2L313.9,82.9z"/>
			<path fill="#FFE100" d="M351.1,128c-0.8,5.6,1.9,11.2,6.8,14.1l-3.2,1.9c-4.9-2.9-7.5-8.5-6.8-14.1L351.1,128z"/>
			<path fill="#FFA600" d="M312.9,85c-1.8-1-3.3-0.2-3.3,1.9l0,17.3c0.1,2.3,1.3,4.4,3.2,5.6l26,15c4,11.5,9,16.1,12.3,18
				c1,0.7,2.2,1.1,3.5,1.3c-4.9-2.9-7.5-8.5-6.8-14.1l5.6,3.3c1.8,1,3.3,0.2,3.3-1.9l0-17.3c-0.1-2.3-1.3-4.4-3.2-5.6L312.9,85z"/>
			<path fill="#FFFFFF" d="M341.4,118c0.1,1.3,0.8,2.5,1.9,3.2c1,0.6,1.9,0.1,1.9-1.1c-0.1-1.3-0.8-2.5-1.9-3.2
				C342.2,116.4,341.4,116.9,341.4,118z"/>
			<path fill="#FFFFFF" d="M334.3,113.9c0.1,1.3,0.8,2.5,1.9,3.2c1,0.6,1.9,0.1,1.9-1.1c-0.1-1.3-0.8-2.5-1.9-3.2
				C335.2,112.3,334.3,112.8,334.3,113.9z"/>
			<path fill="#FFFFFF" d="M327.3,109.9c0.1,1.3,0.8,2.5,1.9,3.2c1,0.6,1.9,0.1,1.9-1.1c-0.1-1.3-0.8-2.5-1.9-3.2
				C328.1,108.2,327.3,108.7,327.3,109.9z"/>
			<path fill="#FFFFFF" d="M320.2,105.8c0.1,1.3,0.8,2.5,1.9,3.2c1,0.6,1.9,0.1,1.9-1.1c-0.1-1.3-0.8-2.5-1.9-3.2
				C321,104.1,320.2,104.6,320.2,105.8z"/>
		</g>
		<path fill="#F2F2F2" d="M115,354.6l11.5-6.7c0.8-0.5,0.7-1.3-0.2-1.8l-21.4-12.3c-0.9-0.5-2.1-0.6-3.1-0.1l-11.6,6.7
			c-0.8,0.5-0.7,1.3,0.2,1.8l21.4,12.3C112.8,355,114,355.1,115,354.6z"/>
		<path fill="#F2F2F2" d="M154.4,331.2l11.5-6.6c0.8-0.5,0.7-1.3-0.2-1.8l-21.4-12.4c-1-0.5-2.1-0.6-3.1-0.1l-11.5,6.7
			c-0.8,0.5-0.7,1.3,0.2,1.8l21.4,12.4C152.3,331.7,153.5,331.7,154.4,331.2z"/>
		<g>
			<path fill="#FF8080" d="M159.4,305.1c-1.3-0.6-2.9-0.4-4.8,0.7c-1.8,1.1-3.4,2.6-4.6,4.3c-0.1,0.2-0.3,0.4-0.4,0.6
				c-1.3,1.9-2,4.1-2,6.3c0,2,0.6,3.3,1.7,3.9l-20.5-11.9c-1.1-0.7-1.7-2-1.7-3.9c0.1-2.3,0.8-4.4,2-6.3c0.1-0.2,0.2-0.4,0.4-0.5
				c1.2-1.8,2.7-3.3,4.6-4.4c1.9-1.1,3.5-1.4,4.8-0.7L159.4,305.1z"/>
			<path fill="#FF3333" d="M149.6,310.7c-1.3,1.9-2,4.1-2,6.3c0,2,0.6,3.3,1.7,3.9l-20.5-11.9c-1.1-0.7-1.7-2-1.7-3.9
				c0.1-2.3,0.8-4.4,2-6.3c0.1-0.2,0.2-0.4,0.4-0.5l20.5,11.9C149.8,310.4,149.7,310.5,149.6,310.7z"/>
			<path fill="#D60000" d="M159.4,305.1c1.3,0.6,1.9,2,1.9,4c0,2.2-0.7,4.4-1.9,6.3c-1.2,2-2.9,3.7-4.9,4.8c-2,1.2-3.7,1.5-5,0.9
				c-1.3-0.6-2-1.9-2-4.1c0.1-2.3,0.8-4.5,2-6.3c1.2-2,2.9-3.7,4.9-4.9C156.5,304.7,158.1,304.5,159.4,305.1z"/>
		</g>
		<g>
			<polygon fill="#FF3333" points="148.9,297.3 128.4,285.3 128.4,276.9 148.9,288.8 			"/>
			<path d="M153.5,204l20.5,11.9c-0.3-0.2-0.6-0.3-0.9-0.4l-20.5-11.9C152.9,203.7,153.2,203.8,153.5,204z"/>
			<path fill="#FF3333" d="M144,217.9l20.5,11.9c2.4,1.4,3.6,4.1,3.6,8.2c0,3.6-0.7,7.2-2.2,10.5c-1.9,4.1-4.1,8.1-6.6,11.9
				c-2.6,4-4.5,7.1-5.8,9.3c-1.4,2.6-2.5,5.4-3.3,8.2c-1,3.5-1.4,7.2-1.4,10.9l-20.5-11.9c-0.1-3.7,0.4-7.3,1.4-10.9
				c0.8-2.9,1.9-5.6,3.3-8.2c1.3-2.3,3.2-5.4,5.8-9.3c2.5-3.8,4.7-7.7,6.6-11.9c1.5-3.3,2.2-6.9,2.2-10.5
				C147.6,222,146.4,219.3,144,217.9z"/>
			<path fill="#FF8080" d="M131.4,253.5l-20.5-11.9c1.1-4.1,2.5-8.1,4.4-11.9c2.3-4.6,5.1-9,8.4-13c3.4-4.2,7.5-7.7,12.2-10.4
				c6.8-3.8,12.3-4.7,16.7-2.8l20.5,11.9c-4.4-2-9.9-1-16.7,2.8c-4.7,2.7-8.8,6.2-12.2,10.4c-3.3,4-6.1,8.3-8.4,12.9
				C133.9,245.4,132.5,249.4,131.4,253.5z"/>
			<path fill="#D60000" d="M173.1,215.5c4.4,2,6.6,6.9,6.6,14.8c0,3.8-0.4,7.6-1.4,11.2c-0.9,3.3-2.1,6.5-3.7,9.5
				c-1.5,2.9-3.5,6.3-6,10.2c-2.2,3.6-3.9,6.4-5,8.3c-1.2,2.2-2.1,4.5-2.7,6.9c-0.8,2.9-1.1,5.9-1.1,8.9v5.6l-10.8,6.2v-8.4
				c-0.1-3.7,0.4-7.3,1.4-10.9c0.8-2.9,1.9-5.6,3.3-8.2c1.3-2.3,3.2-5.4,5.8-9.3c2.5-3.8,4.7-7.7,6.6-11.9c1.5-3.3,2.2-6.9,2.2-10.5
				c0-4.3-1.3-7.1-3.9-8.4c-2.6-1.3-5.6-1-9,1c-3.8,2.3-7,5.4-9.3,9.2c-2.6,4.1-4.5,8.6-5.6,13.3l-9,0.4c1.1-4.1,2.5-8.1,4.4-11.9
				c2.3-4.6,5.1-9,8.4-12.9c3.4-4.2,7.5-7.7,12.2-10.4C163.1,214.4,168.7,213.5,173.1,215.5z"/>
		</g>
		<g>
			<path fill="#80C5FF" d="M123.2,326.9l-17.5-10.2l-0.3-0.2c-1.5-0.6-3.2-0.3-5.3,0.8c-2.1,1.3-3.9,3-5.1,5.2l17.5,10.2
				c1.2-2.1,3-3.9,5.1-5.2c2.1-1.2,3.8-1.5,5.3-0.8C123,326.8,123.1,326.8,123.2,326.9z"/>
			<path fill="#0081ED" d="M94.7,333.5l17.5,10.2c-1.2-0.7-1.8-2.1-1.8-4.3c0.1-2.4,0.8-4.7,2-6.6l-17.5-10.2c-1.3,2-2,4.3-2,6.6
				C92.9,331.4,93.5,332.8,94.7,333.5z"/>
			<path fill="#00559C" d="M112.5,332.7c-1.3,2-2,4.3-2,6.6c0,2.3,0.7,3.8,2,4.4c1.3,0.7,3.1,0.4,5.2-0.9c2.2-1.3,4-3,5.3-5.2
				c1.3-2,2.1-4.4,2.1-6.8c0-2.2-0.7-3.6-2.2-4.2c-1.4-0.7-3.2-0.3-5.3,0.8C115.5,328.8,113.7,330.6,112.5,332.7z"/>
		</g>
		<g>
			<polygon fill="#0081ED" points="112.5,238.2 95,228 95.2,309.5 112.7,319.7 			"/>
			<polygon fill="#80C5FF" points="122.9,232.2 105.4,222 95,228 112.5,238.2 			"/>
			<polygon fill="#00559C" points="112.5,238.2 112.7,319.7 123.1,313.7 122.9,232.2 			"/>
		</g>
		<g>
			<path fill="#F2F2F2" d="M159.3,364.2c0.5,0.3,0.5,0.7,0,1l-14.4,8.4c-0.6,0.3-1.2,0.3-1.8,0l-14.5-8.4c-0.3-0.1-0.4-0.4-0.3-0.7
				c0.1-0.2,0.2-0.3,0.3-0.3l14.4-8.4c0.6-0.3,1.2-0.3,1.8,0L159.3,364.2z"/>
			<path fill="#D60000" d="M157.2,360.9l-12.4,7.2c-0.5,0.2-1.1,0.2-1.5,0l-12.5-7.2c-0.2-0.1-0.3-0.2-0.3-0.4v3.5
				c0,0.2,0.1,0.4,0.3,0.4l12.5,7.2c0.5,0.2,1.1,0.2,1.5,0l12.4-7.2c0.2-0.1,0.3-0.2,0.3-0.4v-3.5
				C157.5,360.6,157.4,360.8,157.2,360.9z"/>
			<path fill="#FF3333" d="M157.2,360c0.4,0.2,0.4,0.6,0,0.9l-12.4,7.2c-0.5,0.2-1.1,0.2-1.5,0l-12.5-7.2c-0.2-0.1-0.4-0.3-0.3-0.6
				c0-0.1,0.2-0.2,0.3-0.3l12.4-7.2c0.5-0.2,1.1-0.2,1.5,0L157.2,360z"/>
			<polygon fill="#FFFFFF" points="141.6,362 137.2,361.2 141,359.6 140.9,356.9 144.7,358.5 149.1,357.7 147.6,360.2 150.5,362.4 
				145.8,362.4 143.1,364.6 			"/>
		</g>
		<g>
			<path fill="#F2F2F2" d="M176.1,374c0.3,0.1,0.4,0.4,0.3,0.7c-0.1,0.2-0.2,0.3-0.3,0.3l-14.4,8.3c-0.6,0.3-1.2,0.3-1.8,0
				l-14.5-8.3c-0.3-0.1-0.4-0.4-0.4-0.7c0.1-0.2,0.2-0.3,0.4-0.4l14.4-8.3c0.6-0.3,1.2-0.3,1.8,0L176.1,374z"/>
			<path fill="#FF8800" d="M174,370.7l-12.4,7.2c-0.5,0.2-1.1,0.2-1.5,0l-12.5-7.2c-0.2-0.1-0.3-0.3-0.3-0.5v3.5
				c0,0.2,0.1,0.4,0.3,0.4l12.5,7.2c0.5,0.2,1.1,0.2,1.5,0l12.4-7.2c0.2-0.1,0.3-0.2,0.3-0.4v-3.5
				C174.3,370.5,174.2,370.6,174,370.7z"/>
			<path fill="#FFA600" d="M174,369.8c0.4,0.2,0.4,0.6,0,0.9l-12.4,7.2c-0.5,0.2-1.1,0.2-1.5,0l-12.5-7.2c-0.2-0.1-0.4-0.4-0.3-0.6
				c0-0.1,0.2-0.2,0.3-0.3l12.4-7.2c0.5-0.2,1-0.2,1.5,0L174,369.8z"/>
			<polygon fill="#FFFFFF" points="158.5,371.8 154,371 157.8,369.4 157.7,366.7 161.5,368.3 165.9,367.5 164.4,370 167.3,372.2 
				162.6,372.2 159.9,374.4 			"/>
		</g>
		<g>
			<path fill="#F2F2F2" d="M193.1,383.8c0.3,0.1,0.4,0.4,0.3,0.7c-0.1,0.2-0.2,0.3-0.3,0.3l-14.4,8.3c-0.6,0.3-1.2,0.3-1.8,0
				l-14.5-8.3c-0.3-0.1-0.4-0.4-0.3-0.7c0.1-0.2,0.2-0.3,0.3-0.3l14.4-8.4c0.6-0.3,1.2-0.3,1.8,0L193.1,383.8z"/>
			<path fill="#FFE100" d="M191,380.5l-12.4,7.2c-0.5,0.2-1,0.2-1.5,0l-12.5-7.2c-0.2-0.1-0.3-0.2-0.3-0.4v3.5
				c0,0.2,0.1,0.4,0.3,0.4l12.5,7.2c0.5,0.2,1.1,0.2,1.5,0L191,384c0.2-0.1,0.3-0.2,0.3-0.4V380C191.3,380.2,191.2,380.4,191,380.5z
				"/>
			<path fill="#FFFF00" d="M191,379.6c0.4,0.2,0.4,0.6,0,0.9l-12.4,7.2c-0.5,0.2-1,0.2-1.5,0l-12.5-7.2c-0.4-0.2-0.4-0.6,0-0.9
				l12.4-7.2c0.5-0.2,1-0.2,1.5,0L191,379.6z"/>
			<polygon fill="#FFFFFF" points="175.5,381.5 171,380.7 174.8,379.2 174.7,376.5 178.5,378.1 183,377.2 181.5,379.8 184.3,382 
				179.6,381.9 176.9,384.1 			"/>
		</g>
		<g>
			<path fill="#F2F2F2" d="M210.1,393.5c0.3,0.1,0.4,0.4,0.3,0.7c-0.1,0.2-0.2,0.3-0.3,0.3l-14.4,8.3c-0.6,0.3-1.2,0.3-1.8,0
				l-14.5-8.3c-0.3-0.1-0.4-0.4-0.3-0.7c0.1-0.2,0.2-0.3,0.3-0.3l14.4-8.3c0.6-0.3,1.2-0.3,1.8,0L210.1,393.5z"/>
			<path fill="#BDD600" d="M208,390.2l-12.4,7.2c-0.5,0.2-1.1,0.2-1.5,0l-12.5-7.2c-0.2-0.1-0.3-0.3-0.3-0.5v3.5
				c0,0.2,0.1,0.4,0.3,0.4l12.5,7.2c0.5,0.2,1.1,0.2,1.5,0l12.4-7.2c0.2-0.1,0.3-0.2,0.3-0.4v-3.5C208.3,390,208.2,390.1,208,390.2z
				"/>
			<path fill="#E1FF00" d="M208,389.3c0.4,0.2,0.4,0.6,0,0.9l-12.4,7.2c-0.5,0.2-1.1,0.2-1.5,0l-12.5-7.2c-0.2-0.1-0.4-0.4-0.3-0.6
				c0-0.1,0.2-0.2,0.3-0.3l12.4-7.2c0.5-0.2,1-0.2,1.5,0L208,389.3z"/>
			<polygon fill="#FFFFFF" points="192.4,391.3 188,390.5 191.8,388.9 191.7,386.2 195.5,387.9 199.9,387 198.4,389.6 201.3,391.7 
				196.6,391.7 193.9,393.9 			"/>
		</g>
		<g>
			<path fill="#F2F2F2" d="M226.9,403.3c0.5,0.3,0.5,0.7,0,1l-14.4,8.4c-0.6,0.3-1.2,0.3-1.8,0l-14.5-8.4c-0.3-0.1-0.4-0.4-0.3-0.7
				c0.1-0.2,0.2-0.3,0.3-0.3l14.4-8.4c0.6-0.3,1.2-0.3,1.8,0L226.9,403.3z"/>
			<path fill="#A1D100" d="M224.8,400l-12.4,7.2c-0.5,0.2-1.1,0.2-1.5,0l-12.5-7.2c-0.2-0.1-0.3-0.2-0.3-0.4v3.5
				c0,0.2,0.1,0.4,0.3,0.5l12.5,7.2c0.5,0.2,1.1,0.2,1.5,0l12.4-7.2c0.2-0.1,0.3-0.3,0.3-0.4v-3.5C225.1,399.8,225,399.9,224.8,400z
				"/>
			<path fill="#C4FF00" d="M224.8,399.1c0.4,0.2,0.4,0.6,0,0.9l-12.4,7.2c-0.5,0.2-1.1,0.2-1.5,0l-12.5-7.2
				c-0.2-0.1-0.4-0.3-0.3-0.6c0-0.1,0.2-0.2,0.3-0.3l12.4-7.2c0.5-0.2,1.1-0.2,1.5,0L224.8,399.1z"/>
			<polygon fill="#FFFFFF" points="209.3,401.1 204.8,400.3 208.6,398.7 208.5,396 212.3,397.6 216.7,396.8 215.2,399.3 
				218.1,401.5 213.4,401.5 210.7,403.7 			"/>
		</g>
		<g>
			<path fill="#F2F2F2" d="M313.3,410.1c-13.5,7.8-35.4,7.8-48.9,0c-13.4-7.8-13.4-20.5,0.2-28.3c13.5-7.8,35.4-7.8,48.9,0
				C326.9,389.6,326.8,402.3,313.3,410.1z"/>
			<path fill="#FFA600" d="M310.1,405.4c5.9-3.4,8.9-7.9,8.9-12.4v-4.8c0,4.5-3,9-8.9,12.4c-11.8,6.8-30.8,6.8-42.5,0
				c-5.8-3.4-8.7-7.8-8.7-12.2v4.8c0,4.4,2.9,8.9,8.7,12.2C279.3,412.2,298.3,412.2,310.1,405.4z"/>
			<path fill="#FFE100" d="M310.1,400.6c-11.8,6.8-30.8,6.8-42.5,0s-11.7-17.8,0.1-24.7c11.8-6.8,30.8-6.8,42.6,0
				C322,382.7,321.9,393.8,310.1,400.6z"/>
			<path fill="#FFFFFF" d="M276.7,386l-1.6,0.9l-7.7-4.5h1.1c2.3,0,4.2,0,5.6,0c1.3,0,2.6-0.1,3.8-0.3c1-0.1,1.9-0.4,2.8-0.8
				c0.7-0.4,1-0.8,1-1.3c-0.1-0.5-0.5-1-1-1.2c-0.5-0.3-1-0.4-1.5-0.5c-0.5-0.1-1-0.1-1.4,0c-0.4,0.1-0.8,0.2-1.1,0.4
				c-0.7,0.4-1.1,0.9-1.1,1.4l-1.9,0c-0.1-0.4,0-0.9,0.2-1.2c0.3-0.4,0.7-0.8,1.2-1.1c0.7-0.4,1.5-0.6,2.2-0.7
				c0.9-0.1,1.8-0.1,2.7,0c0.9,0.2,1.8,0.5,2.6,1c0.6,0.3,1.1,0.8,1.4,1.4c0.2,0.5,0.2,1,0,1.5c-0.3,0.6-0.8,1-1.4,1.3
				c-0.8,0.4-1.6,0.7-2.4,0.9c-1,0.2-2,0.3-3,0.4c-1,0.1-2.3,0.1-4,0.2h-0.5L276.7,386z"/>
			<path fill="#FFFFFF" d="M288.4,389.9l-1.3,0.7l-1.5-0.8l-2.7,1.6l-1.7-1l2.7-1.6l-5.3-3.1l0,0l15.7-1l0,0l-7.4,4.3L288.4,389.9z
				 M285.3,388.1l3.5-2l-6.3,0.5L285.3,388.1z"/>
			<path fill="#FFFFFF" d="M286.4,393.8l-1.5-0.8l12-3.2l6-1.6l1.5,0.8L286.4,393.8z"/>
			<path fill="#FFFFFF" d="M311,394.5l-15.9,3.9l-1.9-1.1l13.7-3.3l-5-2.9l1.6-0.9L311,394.5z"/>
		</g>
		<path fill="#F2F2F2" d="M443.3,370.7c-7-4.3-18.4-4.5-25.5-0.6c-7.1,3.9-7.2,10.6-0.2,14.8c7,4.2,18.4,4.5,25.5,0.6
			S450.2,375,443.3,370.7z"/>
		<g>
			<path fill="#0081ED" d="M414.4,372.9c1-1.6,2.5-2.9,4.2-3.8c6.7-3.7,17.4-3.4,23.9,0.6c1.8,1,3.2,2.4,4.2,4.2l0.7,0.2v2.3
				c0.1,2.6-1.6,5.2-5,7.1c-6.7,3.7-17.4,3.4-23.9-0.5c-3.3-2-4.9-4.5-4.8-7l0,0v-2.4L414.4,372.9z"/>
			<path fill="#80C5FF" d="M442.5,366.9c-6.6-4-17.3-4.2-23.9-0.6c-6.7,3.7-6.8,9.9-0.2,13.9c6.6,4,17.2,4.2,23.9,0.5
				C448.9,377.1,449,370.9,442.5,366.9z"/>
			<path fill="#1F2125" d="M414.4,374.9l-0.6,0.3c0.9,2.1,2.5,3.9,4.5,5c3,1.7,6.3,2.8,9.8,3c2.3-1.2,2.3-3.3,0.1-4.7l-5.6-3.4
				C420,373.7,416.9,373.7,414.4,374.9z"/>
			<path fill="#FFE5CC" d="M422,376.9L422,376.9c-0.1,0.9,1.2,1.8,2.8,1.8h0.1c0.7,0,1.4-0.1,2-0.4l3.2-1.8l-4-2.4l-3.2,1.8
				C422.5,376,422.1,376.4,422,376.9z"/>
			<path fill="#585AA7" d="M434.9,375.8c-1.4,0.2-2.3,0.8-2,1.3c0.3,0.5,1.6,0.8,3,0.5c1.3-0.2,2.3-0.8,2-1.3
				S436.3,375.6,434.9,375.8z"/>
			<path fill="#585AA7" d="M427.8,371.5c-0.5,0.8-1.4,1.2-2.4,1.1c-0.6-0.1-1.1-0.6-1-1.2c0-0.2,0.1-0.4,0.2-0.5
				c0.5-0.8,1.4-1.3,2.4-1.1c0.6,0.1,1.1,0.6,1,1.2C428,371.1,427.9,371.3,427.8,371.5z"/>
			<path fill="#FFE5CC" d="M432.2,368.5c2.2-0.2,4.3,0.3,6.2,1.3l0,0c1.6,1,2.4,2.4,1.9,3.7l0,0c-0.3,0.6-0.8,1.1-1.4,1.3l-5.7,2.4
				c-1.1,0.5-2.4,0.6-3.6,0.5l-1-0.1c-2.2-0.2-3.9-1.2-4.3-2.5l-0.2-0.7c-0.2-0.9,0.3-1.8,1.1-2.2l4.6-3c0.7-0.4,1.5-0.7,2.3-0.7
				L432.2,368.5z"/>
			<path fill="#FF7003" d="M440.2,371.6c-0.1,0.1-0.1,0.2-0.2,0.3c-0.1,0.1-0.2,0.2-0.3,0.2c-0.3,0.2-0.6,0.3-0.9,0.4
				c-0.5,0.1-0.9,0.2-1.4,0.2c-0.6-0.1-1.1-0.4-1.5-0.8c-0.4-0.4-1-0.6-1.6-0.7c-0.6,0-1.1,0.2-1.6,0.6c-0.5,0.3-1.2,0.4-1.8,0.3
				c-0.5-0.2-0.5-0.5-0.7-0.8c-0.5-0.6-1.3-0.9-2.1-0.7c-0.3,0.1-0.7,0.1-1,0.2c0.2-0.2,0.2-0.4,0-0.6c-0.5-0.7-2,0.4-2.2,0.7
				c-0.1,0.2-0.2,0.5-0.3,0.7c-0.1,0.2,0,0.5,0.2,0.7c0.1,0.1,0.4,0.2,0.4,0.3c0,0.1-0.1,0.2-0.2,0.3c-0.1,0.1-0.3,0.2-0.5,0.2
				c-0.3,0.1-0.6,0.1-1,0c-0.3-0.1-0.6-0.2-0.8-0.4c-0.4-0.3-0.6-0.7-0.6-1.2c0.1-0.5,0.5-0.9,0.9-1.1c0.3-0.2,0.7-0.3,1.1-0.4
				c0.3-0.1,0.7-0.3,0.9-0.5c0.4-0.4,0.5-0.9,0.9-1.3c0.6-0.5,1.3-0.8,2.1-0.8c1.5-0.1,3,0.5,4.6,0.4c0.8,0,1.5-0.3,2.3-0.3
				c0.9,0,1.7,0.1,2.5,0.4c0.5,0.2,1,0.4,1.5,0.7c1.1,0.7,1.7,1.6,1.6,2.6C440.4,371.3,440.3,371.4,440.2,371.6z"/>
			<path fill="#FF7003" d="M435.7,375.1l0.2,0.2c0.2,0.2,0.5,0.4,0.8,0.5c0.3,0.1,0.7,0.2,1,0.4c1,0.8-1.4,1.4-2.4,1.4
				c-0.3,0-0.6,0.1-0.9,0c-0.3,0-0.5,0-0.8-0.1c-0.2-0.1-0.3-0.2-0.4-0.2c-0.4-0.2-0.9-0.1-1.3,0.2c-0.1,0.1-0.1,0.3,0,0.5
				c0.5,0.6,1.3,1,2.1,1c0.9,0.1,1.2-0.4,1.8-0.6c0.5-0.1,1-0.2,1.4-0.2c0.3,0,0.6,0,0.9,0c0.9-0.1,1.7-0.7,1.9-1.6
				c0-0.6,0.2-1.3,0.5-1.8c0.5-0.6,1.5-1,2-1.6c0.2-0.2,0.3-0.5,0.3-0.8c-0.1-0.4-0.3-0.7-0.5-0.9c-0.7-0.6-2.2-0.5-3-0.1
				c-0.4,0.2-0.8,0.6-0.9,1c0,0.2,0,0.4-0.1,0.6c-0.2,0.3-0.7,0.4-1.2,0.5c-0.5,0-1,0.2-1.5,0.5c-0.2,0.2-0.2,0.4-0.1,0.7
				C435.5,374.8,435.6,375,435.7,375.1z"/>
			<path fill="#585AA7" d="M428.8,369l-2.4,1.3l0.6,0.6l2.7-1.5c2.4-1.1,5.2-1,7.4,0.3l1.2,0.7c2.1,1.3,2.3,3.1,0.2,4.3l-2,1.1
				l0.3,0.8l2.3-1.3c2.6-1.4,2.6-3.8,0.1-5.3l-1.4-0.8C435.2,367.8,431.8,367.7,428.8,369z"/>
			<path fill="#585AA7" d="M427.2,376.7l0.8,0.5c0.3,0.2,0.7,0.2,1.1,0l0,0c0.3-0.2,0.4-0.5,0.1-0.6l-0.8-0.5
				c-0.3-0.2-0.7-0.2-1.1,0l0,0C426.9,376.3,426.9,376.6,427.2,376.7z"/>
			<path fill="#585AA7" d="M428,376.7l1.1,0.7c1,0.5,2.2,0.6,3.3,0.3l1.3-0.4l-0.1-0.1l-1.3,0.4c-1,0.3-2.1,0.2-3.1-0.3l-1.2-0.7
				L428,376.7z"/>
		</g>
	</g>
</g>
</svg>
