<svg id="Layer_1" data-name="Layer 1" xmlns="http://www.w3.org/2000/svg" xmlns:xlink="http://www.w3.org/1999/xlink" viewBox="0 0 65.74 38"><defs><style>.cls-1{fill:#fff;}.cls-2{fill:#00bbd6;}.cls-3{fill:#faa720;}.cls-4{fill:url(#radial-gradient);}.cls-5{fill:#231f20;}</style><radialGradient id="radial-gradient" cx="50.09" cy="18.95" r="2.02" gradientTransform="matrix(1, 0, 0, -1, 0, 40)" gradientUnits="userSpaceOnUse"><stop offset="0" stop-color="#fff"/><stop offset="0.08" stop-color="#fff" stop-opacity="0.86"/><stop offset="0.22" stop-color="#fff" stop-opacity="0.63"/><stop offset="0.36" stop-color="#fff" stop-opacity="0.44"/><stop offset="0.5" stop-color="#fff" stop-opacity="0.28"/><stop offset="0.63" stop-color="#fff" stop-opacity="0.16"/><stop offset="0.77" stop-color="#fff" stop-opacity="0.07"/><stop offset="0.89" stop-color="#fff" stop-opacity="0.02"/><stop offset="1" stop-color="#fff" stop-opacity="0"/></radialGradient></defs><path class="cls-1" d="M7.11,18.79a2.58,2.58,0,0,0-.74-1.36,2.44,2.44,0,0,0-1.45-.62c-1-.1-2.86.14-3,1.48a1.7,1.7,0,0,0,.62,1.27,14.41,14.41,0,0,0,1.65.64c.88.27,1.82.35,2.67.7a3.38,3.38,0,0,1,1.65,1.58,3.17,3.17,0,0,1,.11,1.7A2.77,2.77,0,0,1,7.4,25.92a4.74,4.74,0,0,1-1.7.64,6.09,6.09,0,0,1-2.48,0,4.11,4.11,0,0,1-2.15-1.19A3.09,3.09,0,0,1,.22,23.1h1.4A2.53,2.53,0,0,0,2.73,25a3.59,3.59,0,0,0,2.21.55,2.59,2.59,0,0,0,2.06-1,1.72,1.72,0,0,0,.16-1.48,1.67,1.67,0,0,0-1.08-.86l-1.64-.56A13.85,13.85,0,0,1,2,20.78,2.59,2.59,0,0,1,.63,18.6C.58,16.92,2,16,3.49,15.71c2-.41,4.54.27,4.93,2.59a2.22,2.22,0,0,1,0,.63Z"/><path class="cls-1" d="M19.58,19.05H18.16a2.6,2.6,0,0,0-2.93-2.21A3.44,3.44,0,0,0,11.9,19.7a5.07,5.07,0,0,0,.61,4.35,4.53,4.53,0,0,0,1.7,1.37,3.05,3.05,0,0,0,3-.54,2.91,2.91,0,0,0,.89-1.72h1.44a3.51,3.51,0,0,1-.79,2.12,4.8,4.8,0,0,1-3.53,1.48,5,5,0,0,1-4.43-2.87,5.83,5.83,0,0,1-.61-3.18c.17-2,1.32-4.33,3.39-4.91a6.1,6.1,0,0,1,1.7-.17,6,6,0,0,1,2.13.44,3.71,3.71,0,0,1,1.25.94A3.87,3.87,0,0,1,19.58,19.05Z"/><polygon class="cls-1" points="30.02 15.76 30.02 26.63 28.52 26.63 28.52 21.52 23.03 21.52 23.03 26.63 21.52 26.63 21.52 15.76 23.03 15.76 23.03 20.27 28.52 20.27 28.52 15.76 30.02 15.76"/><polygon class="cls-1" points="65.52 25.23 65.52 26.63 58.8 26.63 58.8 15.82 60.38 15.82 60.38 25.23 65.52 25.23"/><path class="cls-1" d="M37,15.58a5.32,5.32,0,0,0-5.1,5.52A5.33,5.33,0,0,0,37,26.63a5.33,5.33,0,0,0,5.09-5.53A5.32,5.32,0,0,0,37,15.58Zm0,10.08c-2.08,0-3.76-2.05-3.76-4.58S35,16.49,37,16.49s3.76,2.05,3.76,4.59S39.11,25.66,37,25.66Z"/><path class="cls-2" d="M8.67.78A12.65,12.65,0,0,0,3.92.63a3.92,3.92,0,0,0-2.16.92A3.35,3.35,0,0,0,.82,3.93,3.38,3.38,0,0,0,1.64,6a8.61,8.61,0,0,0,1.8,1.38A4,4,0,0,1,5,9a.88.88,0,0,1-.09,1,1,1,0,0,1-.44.19A5.7,5.7,0,0,1,.28,9.51l.07,2.9a8.49,8.49,0,0,0,6,.09,4.12,4.12,0,0,0,1.88-1.24,2.77,2.77,0,0,0,.51-2.21A4.57,4.57,0,0,0,7.16,6.64,19.19,19.19,0,0,1,5,4.67a1.21,1.21,0,0,1-.36-1A1.2,1.2,0,0,1,5.81,3a9.55,9.55,0,0,1,3.07.72C8.85,2.81,8.71,1.7,8.67.78Z"/><polygon class="cls-2" points="11.33 0.65 10.36 12.68 13.61 12.68 14.03 4.35 15.95 12.68 19.41 12.68 22.01 4.2 21.73 12.68 25.11 12.68 25.43 0.65 20.39 0.65 18.05 8 16.32 0.65 11.33 0.65"/><path class="cls-2" d="M36.53.65H32l-6.39,12h4.28l1.5-3.42H35.8l1.13,3.42h4Zm-4.08,6L34,3.42l1.17,3.24Z"/><path class="cls-2" d="M45.91,3.09l-.16,9.59H41.84l.47-12h7.86a3.29,3.29,0,0,1,3,3.53,3.25,3.25,0,0,1-.22,1,3.18,3.18,0,0,1-1.5,1.57h0c-.37.22-.75.42-1.12.63l2.36,5.27H48.6L46.29,6c0,.1.51.06.59.06a3.35,3.35,0,0,0,1.78-.42,1.76,1.76,0,0,0,.89-1.27,1.21,1.21,0,0,0-.55-1,2.28,2.28,0,0,0-1.38-.26Z"/><polygon class="cls-2" points="65.34 0.64 65.34 3.46 61.54 3.35 61.34 8.63 61.19 12.68 57.2 12.68 57.21 12.5 57.58 3.46 53.99 3.46 53.99 0.58 65.34 0.64"/><path class="cls-1" d="M47.27,25.71a.46.46,0,0,1-.2-.05,5.47,5.47,0,1,1,7.53-1.77,5.31,5.31,0,0,1-1,1.23.37.37,0,0,1-.52,0,.39.39,0,0,1,0-.53,4.64,4.64,0,0,0,1.59-3.84,4.71,4.71,0,0,0-9.41.61h0A4.76,4.76,0,0,0,47.46,25a.36.36,0,0,1,.13.49v0A.37.37,0,0,1,47.27,25.71Z"/><circle class="cls-3" cx="49.95" cy="21.05" r="2.61"/><path class="cls-1" d="M50,23.81a2.76,2.76,0,1,1,2.76-2.76h0A2.78,2.78,0,0,1,50,23.81Zm0-5.22a2.47,2.47,0,1,0,2.46,2.48v0A2.46,2.46,0,0,0,50,18.59Z"/><circle class="cls-4" cx="50.09" cy="21.05" r="2.02"/><path class="cls-5" d="M46.17,28c-.08-.56-.05-1.23.62-1.09a1.35,1.35,0,0,1,.76.61,19.94,19.94,0,0,1,1.39,2v-7.4a1.93,1.93,0,0,1,.3-1.28,1,1,0,0,1,1.41-.1l.1.1A2,2,0,0,1,51,22.09v4.78a1.66,1.66,0,0,1,1.5-1.18,1.34,1.34,0,0,1,1.34,1.25,1.25,1.25,0,0,1,1.78-.05A1.28,1.28,0,0,1,56,28a1,1,0,0,1,1.4-.19,1.14,1.14,0,0,1,.19.19,1.65,1.65,0,0,1,.26.71A10,10,0,0,1,58,30.44a8.71,8.71,0,0,1-.65,4.25A5.09,5.09,0,0,1,53,37.38,5.36,5.36,0,0,1,48.51,35,15,15,0,0,1,47,31c-.25-.8-.55-1.59-.74-2.42A5.81,5.81,0,0,1,46.17,28Z"/><path class="cls-1" d="M52.9,37.53a5.55,5.55,0,0,1-4.51-2.44,11.23,11.23,0,0,1-1.26-3.16c-.08-.29-.17-.6-.26-.89l-.24-.76a16,16,0,0,1-.49-1.67h0c0-.14-.08-.35-.11-.59h0a1.27,1.27,0,0,1,.2-1.13.65.65,0,0,1,.6-.13,1.57,1.57,0,0,1,.85.67c.39.51.76,1.05,1.12,1.59v-6.9a2.05,2.05,0,0,1,.33-1.38,1.13,1.13,0,0,1,.88-.37,1.06,1.06,0,0,1,.87.41,2.07,2.07,0,0,1,.3,1.31v4.17a1.76,1.76,0,0,1,1.35-.72A1.49,1.49,0,0,1,53.6,26a1.47,1.47,0,0,1,.39.67,1.44,1.44,0,0,1,1.42-.08,1.49,1.49,0,0,1,.76,1.12,1.3,1.3,0,0,1,.64-.17,1.15,1.15,0,0,1,.91.44,1.89,1.89,0,0,1,.29.77,10.63,10.63,0,0,1,.16,1.69,8.66,8.66,0,0,1-.67,4.32A5.26,5.26,0,0,1,53,37.53ZM46.63,27a.25.25,0,0,0-.2.07c-.14.12-.17.43-.12.87h0a2.21,2.21,0,0,0,.11.55h0a15.41,15.41,0,0,0,.48,1.64c.09.26.17.51.25.77s.18.6.26.9a10.89,10.89,0,0,0,1.22,3.07A5.24,5.24,0,0,0,53,37.23a5,5,0,0,0,4.17-2.61,8.51,8.51,0,0,0,.64-4.17,11.5,11.5,0,0,0-.15-1.65,1.6,1.6,0,0,0-.24-.66.9.9,0,0,0-1.27-.08l-.08.08-.36.46.1-.58A1.12,1.12,0,0,0,54,27l-.25.25V26.9a1.08,1.08,0,0,0-.33-.74,1.22,1.22,0,0,0-.86-.36,1.51,1.51,0,0,0-1.35,1.08l-.3.94V22.09A1.83,1.83,0,0,0,50.62,21a.83.83,0,0,0-.63-.3.84.84,0,0,0-.65.27,1.78,1.78,0,0,0-.26,1.19V30l-.27-.43c-.43-.68-.9-1.35-1.38-2a1.32,1.32,0,0,0-.67-.56Z"/></svg>