<svg xmlns="http://www.w3.org/2000/svg" viewBox="0 0 47.76 28.24"><defs><style>.cls-1{isolation:isolate;}.cls-2{opacity:0.38;mix-blend-mode:luminosity;}.cls-3{fill:#fff;}</style></defs><g class="cls-1"><g id="Layer_1" data-name="Layer 1"><g class="cls-2"><path class="cls-3" d="M5,14a1.84,1.84,0,0,0-.54-1,1.81,1.81,0,0,0-1.06-.45c-.76-.07-2.08.1-2.16,1.08a1.17,1.17,0,0,0,.45.92,10.41,10.41,0,0,0,1.2.47c.65.2,1.33.25,2,.51a2.44,2.44,0,0,1,1.2,1.15A2.24,2.24,0,0,1,6.15,18a2,2,0,0,1-.91,1.27A3.66,3.66,0,0,1,4,19.71a4.42,4.42,0,0,1-1.81,0,3,3,0,0,1-1.57-.86A2.3,2.3,0,0,1,0,17.2l1,0a1.84,1.84,0,0,0,.82,1.42,2.51,2.51,0,0,0,1.61.4,1.9,1.9,0,0,0,1.49-.77,1.23,1.23,0,0,0,.12-1.07,1.2,1.2,0,0,0-.79-.63l-1.2-.41a9.87,9.87,0,0,1-1.8-.63,1.89,1.89,0,0,1-1-1.59c0-1.22,1-1.89,2.09-2.11C3.86,11.5,5.7,12,6,13.68a3.55,3.55,0,0,1,0,.46Z"/><path class="cls-3" d="M14.12,14.23h-1a1.9,1.9,0,0,0-2.15-1.61,2.6,2.6,0,0,0-1.44.5,2.64,2.64,0,0,0-1,1.58A3.7,3.7,0,0,0,9,17.87a3.35,3.35,0,0,0,1.23,1,2.22,2.22,0,0,0,2.22-.4,2.14,2.14,0,0,0,.66-1.25h1a2.53,2.53,0,0,1-.57,1.55A3.5,3.5,0,0,1,11,19.87a3.69,3.69,0,0,1-3.23-2.09,4.37,4.37,0,0,1-.45-2.32c.13-1.46,1-3.16,2.48-3.58A4.29,4.29,0,0,1,11,11.75a4.73,4.73,0,0,1,1.56.32,2.9,2.9,0,0,1,.9.69A2.75,2.75,0,0,1,14.12,14.23Z"/><polygon class="cls-3" points="21.74 11.83 21.74 19.76 20.64 19.76 20.64 16.04 16.64 16.04 16.64 19.76 15.54 19.76 15.54 11.83 16.64 11.83 16.64 15.12 20.64 15.12 20.64 11.83 21.74 11.83"/><polygon class="cls-3" points="47.62 18.74 47.62 19.76 42.72 19.76 42.72 11.88 43.87 11.88 43.87 18.74 47.62 18.74"/><path class="cls-3" d="M26.84,11.7a3.88,3.88,0,0,0-3.72,4,3.88,3.88,0,0,0,3.72,4,3.88,3.88,0,0,0,3.71-4A3.88,3.88,0,0,0,26.84,11.7Zm0,7.36c-1.51,0-2.74-1.5-2.74-3.35a3.08,3.08,0,0,1,2.74-3.34c1.52,0,2.74,1.49,2.74,3.34S28.37,19.06,26.85,19.06Z"/><path class="cls-3" d="M6.17.91A9,9,0,0,0,2.7.8a2.82,2.82,0,0,0-1.57.67A2.38,2.38,0,0,0,.45,3.2,2.44,2.44,0,0,0,1,4.74a6.14,6.14,0,0,0,1.31,1A3,3,0,0,1,3.49,6.93a.64.64,0,0,1-.06.74.75.75,0,0,1-.33.14A4.19,4.19,0,0,1,.05,7.28L.1,9.39a6.23,6.23,0,0,0,4.36.07,3,3,0,0,0,1.37-.91,2.06,2.06,0,0,0,.38-1.61A3.42,3.42,0,0,0,5.07,5.18,13.31,13.31,0,0,1,3.51,3.74.88.88,0,0,1,3.24,3c.09-.33.49-.47.84-.49a6.77,6.77,0,0,1,2.24.52C6.3,2.39,6.19,1.58,6.17.91Z"/><polygon class="cls-3" points="8.1 0.81 7.4 9.58 9.77 9.58 10.08 3.51 11.47 9.58 14 9.58 15.9 3.4 15.69 9.58 18.16 9.58 18.39 0.81 14.71 0.81 13.01 6.17 11.74 0.81 8.1 0.81"/><path class="cls-3" d="M26.48.81H23.15L18.5,9.58h3.12l1.09-2.49h3.22l.82,2.49H29.7Zm-3,4.39,1.17-2.37.85,2.37Z"/><path class="cls-3" d="M33.32,2.59l-.11,7H30.35L30.7.81h3.83c.63,0,1.27,0,1.9,0a2.4,2.4,0,0,1,2.12,1.74,2.45,2.45,0,0,1-.09,1.58A2.26,2.26,0,0,1,37.4,5.27l0,0-.82.45,1.72,3.84h-3L33.6,4.75c0,.06.37,0,.43,0a2.45,2.45,0,0,0,1.3-.31A1.31,1.31,0,0,0,36,3.56a.88.88,0,0,0-.4-.77,1.73,1.73,0,0,0-1-.19Z"/><polygon class="cls-3" points="47.49 0.81 47.49 2.86 44.72 2.79 44.58 6.64 44.47 9.58 41.55 9.58 41.56 9.46 41.83 2.86 39.22 2.86 39.22 0.77 47.49 0.81"/><path class="cls-3" d="M34.31,19.09a.23.23,0,0,1-.14,0,4,4,0,1,1,6.08-3.64,4,4,0,0,1-1.35,3.25.27.27,0,1,1-.35-.41,3.44,3.44,0,1,0-4.09.34.27.27,0,0,1,.08.37A.26.26,0,0,1,34.31,19.09Z"/><circle class="cls-3" cx="36.27" cy="15.69" r="1.91"/><path class="cls-3" d="M36.27,17.7a2,2,0,1,1,2-2A2,2,0,0,1,36.27,17.7Zm0-3.81a1.8,1.8,0,1,0,1.8,1.8A1.81,1.81,0,0,0,36.27,13.89Z"/><circle class="cls-3" cx="36.37" cy="15.69" r="1.47"/><path class="cls-3" d="M33.51,20.75c0-.41,0-.9.46-.8a1,1,0,0,1,.55.44c.35.48.69,1,1,1.46V16.47a1.42,1.42,0,0,1,.22-.93.73.73,0,0,1,1.1,0,1.42,1.42,0,0,1,.2.89v3.49a1.21,1.21,0,0,1,1.09-.87,1,1,0,0,1,1,.91.93.93,0,0,1,1.56.81.76.76,0,0,1,1.16,0,1.36,1.36,0,0,1,.19.52,8.26,8.26,0,0,1,.11,1.22,6.24,6.24,0,0,1-.47,3.09,3.72,3.72,0,0,1-3.15,2,3.93,3.93,0,0,1-3.29-1.74,10.91,10.91,0,0,1-1.09-2.92c-.18-.59-.4-1.16-.54-1.76C33.57,21.08,33.53,20.92,33.51,20.75Z"/><path class="cls-3" d="M38.42,27.71a4,4,0,0,1-3.29-1.79,7.89,7.89,0,0,1-.91-2.3c-.07-.21-.13-.43-.19-.65l-.18-.55a12.26,12.26,0,0,1-.36-1.22h0l-.08-.43h0a1,1,0,0,1,.15-.83.46.46,0,0,1,.44-.09,1.1,1.1,0,0,1,.61.49c.29.37.56.76.82,1.15v-5a1.48,1.48,0,0,1,.25-1,.79.79,0,0,1,.64-.28.83.83,0,0,1,.63.3,1.55,1.55,0,0,1,.22,1v3a1.26,1.26,0,0,1,1-.52,1.09,1.09,0,0,1,.78.32,1,1,0,0,1,.28.49,1,1,0,0,1,1.59.76.85.85,0,0,1,.47-.12.8.8,0,0,1,.66.32,1.2,1.2,0,0,1,.21.56,7.53,7.53,0,0,1,.12,1.23,6.27,6.27,0,0,1-.49,3.15,3.81,3.81,0,0,1-3.23,2ZM33.85,20a.21.21,0,0,0-.15.05c-.1.09-.13.32-.08.64h0a2.71,2.71,0,0,0,.08.41h0a11.85,11.85,0,0,0,.35,1.2c.06.19.13.37.18.56s.13.44.19.66a7.89,7.89,0,0,0,.89,2.23,3.82,3.82,0,0,0,3.2,1.69,3.62,3.62,0,0,0,3.05-1.91,6.13,6.13,0,0,0,.46-3,7,7,0,0,0-.11-1.2,1.15,1.15,0,0,0-.17-.48.64.64,0,0,0-.49-.23.6.6,0,0,0-.49.22l-.27.34.07-.42a.81.81,0,0,0-1.38-.71l-.18.18V20a.78.78,0,0,0-.25-.54.93.93,0,0,0-.62-.26,1.12,1.12,0,0,0-1,.79l-.21.68v-4.2a1.35,1.35,0,0,0-.17-.83.59.59,0,0,0-.46-.21.58.58,0,0,0-.47.19,1.36,1.36,0,0,0-.2.87v5.76l-.2-.32c-.32-.49-.66-1-1-1.45a1,1,0,0,0-.49-.41Z"/></g></g></g></svg>