<?xml version="1.0" encoding="utf-8"?>
<!-- Generator: Adobe Illustrator 24.3.0, SVG Export Plug-In . SVG Version: 6.00 Build 0)  -->
<svg version="1.1" id="Layer_1" xmlns="http://www.w3.org/2000/svg" xmlns:xlink="http://www.w3.org/1999/xlink" x="0px" y="0px"
	 viewBox="0 0 65.7 38" style="enable-background:new 0 0 65.7 38;" xml:space="preserve">
<style type="text/css">
	.st0{fill:#231F20;}
	.st1{fill:#E8F9FF;stroke:#000000;stroke-width:0.25;stroke-miterlimit:10;}
	.st2{fill:#333332;}
	.st3{fill:#FAA720;}
	.st4{fill:url(#SVGID_1_);}
	.st5{fill:#FFFFFF;}
</style>
<path class="st0" d="M7.1,18.8c-0.1-0.5-0.4-1-0.7-1.4c-0.4-0.4-0.9-0.6-1.4-0.6c-1-0.1-2.9,0.1-3,1.5c0,0.5,0.2,1,0.6,1.3
	c0.5,0.2,1.1,0.5,1.7,0.6c0.9,0.3,1.8,0.4,2.7,0.7c0.7,0.3,1.3,0.9,1.7,1.6c0.2,0.5,0.2,1.1,0.1,1.7c-0.2,0.7-0.6,1.3-1.2,1.7
	c-0.5,0.3-1.1,0.5-1.7,0.6c-0.8,0.2-1.7,0.2-2.5,0c-0.8-0.2-1.6-0.6-2.2-1.2c-0.6-0.6-0.9-1.4-0.9-2.3h1.4c0.1,0.8,0.5,1.5,1.1,1.9
	c0.7,0.4,1.4,0.6,2.2,0.5c0.8,0,1.6-0.4,2.1-1c0.3-0.4,0.3-1,0.2-1.5c-0.2-0.4-0.6-0.7-1.1-0.9l-1.6-0.6c-0.8-0.2-1.7-0.5-2.4-0.9
	c-0.8-0.4-1.3-1.3-1.4-2.2C0.6,16.9,2,16,3.5,15.7c2-0.4,4.5,0.3,4.9,2.6c0,0.2,0,0.4,0,0.6L7.1,18.8z"/>
<path class="st0" d="M19.6,19h-1.4c-0.1-0.6-0.4-1.2-0.9-1.6c-0.6-0.4-1.3-0.6-2-0.6c-1.7,0-3,1.2-3.3,2.9c-0.5,1.5-0.2,3.1,0.6,4.4
	c0.4,0.6,1,1.1,1.7,1.4c1,0.4,2.2,0.2,3-0.5c0.5-0.5,0.8-1.1,0.9-1.7h1.4c0,0.8-0.3,1.5-0.8,2.1c-0.9,1-2.2,1.5-3.5,1.5
	c-1.9,0-3.6-1.1-4.4-2.9c-0.5-1-0.7-2.1-0.6-3.2c0.2-2,1.3-4.3,3.4-4.9c0.6-0.1,1.1-0.2,1.7-0.2c0.7,0,1.5,0.2,2.1,0.4
	c0.5,0.2,0.9,0.5,1.2,0.9C19.2,17.6,19.5,18.3,19.6,19z"/>
<polygon class="st0" points="30,15.8 30,26.6 28.5,26.6 28.5,21.5 23,21.5 23,26.6 21.5,26.6 21.5,15.8 23,15.8 23,20.3 28.5,20.3 
	28.5,15.8 "/>
<polygon class="st0" points="65.5,25.2 65.5,26.6 58.8,26.6 58.8,15.8 60.4,15.8 60.4,25.2 "/>
<path class="st0" d="M37,15.6c-2.9,0.1-5.2,2.6-5.1,5.5c-0.1,2.9,2.2,5.4,5.1,5.5c2.9-0.1,5.2-2.6,5.1-5.5
	C42.2,18.2,39.9,15.7,37,15.6z M37,25.7c-2.1,0-3.8-2-3.8-4.6s1.8-4.6,3.8-4.6s3.8,2,3.8,4.6S39.1,25.7,37,25.7z"/>
<path class="st1" d="M8.7,0.8C7.1,0.4,5.5,0.4,3.9,0.6C3.1,0.7,2.4,1,1.8,1.5C1.1,2.2,0.8,3,0.8,3.9c0,0.8,0.3,1.5,0.8,2.1
	c0.5,0.5,1.1,1,1.8,1.4C4.1,7.8,4.6,8.3,5,9c0.2,0.3,0.1,0.7-0.1,1c-0.1,0.1-0.3,0.2-0.4,0.2C3,10.5,1.5,10.3,0.3,9.5l0.1,2.9
	c1.9,0.8,4.1,0.8,6,0.1c0.7-0.2,1.4-0.7,1.9-1.2c0.5-0.6,0.7-1.4,0.5-2.2c-0.3-1-0.8-1.8-1.6-2.4C6.4,6,5.7,5.4,5,4.7
	C4.7,4.4,4.6,4,4.6,3.7C4.8,3.2,5.3,3,5.8,3c1.1,0.1,2.1,0.3,3.1,0.7C8.9,2.8,8.7,1.7,8.7,0.8z"/>
<polygon class="st1" points="11.3,0.6 10.4,12.7 13.6,12.7 14,4.3 15.9,12.7 19.4,12.7 22,4.2 21.7,12.7 25.1,12.7 25.4,0.6 
	20.4,0.6 18,8 16.3,0.6 "/>
<path class="st1" d="M36.5,0.6H32l-6.4,12h4.3l1.5-3.4h4.4l1.1,3.4h4L36.5,0.6z M32.4,6.7L34,3.4l1.2,3.2L32.4,6.7z"/>
<path class="st1" d="M45.9,3.1l-0.2,9.6h-3.9l0.5-12h5.2c0.9,0,1.7,0,2.6,0c1.8,0.1,3.2,1.7,3.1,3.5c0,0.3-0.1,0.7-0.2,1
	c-0.3,0.7-0.8,1.2-1.5,1.6l0,0c-0.4,0.2-0.8,0.4-1.1,0.6l2.4,5.3h-4.1L46.3,6c0,0.1,0.5,0.1,0.6,0.1c0.6,0,1.2-0.1,1.8-0.4
	c0.5-0.3,0.8-0.7,0.9-1.3c0-0.4-0.2-0.8-0.5-1c-0.4-0.2-0.9-0.3-1.4-0.3L45.9,3.1z"/>
<polygon class="st1" points="65.3,0.6 65.3,3.5 61.5,3.3 61.3,8.6 61.2,12.7 57.2,12.7 57.2,12.5 57.6,3.5 54,3.5 54,0.6 "/>
<path class="st2" d="M47.3,25.7c-0.1,0-0.1,0-0.2,0c-2.6-1.6-3.4-5-1.8-7.5c1.6-2.6,5-3.4,7.5-1.8c2.6,1.6,3.4,5,1.8,7.5
	c-0.3,0.5-0.6,0.9-1,1.2c-0.1,0.1-0.4,0.1-0.5,0c-0.1-0.1-0.1-0.4,0-0.5c1.1-1,1.7-2.4,1.6-3.8c-0.2-2.6-2.4-4.6-5-4.4
	c-2.6,0.2-4.6,2.4-4.4,5l0,0c0.1,1.5,1,2.8,2.2,3.6c0.2,0.1,0.2,0.3,0.1,0.5c0,0,0,0,0,0C47.5,25.6,47.4,25.7,47.3,25.7z"/>
<circle class="st3" cx="50" cy="21" r="2.6"/>
<path class="st2" d="M50,23.8c-1.5,0-2.8-1.2-2.8-2.8s1.2-2.8,2.8-2.8c1.5,0,2.8,1.2,2.8,2.8v0C52.8,22.6,51.5,23.8,50,23.8z
	 M50,18.6c-1.4,0-2.5,1.1-2.5,2.5s1.1,2.5,2.5,2.5s2.5-1.1,2.5-2.5c0,0,0,0,0,0C52.5,19.7,51.4,18.6,50,18.6z"/>
<radialGradient id="SVGID_1_" cx="50.09" cy="17.95" r="2.02" gradientTransform="matrix(1 0 0 -1 0 39)" gradientUnits="userSpaceOnUse">
	<stop  offset="0" style="stop-color:#FFFFFF"/>
	<stop  offset="8.000000e-02" style="stop-color:#FFFFFF;stop-opacity:0.86"/>
	<stop  offset="0.22" style="stop-color:#FFFFFF;stop-opacity:0.63"/>
	<stop  offset="0.36" style="stop-color:#FFFFFF;stop-opacity:0.44"/>
	<stop  offset="0.5" style="stop-color:#FFFFFF;stop-opacity:0.28"/>
	<stop  offset="0.63" style="stop-color:#FFFFFF;stop-opacity:0.16"/>
	<stop  offset="0.77" style="stop-color:#FFFFFF;stop-opacity:7.000000e-02"/>
	<stop  offset="0.89" style="stop-color:#FFFFFF;stop-opacity:2.000000e-02"/>
	<stop  offset="1" style="stop-color:#FFFFFF;stop-opacity:0"/>
</radialGradient>
<circle class="st4" cx="50.1" cy="21" r="2"/>
<path class="st0" d="M46.2,28c-0.1-0.6,0-1.2,0.6-1.1c0.3,0.1,0.6,0.3,0.8,0.6c0.5,0.6,1,1.3,1.4,2v-7.4c-0.1-0.4,0.1-0.9,0.3-1.3
	c0.4-0.4,1-0.5,1.4-0.1c0,0,0.1,0.1,0.1,0.1c0.2,0.4,0.3,0.8,0.3,1.2v4.8c0.2-0.7,0.8-1.1,1.5-1.2c0.7,0,1.3,0.5,1.3,1.2
	c0.5-0.5,1.3-0.5,1.8,0c0.3,0.3,0.4,0.7,0.4,1.1c0.3-0.4,1-0.5,1.4-0.2c0.1,0.1,0.1,0.1,0.2,0.2c0.1,0.2,0.2,0.5,0.3,0.7
	c0.1,0.6,0.1,1.2,0.2,1.7c0.1,1.4-0.1,2.9-0.7,4.3c-0.9,1.6-2.5,2.6-4.3,2.7c-1.8,0-3.5-0.9-4.5-2.4c-0.7-1.3-1.2-2.6-1.5-4
	c-0.2-0.8-0.5-1.6-0.7-2.4C46.2,28.4,46.2,28.2,46.2,28z"/>
<path class="st5" d="M52.9,37.5c-1.8,0-3.5-0.9-4.5-2.4c-0.6-1-1-2-1.3-3.2C47,31.6,47,31.3,46.9,31s-0.2-0.5-0.2-0.8
	c-0.2-0.5-0.4-1.1-0.5-1.7l0,0c0-0.1-0.1-0.4-0.1-0.6l0,0c-0.1-0.4,0-0.8,0.2-1.1c0.2-0.1,0.4-0.2,0.6-0.1c0.4,0.1,0.7,0.4,0.8,0.7
	c0.4,0.5,0.8,1,1.1,1.6v-6.9c-0.1-0.5,0.1-1,0.3-1.4c0.2-0.2,0.5-0.4,0.9-0.4c0.3,0,0.7,0.1,0.9,0.4c0.2,0.4,0.3,0.9,0.3,1.3v4.2
	c0.3-0.4,0.8-0.7,1.3-0.7c0.4,0,0.8,0.2,1.1,0.5c0.2,0.2,0.3,0.4,0.4,0.7c0.4-0.3,1-0.3,1.4-0.1c0.4,0.2,0.7,0.6,0.8,1.1
	c0.2-0.1,0.4-0.2,0.6-0.2c0.4,0,0.7,0.2,0.9,0.4c0.2,0.2,0.3,0.5,0.3,0.8c0.1,0.6,0.1,1.1,0.2,1.7c0.1,1.5-0.1,3-0.7,4.3
	C56.6,36.4,54.9,37.5,52.9,37.5L52.9,37.5z M46.6,27c-0.1,0-0.1,0-0.2,0.1c-0.1,0.1-0.2,0.4-0.1,0.9l0,0c0,0.2,0.1,0.4,0.1,0.5l0,0
	c0.1,0.6,0.3,1.1,0.5,1.6c0.1,0.3,0.2,0.5,0.2,0.8s0.2,0.6,0.3,0.9c0.2,1.1,0.7,2.1,1.2,3.1c1,1.5,2.6,2.4,4.4,2.4
	c1.8-0.1,3.3-1.1,4.2-2.6c0.6-1.3,0.8-2.7,0.6-4.2c0-0.6-0.1-1.1-0.2-1.6c0-0.2-0.1-0.5-0.2-0.7c-0.3-0.4-0.9-0.4-1.3-0.1
	c0,0-0.1,0.1-0.1,0.1l-0.4,0.5l0.1-0.6c0.1-0.6-0.4-1.2-1-1.3c-0.3,0-0.6,0-0.8,0.2l-0.2,0.2v-0.4c0-0.3-0.1-0.5-0.3-0.7
	c-0.2-0.2-0.5-0.4-0.9-0.4c-0.6,0-1.2,0.5-1.3,1.1l-0.3,0.9v-5.7c0-0.4-0.1-0.8-0.3-1.1c-0.2-0.2-0.4-0.3-0.6-0.3
	c-0.2,0-0.5,0.1-0.7,0.3c-0.2,0.4-0.3,0.8-0.3,1.2V30l-0.3-0.4c-0.4-0.7-0.9-1.4-1.4-2c-0.2-0.3-0.4-0.5-0.7-0.6L46.6,27z"/>
</svg>
