<svg width="505" height="502" viewBox="0 0 505 502" fill="none" xmlns="http://www.w3.org/2000/svg">
<g clip-path="url(#clip0_35716_18151)">
<path d="M156.364 29.8282C181.157 -2.6617 227.594 -8.90136 260.084 15.8916L475.522 180.292C508.012 205.084 514.252 251.521 489.459 284.011C464.666 316.501 418.229 322.741 385.739 297.948L170.301 133.548C137.811 108.755 131.572 62.3181 156.364 29.8282Z" fill="#FFC224"/>
<path d="M104.383 147.399C128.841 115.349 174.651 109.193 206.701 133.651L375.236 262.259C407.287 286.717 413.442 332.526 388.985 364.577C364.527 396.628 318.717 402.783 286.666 378.326L118.132 249.717C86.0813 225.26 79.926 179.45 104.383 147.399Z" fill="#FFC224"/>
<path d="M15.499 229.262C40.6269 196.333 87.6913 190.009 120.62 215.137L319.365 366.797C352.294 391.925 358.617 438.99 333.49 471.919C308.362 504.848 261.296 511.172 228.367 486.044L29.624 334.383C-3.305 309.255 -9.62897 262.191 15.499 229.262Z" fill="#FFC224"/>
</g>
<defs>
<clipPath id="clip0_35716_18151">
<rect width="505" height="502" fill="white"/>
</clipPath>
</defs>
</svg>
