<?xml version="1.0" encoding="utf-8"?>
<!-- Generator: Adobe Illustrator 24.3.0, SVG Export Plug-In . SVG Version: 6.00 Build 0)  -->
<svg version="1.1" id="Layer_1" xmlns="http://www.w3.org/2000/svg" xmlns:xlink="http://www.w3.org/1999/xlink" x="0px" y="0px"
	 viewBox="0 0 54 50" style="enable-background:new 0 0 54 50;" xml:space="preserve">
<style type="text/css">
	.st0{fill:none;stroke:#000000;stroke-width:2;stroke-miterlimit:10;}
</style>
<g>
	<path d="M50.9,14.9H3.8v-3.7c0-1,0.6-1.8,1.5-2.2l21.5-8.7c0.7-0.3,1.4-0.3,2.1,0l20.6,8.9c0.9,0.4,1.4,1.2,1.4,2.2V14.9z
		 M5.8,12.9h43.1v-1.4c0-0.1-0.1-0.3-0.2-0.3L28.1,2.2c-0.2-0.1-0.4-0.1-0.6,0L6,10.9c-0.1,0.1-0.2,0.2-0.2,0.3V12.9z"/>
</g>
<g>
	<path d="M49.9,47.7h-7.5v-2h7.5l-0.1-2.1l-2,0.1c-1.1,0-1.9-0.9-1.9-2v-1.9c-0.3,0.1-0.7,0-1-0.2c-0.6-0.3-1-1-1-1.7V18.4
		c0-1.1,0.9-1.9,1.9-1.9h0.2l0-2h2v2c0,1.1-0.9,2-2,2H46L46,38c1.1-0.1,1.9,0.8,1.9,1.9v1.9l2,0c1.1,0,1.9,0.9,1.9,1.9v2.1
		C51.9,46.9,51,47.7,49.9,47.7z"/>
</g>
<g>
	<path d="M13.2,47.7H5.1c-1.1,0-1.9-0.9-1.9-1.9V44c0-1.1,0.9-1.9,1.9-1.9h1.5L6.5,40c0-1.1,0.9-1.9,2-1.9H9L8.9,17.9
		C7.9,18,7,17.1,7,16v-1.6h2V16c1,0,1.9,0.8,1.9,1.9v20.2c0,1.1-0.9,2-1.9,2H8.5l0,2.1c0,1.1-0.9,1.9-1.9,1.9H5.1l0.1,1.7l8.1-0.1
		V47.7z"/>
</g>
<g>
	<polygon points="18.2,27.1 16.2,27.1 16.2,18.3 15.3,18.3 15.3,27.1 13.3,27.1 13.3,16.3 18.2,16.3 	"/>
</g>
<g>
	<polygon points="26.1,27.1 24.1,27.1 24.1,18.3 23.2,18.3 23.2,27.1 21.2,27.1 21.2,16.3 26.1,16.3 	"/>
</g>
<g>
	<polygon points="33.9,27.1 31.9,27.1 31.9,18.3 31,18.3 31,27.1 29,27.1 29,16.3 33.9,16.3 	"/>
</g>
<g>
	<polygon points="41.8,27.1 39.8,27.1 39.8,18.3 38.9,18.3 38.9,27.1 36.9,27.1 36.9,16.3 41.8,16.3 	"/>
</g>
<g>
	<path d="M42.2,31.2L40.5,30c0.5-0.7,0.5-1.1,0.5-1.2c-0.1-0.2-0.5-0.3-0.8-0.4c-1.3,0-22.1,0.1-25.5,0c-0.5,0-0.7,0-0.8,0.1
		c0.1,0.3,0.3,0.8,0.6,1.1L13,30.9c-0.4-0.4-1.6-2-1-3.3c0.4-0.8,1.3-1.2,2.7-1.2c3.4,0.1,25.3,0,25.5,0c0.3,0,2,0.2,2.6,1.5
		C43.2,28.9,43,30,42.2,31.2z"/>
</g>
<g>
	<path d="M12.4,50.5l0-1c-0.5-11.8,1-21.2,1-21.3l0.1-0.3l0.2-0.2c2.7-2.8,25.7-1.2,27.4,0.1c1.7,1.3,2.2,12.4,2.4,21.5l0,1
		L12.4,50.5z M15.3,29c-0.3,1.8-1.3,9.7-1,19.5l27.1-0.2c-0.2-8.5-0.8-17.6-1.6-18.9C37.5,28.3,18.1,27.6,15.3,29z"/>
</g>
<g>
	<circle cx="16.6" cy="10.3" r="0.6"/>
</g>
<g>
	<circle cx="19.8" cy="10.3" r="0.6"/>
</g>
<g>
	<circle cx="23" cy="10.3" r="0.6"/>
</g>
<g>
	<circle cx="26.1" cy="10.3" r="0.6"/>
</g>
<g>
	<circle cx="29.3" cy="10.3" r="0.6"/>
</g>
<g>
	<circle cx="32.5" cy="10.3" r="0.6"/>
</g>
<g>
	<circle cx="35.7" cy="10.3" r="0.6"/>
</g>
<g>
	<circle cx="38.9" cy="10.3" r="0.6"/>
</g>
<g>
	<rect x="15" y="14.6" width="2" height="2.1"/>
</g>
<g>
	<rect x="22.6" y="14.6" width="2" height="2.1"/>
</g>
<g>
	<rect x="30.4" y="14.6" width="2" height="2.1"/>
</g>
<g>
	<rect x="38.1" y="14.6" width="2" height="2.1"/>
</g>
<g>
	<path d="M26.9,43.5L21,38.3c-0.4-0.4-0.5-1-0.1-1.4c0.4-0.4,1-0.5,1.4-0.1l4.4,3.9l7.3-8.2c0.4-0.4,1-0.4,1.4-0.1
		c0.4,0.4,0.5,1,0.1,1.4L26.9,43.5z"/>
</g>
<g>
	<circle cx="10.6" cy="42.8" r="0.5"/>
</g>
<circle cx="44.6" cy="42.8" r="0.5"/>
<g>
	<rect x="9.5" y="38.1" width="3.4" height="2"/>
</g>
<g>
	<rect x="42.3" y="37.8" width="3.4" height="2"/>
</g>
<g>
	<rect x="-0.2" y="48.5" width="13.4" height="2"/>
</g>
<g>
	<rect x="42.4" y="48.3" width="11.6" height="2"/>
</g>
</svg>
