<?xml version="1.0" encoding="utf-8"?>
<!-- Generator: Adobe Illustrator 16.0.0, SVG Export Plug-In . SVG Version: 6.00 Build 0)  -->
<!DOCTYPE svg PUBLIC "-//W3C//DTD SVG 1.0//EN" "http://www.w3.org/TR/2001/REC-SVG-20010904/DTD/svg10.dtd">
<svg version="1.0" id="Layer_1" xmlns="http://www.w3.org/2000/svg" xmlns:xlink="http://www.w3.org/1999/xlink" x="0px" y="0px"
	 width="708.66px" height="708.66px" viewBox="0 0 708.66 708.66" enable-background="new 0 0 708.66 708.66" xml:space="preserve">
<g>
	<path fill="none" stroke="#373431" stroke-width="12" stroke-linecap="round" stroke-linejoin="round" stroke-miterlimit="10" d="
		M655.511,354.343c0,166.331-134.861,301.169-301.169,301.169c-166.355,0-301.193-134.838-301.193-301.169
		c0-166.356,134.838-301.194,301.193-301.194C520.65,53.148,655.511,187.986,655.511,354.343z"/>
	<path fill="none" stroke="#373431" stroke-width="12" stroke-linecap="round" stroke-linejoin="round" stroke-miterlimit="10" d="
		M477.291,328.757c-29.346,0-53.125-23.779-53.125-53.149h-0.024c-32.837,32.861-78.198,53.149-128.319,53.149l0,0h-64.477h64.477
		l0,0c50.121,0,95.482-20.288,128.319-53.149h0.024C424.166,304.978,447.945,328.757,477.291,328.757z"/>
	<path fill="none" stroke="#373431" stroke-width="12" stroke-linecap="round" stroke-linejoin="round" stroke-miterlimit="10" d="
		M231.321,254.319c67.944-67.92,178.05-67.92,245.97,0v53.148c-67.92-67.919-178.026-67.919-245.97,0V254.319z"/>
	<path fill="none" stroke="#373431" stroke-width="12" stroke-linecap="round" stroke-linejoin="round" stroke-miterlimit="10" d="
		M231.321,307.443v0.024v-53.148c67.92-67.92,178.026-67.92,245.97,0v52.904c0,0.073,0,0.146,0,0.244v20.947l125.047-80.37
		L354.319,88.598L106.298,248.045l125.023,80.37V307.443z"/>
	<path fill="none" stroke="#373431" stroke-width="12" stroke-linecap="round" stroke-linejoin="round" stroke-miterlimit="10" d="
		M549.189,213.865v204.003V213.865z"/>
	<path fill="none" stroke="#373431" stroke-width="12" stroke-linecap="round" stroke-linejoin="round" stroke-miterlimit="10" d="
		M570.942,484.298l-21.948-66.454l-21.948,66.454c12.231,12.231,32.056,12.231,44.287,0H570.942z"/>
	<path fill="none" stroke="#373431" stroke-width="12" stroke-linecap="round" stroke-linejoin="round" stroke-miterlimit="10" d="
		M477.291,328.757v-21.289c-67.92-67.919-178.026-67.919-245.945-0.024v21.313c-16.041,5.688-27.612,20.85-27.612,38.843
		c0,35.229,17.896,63.769,40.161,64.77c20.508,63.159,62.206,106.494,110.424,106.494c48.192,0,89.891-43.335,110.423-106.494
		c22.266-1.001,40.16-29.54,40.16-64.77C504.902,349.606,493.33,334.445,477.291,328.757z"/>
	<path fill="none" stroke="#373431" stroke-width="12" stroke-linecap="round" stroke-linejoin="round" stroke-miterlimit="10" d="
		M354.342,655.512c53.515,0,103.735-14.014,147.289-38.5l-70.214-29.077c-6.494-2.71-12.354-6.641-17.261-11.523
		c-9.619-9.619-15.551-22.9-15.551-37.573v-12.891c-13.77,8.301-28.688,12.916-44.287,12.916c-15.625,0-30.542-4.615-44.287-12.916
		v12.891c0,14.673-5.933,27.954-15.552,37.573c-4.907,4.883-10.767,8.813-17.261,11.523l-70.214,29.077
		C250.584,641.498,300.803,655.512,354.342,655.512z"/>
</g>
</svg>
