<svg id="Layer_1" data-name="Layer 1" xmlns="http://www.w3.org/2000/svg" viewBox="0 0 7.02 6.67"><defs><style>.cls-1{fill:#6d6c80;}</style></defs><path class="cls-1" d="M4,5.12h1A.07.07,0,0,0,5,5,.08.08,0,0,0,4.93,5H4A.08.08,0,0,0,3.87,5,.07.07,0,0,0,4,5.12Z"/><path class="cls-1" d="M4,5.61h.49a.08.08,0,0,0,.08-.08.09.09,0,0,0-.08-.08H4a.08.08,0,0,0-.08.08A.07.07,0,0,0,4,5.61Z"/><path class="cls-1" d="M.59,4.39a.09.09,0,0,0,.08.08H2.31a.08.08,0,0,0,.08-.08.08.08,0,0,0-.08-.09H.67A.09.09,0,0,0,.59,4.39Z"/><path class="cls-1" d="M2,4.79H.67a.09.09,0,0,0-.08.09A.09.09,0,0,0,.67,5H2a.08.08,0,0,0,.08-.08A.08.08,0,0,0,2,4.79Z"/><path class="cls-1" d="M6.73.05H2a.24.24,0,0,0-.24.24V.7H.51a.41.41,0,0,0-.41.41V6.19a.41.41,0,0,0,.41.41H5.59A.41.41,0,0,0,6,6.19V4.14h.74A.25.25,0,0,0,7,3.89H7V.29A.25.25,0,0,0,6.73.05Zm-.9,6.14a.24.24,0,0,1-.24.24H.51a.25.25,0,0,1-.25-.24V1.11A.25.25,0,0,1,.51.87H1.74v3A.25.25,0,0,0,2,4.14H5.83Zm1-2.3A.08.08,0,0,1,6.73,4H2a.09.09,0,0,1-.08-.09V.29A.09.09,0,0,1,2,.21H6.73a.08.08,0,0,1,.08.08Z"/><path class="cls-1" d="M2.64,1.19a.08.08,0,0,0-.08.08v2a.08.08,0,0,0,.08.08.09.09,0,0,0,.08-.08v-2A.09.09,0,0,0,2.64,1.19Z"/><path class="cls-1" d="M3.13,1.68a.08.08,0,0,0-.08.09V3.24a.08.08,0,0,0,.08.08.09.09,0,0,0,.08-.08V1.77A.09.09,0,0,0,3.13,1.68Z"/><path class="cls-1" d="M3.62.87A.08.08,0,0,0,3.54,1v1A.09.09,0,0,0,3.62,2a.08.08,0,0,0,.08-.08V1A.07.07,0,0,0,3.62.87Z"/><path class="cls-1" d="M3.62,2.34a.09.09,0,0,0-.08.08v.82a.09.09,0,0,0,.08.08.08.08,0,0,0,.08-.08V2.42A.08.08,0,0,0,3.62,2.34Z"/><path class="cls-1" d="M4.11.87A.08.08,0,0,0,4,1V3.24a.09.09,0,0,0,.08.08.08.08,0,0,0,.08-.08V1A.07.07,0,0,0,4.11.87Z"/><path class="cls-1" d="M4.6.87A.08.08,0,0,0,4.52,1V2.58a.09.09,0,0,0,.08.09.08.08,0,0,0,.08-.09V1A.07.07,0,0,0,4.6.87Z"/><path class="cls-1" d="M5.09,1.19A.09.09,0,0,0,5,1.27V3.08a.09.09,0,0,0,.08.08.09.09,0,0,0,.09-.08V1.27A.09.09,0,0,0,5.09,1.19Z"/><path class="cls-1" d="M5.59.87A.08.08,0,0,0,5.5,1V2.42a.08.08,0,0,0,.09.08.08.08,0,0,0,.08-.08V1A.08.08,0,0,0,5.59.87Z"/><path class="cls-1" d="M5.59,2.83a.09.09,0,0,0-.09.08v.33a.09.09,0,0,0,.09.08.09.09,0,0,0,.08-.08V2.91A.09.09,0,0,0,5.59,2.83Z"/><path class="cls-1" d="M4.6,3a.09.09,0,0,0-.08.09v.16a.09.09,0,0,0,.08.08.08.08,0,0,0,.08-.08V3.08A.08.08,0,0,0,4.6,3Z"/><path class="cls-1" d="M3.13.87A.07.07,0,0,0,3.05,1v.32a.08.08,0,0,0,.08.09.09.09,0,0,0,.08-.09V1A.08.08,0,0,0,3.13.87Z"/><path class="cls-1" d="M6.08,3.32a.09.09,0,0,0,.08-.08V1A.08.08,0,0,0,6.08.87.08.08,0,0,0,6,1V3.24A.09.09,0,0,0,6.08,3.32Z"/><path class="cls-1" d="M2.64.37H2.31a.25.25,0,0,0-.25.25V1A.09.09,0,0,0,2.15,1,.09.09,0,0,0,2.23,1V.62A.08.08,0,0,1,2.31.54h.33A.09.09,0,0,0,2.72.46.09.09,0,0,0,2.64.37Z"/><path class="cls-1" d="M6.4.37H6.08A.09.09,0,0,0,6,.46a.09.09,0,0,0,.09.08H6.4a.08.08,0,0,1,.09.08V1A.08.08,0,0,0,6.57,1,.09.09,0,0,0,6.65,1V.62A.25.25,0,0,0,6.4.37Z"/><path class="cls-1" d="M6.57,3.16a.07.07,0,0,0-.08.08v.33a.09.09,0,0,1-.09.08H6.08A.09.09,0,0,0,6,3.73a.08.08,0,0,0,.09.08H6.4a.25.25,0,0,0,.25-.24V3.24A.08.08,0,0,0,6.57,3.16Z"/><path class="cls-1" d="M2.64,3.65H2.31a.09.09,0,0,1-.08-.08V3.24a.08.08,0,0,0-.08-.08.08.08,0,0,0-.09.08v.33a.25.25,0,0,0,.25.24h.33a.08.08,0,0,0,.08-.08A.09.09,0,0,0,2.64,3.65Z"/><path class="cls-1" d="M3.37,4.64V5.9a.18.18,0,0,0,.17.17h1.7a.18.18,0,0,0,.17-.17V4.64a.18.18,0,0,0-.17-.17H3.54A.18.18,0,0,0,3.37,4.64ZM5.3,6H3.48V4.58H5.3Z"/><path class="cls-1" d="M3.37,4.64V5.9a.18.18,0,0,0,.17.17h1.7a.18.18,0,0,0,.17-.17V4.64a.18.18,0,0,0-.17-.17H3.54A.18.18,0,0,0,3.37,4.64ZM5.3,6H3.48V4.58H5.3Z"/><path class="cls-1" d="M.64,5.51V6A.07.07,0,0,0,.71,6h.61A.07.07,0,0,0,1.39,6V5.51a.07.07,0,0,0-.07-.06H.71A.07.07,0,0,0,.64,5.51ZM1.35,6H.68v-.5h.67Z"/><path class="cls-1" d="M1.64,5.51V6A.07.07,0,0,0,1.71,6h.61A.07.07,0,0,0,2.39,6V5.51a.07.07,0,0,0-.07-.06H1.71A.07.07,0,0,0,1.64,5.51ZM2.35,6H1.68v-.5h.67Z"/></svg>