<svg id="Layer_1" data-name="Layer 1" xmlns="http://www.w3.org/2000/svg" viewBox="0 0 6.71 5.94"><defs><style>.cls-1{fill:#6d6c80;}</style></defs><path class="cls-1" d="M6.11.13H.6A.53.53,0,0,0,.07.65V4.34a.53.53,0,0,0,.53.53h2v.79H2.16a.1.1,0,0,0-.1.11.09.09,0,0,0,.1.1H4.54a.1.1,0,0,0,.11-.1.11.11,0,0,0-.11-.11H4.09V5.18A.1.1,0,0,0,4,5.08a.1.1,0,0,0-.1.1v.48h-1V4.87H6.11a.52.52,0,0,0,.52-.53V.65A.52.52,0,0,0,6.11.13Zm0,4.53H.6a.32.32,0,0,1-.32-.32V4H6.42v.39A.31.31,0,0,1,6.11,4.66ZM.6.34H6.11a.31.31,0,0,1,.31.31V3.74H.28V.65A.31.31,0,0,1,.6.34Z"/><path class="cls-1" d="M.74.9H3.43A.11.11,0,0,0,3.54.79a.11.11,0,0,0-.11-.1H.74a.11.11,0,0,0-.11.1A.11.11,0,0,0,.74.9Z"/><path class="cls-1" d="M.74,1.4H3.43a.11.11,0,0,0,.11-.11.11.11,0,0,0-.11-.1H.74a.11.11,0,0,0-.11.1A.11.11,0,0,0,.74,1.4Z"/><path class="cls-1" d="M.74,1.9H2.08a.11.11,0,0,0,.11-.11.1.1,0,0,0-.11-.1H.74a.1.1,0,0,0-.11.1A.11.11,0,0,0,.74,1.9Z"/><path class="cls-1" d="M.74,2.4H3.43a.11.11,0,0,0,.11-.11.1.1,0,0,0-.11-.1H.74a.1.1,0,0,0-.11.1A.11.11,0,0,0,.74,2.4Z"/><path class="cls-1" d="M.74,2.9H3.43a.11.11,0,0,0,.11-.11.1.1,0,0,0-.11-.1H.74a.1.1,0,0,0-.11.1A.11.11,0,0,0,.74,2.9Z"/><path class="cls-1" d="M.74,3.39H2.08a.1.1,0,0,0,.11-.1.11.11,0,0,0-.11-.11H.74a.11.11,0,0,0-.11.11A.1.1,0,0,0,.74,3.39Z"/><path class="cls-1" d="M4,3.39H6a.09.09,0,0,0,.1-.1V.79A.1.1,0,0,0,6,.69H4a.11.11,0,0,0-.1.1v2.5A.1.1,0,0,0,4,3.39ZM4.09.9H5.86V3.18H4.09Z"/></svg>