<svg id="Layer_1" data-name="Layer 1" xmlns="http://www.w3.org/2000/svg" viewBox="0 0 7.25 7.46"><defs><style>.cls-1{fill:#6d6c80;}</style></defs><g id="Online_class_real-time" data-name="Online class real-time"><path class="cls-1" d="M6.7,1.4H6.29V.31A.23.23,0,0,0,6.06.08H3.69a.23.23,0,0,0-.22.23V1L3,1.4H2.73v0A.45.45,0,0,0,2.28.91h-.6a.45.45,0,0,0-.45.45v0H.52a.47.47,0,0,0-.47.46V5.67a.47.47,0,0,0,.47.47H3.05L2.9,7.25H2.54a.07.07,0,1,0,0,.14H4.71a.07.07,0,1,0,0-.14H4.35L4.2,6.14H6.7a.46.46,0,0,0,.46-.47V1.86A.46.46,0,0,0,6.7,1.4ZM3.05,7.25,3.2,6.14h.85L4.2,7.25Zm3-4.39a.2.2,0,0,1,.29-.27.2.2,0,0,1,0,.27.25.25,0,0,0,0,.36l.06,0h0a.24.24,0,0,1,.15.24v.24H5.82V3.48A.25.25,0,0,1,6,3.25l0,0a.2.2,0,0,0,.12-.16A.26.26,0,0,0,6.06,2.86Zm.43.27,0,0a.1.1,0,0,1,0-.07.16.16,0,0,1,0-.09A.33.33,0,1,0,6,2.5.33.33,0,0,0,6,3a.17.17,0,0,1,0,.1.12.12,0,0,1,0,.07h0a.38.38,0,0,0-.23.35v.25H5.41V2.19H7V3.73H6.73V3.49A.38.38,0,0,0,6.49,3.13ZM5.28,2.58h0L5,2.4l.14-.19,0,0h.08Zm-.36.51a.33.33,0,0,0-.19.12l-.06.08-.31-.22L4.43,3a.26.26,0,0,0,.07-.19V2.71a.21.21,0,0,1,0-.13L5,2a.07.07,0,0,1,.1,0,.06.06,0,0,1,0,.09h0l-.18.25a.08.08,0,0,0,0,.11l.3.22a.17.17,0,0,1,0,.24h0l0,.05a.14.14,0,0,1-.08,0ZM2.74,4a.08.08,0,0,0-.05.08V5H1.49V4.06a.07.07,0,0,0-.14,0V5H.78V3.61a.45.45,0,0,1,.46-.45h.39l.19.1L2,3.38a.27.27,0,0,0,.12,0h.11a.23.23,0,0,0,.1-.15.06.06,0,0,0,0,0v0h.41a.53.53,0,0,1,.47.28l.2.39a.17.17,0,0,0,.22.08s0,0,.06-.05l.51-.71.43.34-.59.8a.65.65,0,0,1-.89.14A.67.67,0,0,1,3,4.28L2.82,4A.11.11,0,0,0,2.74,4ZM.2,5V2.19H1a.37.37,0,0,0,.25.15.71.71,0,0,0,.31.41V3H1.24a.6.6,0,0,0-.61.6V5ZM3,2.19H4.66l-.23.3a.33.33,0,0,0-.07.21v.08a.17.17,0,0,1,0,.1L4.24,3a.08.08,0,0,0-.1,0l-.56.77h0l-.2-.4A.66.66,0,0,0,2.75,3H2.34V2.78a.83.83,0,0,0,.35-.41A.33.33,0,0,0,3,2.19Zm-.76.89v.11a.17.17,0,0,1,0,.05H2.08L1.73,3V2.82a.73.73,0,0,0,.46,0v.24Zm.47-.86a.17.17,0,0,1-.18-.17.18.18,0,0,1,.18-.17.18.18,0,0,1,.17.17.17.17,0,0,1-.17.17Zm-.08-.86v.16H1.7a.21.21,0,0,0-.21.19v.05s0,0-.05,0,0,0,0,0l0,0V1.36a.28.28,0,0,1,0-.13.29.29,0,0,1,.13-.14.32.32,0,0,1,.14,0h.6a.29.29,0,0,1,.3.3Zm-1.31.48h0a.19.19,0,0,0,.16.1h0a.2.2,0,0,0,.16-.16V1.72a.09.09,0,0,1,.07-.06h.88v.07A.31.31,0,0,0,2.35,2H2.26a.32.32,0,0,0-.38-.24.32.32,0,0,0-.24.39.32.32,0,0,0,.62,0h.09a.3.3,0,0,0,.19.22.6.6,0,0,1-.79.32.57.57,0,0,1-.35-.42.08.08,0,0,0-.08,0h0A.19.19,0,0,1,1.12,2a.18.18,0,0,1,.15-.18Zm.85.21a.17.17,0,0,1-.34,0A.18.18,0,0,1,2,1.88H2A.18.18,0,0,1,2.12,2.05Zm4.58-.5A.32.32,0,0,1,7,1.86V2H6.28a.22.22,0,0,0,0-.08V1.55ZM3.58,1.14a.06.06,0,0,0,0-.06V.31A.09.09,0,0,1,3.69.23H6.06a.08.08,0,0,1,.08.08V2A.08.08,0,0,1,6.06,2H5.22A.21.21,0,0,0,5,1.87.25.25,0,0,0,4.83,2L4.77,2H3.7C3.65,2,3.61,2,3.62,2V1.47a.07.07,0,0,0-.07-.07H3.23ZM3,1.55h.47V2a.22.22,0,0,0,0,.08H3a.32.32,0,0,0-.24-.3V1.59h0v0Zm-2.48,0h.71v.14A.33.33,0,0,0,1,2V2H.2V1.86A.31.31,0,0,1,.52,1.55ZM6.7,6H.52A.32.32,0,0,1,.2,5.67V5.14H6A.08.08,0,0,0,6,5.06.07.07,0,0,0,6,5H2.84V4.28l.06.09A.78.78,0,0,0,4,4.55a.73.73,0,0,0,.18-.17l.63-.86a.07.07,0,0,0,0-.1l0,0,.08-.1A.17.17,0,0,1,5,3.23H5l.2,0a.24.24,0,0,0,.13-.07V3.8a.07.07,0,0,0,.07.06H7V5H6.29a.08.08,0,0,0-.08.07.09.09,0,0,0,.08.08H7v.53A.32.32,0,0,1,6.7,6Z"/><path class="cls-1" d="M4.38,1.34A.44.44,0,0,0,4.82.9a.44.44,0,0,0-.88,0h0A.44.44,0,0,0,4.38,1.34Zm0-.72A.28.28,0,0,1,4.67.9a.29.29,0,1,1-.58,0h0A.28.28,0,0,1,4.38.62Z"/><path class="cls-1" d="M5,1.64H5.8a.07.07,0,0,0,.07-.07s0,0,0,0L5.45.86a.08.08,0,0,0-.1,0s0,0,0,0l-.41.67a.07.07,0,0,0,0,.1Zm.4-.6.27.45H5.12Z"/><path class="cls-1" d="M5.49.65h.09V.74a.06.06,0,0,0,.12,0V.65h.09A.06.06,0,0,0,5.85.59.06.06,0,0,0,5.79.53H5.7V.44a.06.06,0,1,0-.12,0V.53H5.49a.06.06,0,0,0-.06.06A.06.06,0,0,0,5.49.65Z"/><path class="cls-1" d="M4.38,1.65H4.07a.06.06,0,0,0,0,.12h.31a.06.06,0,0,0,0-.12Z"/><path class="cls-1" d="M3.61,5.32a.25.25,0,1,0,.25.24A.25.25,0,0,0,3.61,5.32Zm0,.34a.09.09,0,0,1-.1-.1.1.1,0,0,1,.1-.1.11.11,0,0,1,.1.1A.1.1,0,0,1,3.61,5.66Z"/></g></svg>