<svg id="Layer_1" data-name="Layer 1" xmlns="http://www.w3.org/2000/svg" viewBox="0 0 7.56 8.03"><defs><style>.cls-1{fill:#6d6c80;}</style></defs><path class="cls-1" d="M2.93.12l.35,0,.24,0c.09,0,.13.07.11.15s-.07.11-.16.09A4.23,4.23,0,0,0,2.68.37,3.56,3.56,0,0,0,1.24.69L1.07.77A.13.13,0,0,1,.89.71.13.13,0,0,1,1,.54a3.44,3.44,0,0,1,.81-.3L2.43.13h.5Z"/><path class="cls-1" d="M0,3l.11-.24a2.76,2.76,0,0,1,.53-.78.14.14,0,0,1,.2,0c.05.05,0,.13,0,.2A2.36,2.36,0,0,0,.26,3c0,.06-.05.11-.12.12S0,3.09,0,3.05Z"/><path class="cls-1" d="M4.15,6.06c0-.46,0-.92,0-1.38A1.52,1.52,0,0,1,5,3.33a1.7,1.7,0,0,1,1.89.15,1.58,1.58,0,0,1,.63,1.29V7.49c0,.07,0,.13-.09.15a.13.13,0,0,1-.16-.1V4.79A1.37,1.37,0,0,0,6.15,3.41a1.48,1.48,0,0,0-1.32.35,1.36,1.36,0,0,0-.44,1V7.45a.34.34,0,0,1,0,.1.11.11,0,0,1-.12.1.12.12,0,0,1-.11-.11.22.22,0,0,1,0-.08V6.06Z"/><path class="cls-1" d="M1.26,5c0-.32,0-.65,0-1a1.33,1.33,0,0,1,.52-1,1.42,1.42,0,0,1,1.41-.27A1.5,1.5,0,0,1,4,3.39a1.64,1.64,0,0,1,.14.3.13.13,0,1,1-.23.09,1.56,1.56,0,0,0-.32-.52A1.14,1.14,0,0,0,2,3.1a1.14,1.14,0,0,0-.53,1c0,.52,0,1,0,1.57a1.23,1.23,0,0,0,.51,1l.9.67s.05,0,.06.06a.11.11,0,0,1,0,.15.12.12,0,0,1-.15,0l-.05,0-.94-.7a1.49,1.49,0,0,1-.59-1.21V5Z"/><path class="cls-1" d="M3.45,7.17l-.13.21A5.85,5.85,0,0,1,2.84,7a6.22,6.22,0,0,1-.64-.51,1.4,1.4,0,0,1-.44-1.07c0-.45,0-.9,0-1.35A.94.94,0,0,1,3.63,4c0,.26,0,.51,0,.77a1,1,0,0,0,.1.42s0,0,0,0a.11.11,0,0,1-.06.16.12.12,0,0,1-.17-.07,1.14,1.14,0,0,1-.12-.48c0-.24,0-.48,0-.72A.7.7,0,0,0,3,3.46.69.69,0,0,0,2,4a.86.86,0,0,0,0,.16V5.52a1.16,1.16,0,0,0,.47.93l.9.67Z"/><path class="cls-1" d="M2.26,4.7V4.09a.44.44,0,0,1,.87,0c0,.29,0,.58,0,.87a1.33,1.33,0,0,0,.16.65,1.38,1.38,0,0,0,.32.36L3.71,6a.11.11,0,0,1,0,.17.11.11,0,0,1-.17,0,1.69,1.69,0,0,1-.47-.49,1.58,1.58,0,0,1-.2-.8c0-.26,0-.52,0-.78a.34.34,0,0,0,0-.17.16.16,0,0,0-.18-.06A.18.18,0,0,0,2.52,4a.38.38,0,0,0,0,.1V5.21A1.21,1.21,0,0,0,3,6.2l.69.56.07.06a.12.12,0,0,1,0,.15.11.11,0,0,1-.14,0L3.53,7l-.7-.57a1.46,1.46,0,0,1-.57-1.19V4.7Z"/><path class="cls-1" d="M5.81,5.64A3.48,3.48,0,0,1,5,5.54a.26.26,0,0,1-.23-.26c0-.29-.06-.58-.1-.87a.3.3,0,0,1,.15-.33,1.83,1.83,0,0,1,2.11,0A.23.23,0,0,1,7,4.36c0,.3-.06.6-.1.89s-.07.26-.26.3A3.89,3.89,0,0,1,5.81,5.64Zm0-.25v0l.77-.11s.06,0,.07-.07c0-.29.06-.57.09-.86,0,0,0-.06,0-.08a1.58,1.58,0,0,0-1.79,0,.06.06,0,0,0,0,.08c0,.29.07.58.1.87,0,0,0,0,.06.06A3.31,3.31,0,0,0,5.83,5.39Z"/><path class="cls-1" d="M.25,4.2A2.31,2.31,0,0,1,.54,3,2.44,2.44,0,0,1,2.33,1.66c.16,0,.33,0,.49,0A.12.12,0,0,1,3,1.75a.13.13,0,0,1-.13.13h0A3.55,3.55,0,0,0,2.2,2,2.18,2.18,0,0,0,.69,3.21a2.15,2.15,0,0,0-.19.93v.35a.14.14,0,0,1-.12.15.14.14,0,0,1-.13-.15Z"/><path class="cls-1" d="M2.79.62a4,4,0,0,1,.85.11.24.24,0,0,1,.11.08.13.13,0,0,1,0,.13.16.16,0,0,1-.12,0c-.25,0-.49-.09-.73-.1a3.16,3.16,0,0,0-2.31.86l-.1.09a.12.12,0,0,1-.18,0,.12.12,0,0,1,0-.19A3.41,3.41,0,0,1,1.23,1,3.51,3.51,0,0,1,2.79.62Z"/><path class="cls-1" d="M2.92,1.13A2.9,2.9,0,0,1,5.37,2.67c0,.08,0,.16,0,.19a.12.12,0,0,1-.18-.07,2.77,2.77,0,0,0-.78-.89,2.64,2.64,0,0,0-1.45-.52H2.75a.11.11,0,0,1-.11-.12c0-.06,0-.11.11-.12Z"/><path class="cls-1" d="M.74,4.49c0-.24,0-.49,0-.74a1.94,1.94,0,0,1,.61-1.18c.07-.07.15-.08.2,0s0,.13,0,.2a1.71,1.71,0,0,0-.49.84,2.07,2.07,0,0,0-.06.5c0,.33,0,.65,0,1v.08a.11.11,0,0,1-.11.1.11.11,0,0,1-.13-.08.28.28,0,0,1,0-.09V4.49Z"/><path class="cls-1" d="M3,2.12c.16,0,.33.09.48.15a2,2,0,0,1,1,.91.14.14,0,0,1,0,.19.13.13,0,0,1-.19-.07,1.7,1.7,0,0,0-.64-.69,1.78,1.78,0,0,0-.58-.22L3,2.37a.12.12,0,0,1-.08-.14A.14.14,0,0,1,3,2.12Z"/><path class="cls-1" d="M5.54,2a1,1,0,0,1-.09.1.2.2,0,0,1-.13,0A.52.52,0,0,1,5.22,2a3.3,3.3,0,0,0-1.16-.83L4,1.11A.12.12,0,0,1,3.9,1,.13.13,0,0,1,4.07.89c.15.07.31.14.45.22a3.72,3.72,0,0,1,.94.78A.62.62,0,0,1,5.54,2Z"/><path class="cls-1" d="M2,1.25a.12.12,0,0,1,.13.09.13.13,0,0,1-.06.15H2a3.13,3.13,0,0,0-.84.36.14.14,0,0,1-.18,0,.13.13,0,0,1,.05-.18A3.52,3.52,0,0,1,2,1.25Z"/><path class="cls-1" d="M5.84,6.9h.41c.09,0,.15,0,.15.12a.13.13,0,0,1-.14.13H5.41A.13.13,0,0,1,5.27,7c0-.07.06-.12.15-.12Z"/><path class="cls-1" d="M5.84,6.4c.13,0,.27,0,.41,0s.15,0,.15.12a.13.13,0,0,1-.15.13H5.42a.14.14,0,0,1-.15-.13c0-.08.06-.12.15-.12S5.7,6.4,5.84,6.4Z"/><path class="cls-1" d="M.75,5.87V5.66c0-.1.05-.16.13-.15s.12,0,.12.15l0,.55a.89.89,0,0,0,0,.14A.12.12,0,0,1,1,6.51a.13.13,0,0,1-.16-.09A2.18,2.18,0,0,1,.75,5.87Z"/><path class="cls-1" d="M3.41,1.7a1.6,1.6,0,0,1,.23.08L4.06,2a.13.13,0,0,1,.06.19.13.13,0,0,1-.19,0,1.89,1.89,0,0,0-.57-.28.12.12,0,0,1-.09-.14A.13.13,0,0,1,3.41,1.7Z"/><path class="cls-1" d="M4.91,3s-.06.08-.1.09a.12.12,0,0,1-.15,0l-.23-.31L4.31,2.6a.12.12,0,1,1,.18-.17l.38.46S4.89,3,4.91,3Z"/><path class="cls-1" d="M4.64.72c0,.11-.09.18-.17.14L4,.6a.11.11,0,0,1,0-.15A.12.12,0,0,1,4.06.38l.53.27S4.63.71,4.64.72Z"/><path class="cls-1" d="M2.36,2.13a.13.13,0,0,1,.14.1.12.12,0,0,1-.08.14l-.5.16a.13.13,0,0,1-.15-.07.12.12,0,0,1,.05-.16A1.54,1.54,0,0,1,2.36,2.13Z"/><path class="cls-1" d="M5.84,4.64a.85.85,0,0,1,.62.26c.07.07.08.14,0,.2a.14.14,0,0,1-.2,0A.63.63,0,0,0,5.51,5l-.14.11a.12.12,0,0,1-.18,0c-.06,0-.06-.12,0-.19A.85.85,0,0,1,5.84,4.64Z"/></svg>