<svg id="Layer_1" data-name="Layer 1" xmlns="http://www.w3.org/2000/svg" viewBox="0 0 7.56 11.93"><defs><style>.cls-1{fill:#222a33;}.cls-2{fill:#6d6c80;}</style></defs><g id="path5"><path class="cls-1" d="M5.12.89H2.71a.06.06,0,0,1,0-.06.06.06,0,0,1,0-.06H5.12a.06.06,0,0,1,.06.06A.06.06,0,0,1,5.12.89Z"/></g><g id="path3"><path class="cls-2" d="M6.45,11.79H1.11a1,1,0,0,1-1-1V1.12A1,1,0,0,1,.41.43a1,1,0,0,1,.7-.29H6.45a1,1,0,0,1,1,1V10.8a1,1,0,0,1-.28.7A1,1,0,0,1,6.45,11.79ZM1.11.23A.9.9,0,0,0,.47.49a.88.88,0,0,0-.26.63V10.8a.89.89,0,0,0,.9.9H6.45a.89.89,0,0,0,.9-.9V1.12A.88.88,0,0,0,7.09.49.9.9,0,0,0,6.45.23Z"/></g><path class="cls-2" d="M5.5,4.86A2.2,2.2,0,0,0,1.75,6.41a2.24,2.24,0,0,0,.3,1.1L1.74,8.64l1.16-.3A2.24,2.24,0,0,0,4,8.6H4A2.19,2.19,0,0,0,5.5,4.86ZM4,8.23A1.88,1.88,0,0,1,3,8L3,7.94l-.69.18.19-.67L2.4,7.38a1.84,1.84,0,0,1-.27-1A1.82,1.82,0,1,1,4,8.23M5,6.87l-.38-.18c-.05,0-.08,0-.12,0l-.17.21a.09.09,0,0,1-.12,0,1.52,1.52,0,0,1-.44-.28,1.32,1.32,0,0,1-.31-.38s0-.08,0-.11l.08-.09a.2.2,0,0,0,0-.09.12.12,0,0,0,0-.1s-.12-.3-.17-.41-.09-.09-.12-.09H3.17A.16.16,0,0,0,3,5.47a.58.58,0,0,0-.2.45,1.06,1.06,0,0,0,.23.57A2.42,2.42,0,0,0,4,7.32l.32.11a.68.68,0,0,0,.34,0A.54.54,0,0,0,5,7.19a.37.37,0,0,0,0-.26s0,0-.1-.06"/></svg>