<svg id="Layer_1" data-name="Layer 1" xmlns="http://www.w3.org/2000/svg" viewBox="0 0 7.05 7.06"><defs><style>.cls-1{fill:#6d6c80;}</style></defs><g id="Finger_Print" data-name="Finger Print"><path class="cls-1" d="M5.47,3.25a.13.13,0,0,0-.13.1A6,6,0,0,1,3.66,6.69a.1.1,0,0,0,0,.16.1.1,0,0,0,.15,0h0A6.23,6.23,0,0,0,5.56,3.38.11.11,0,0,0,5.47,3.25Z"/><path class="cls-1" d="M4.88.66a.11.11,0,0,0-.16,0,.1.1,0,0,0,0,.15,1.83,1.83,0,0,1,.67,1.41v.23c0,.16,0,.32,0,.48a.11.11,0,0,0,.1.12h0A.11.11,0,0,0,5.61,3c0-.17,0-.33,0-.5V2.24A2,2,0,0,0,4.88.66Z"/><path class="cls-1" d="M3,.54A1.52,1.52,0,0,1,3.59.42a1.69,1.69,0,0,1,.73.16h0a.11.11,0,0,0,0-.21A2.11,2.11,0,0,0,3.59.2a1.71,1.71,0,0,0-.67.14.1.1,0,0,0-.06.14A.1.1,0,0,0,3,.54Z"/><path class="cls-1" d="M1.83,2.82A.12.12,0,0,0,2,2.74,3.56,3.56,0,0,0,2.07,2,1.54,1.54,0,0,1,2.54.84a.11.11,0,0,0,0-.16.12.12,0,0,0-.16,0A1.75,1.75,0,0,0,1.84,2a3,3,0,0,1-.09.73A.12.12,0,0,0,1.83,2.82Z"/><path class="cls-1" d="M1.74,3.08a.12.12,0,0,0-.15.06h0A2.81,2.81,0,0,1,1,4a.11.11,0,0,0,0,.16.12.12,0,0,0,.16,0h0a3.25,3.25,0,0,0,.66-.95.13.13,0,0,0-.06-.15Z"/><path class="cls-1" d="M4.59,4.7a.12.12,0,0,0-.15.06h0a5.67,5.67,0,0,1-1.11,1.6.11.11,0,0,0,0,.16.12.12,0,0,0,.16,0h0A5.86,5.86,0,0,0,4.65,4.85.12.12,0,0,0,4.59,4.7Z"/><path class="cls-1" d="M4.65,4.25a.11.11,0,1,0,.21.07A5.66,5.66,0,0,0,5.19,2.4V2.18a1.53,1.53,0,0,0-.12-.6.11.11,0,1,0-.21.09h0a1.25,1.25,0,0,1,.1.51V2.4A5.53,5.53,0,0,1,4.65,4.25Z"/><path class="cls-1" d="M2.4,2.21a.1.1,0,0,0-.12.1,3.31,3.31,0,0,1-1,2,.11.11,0,0,0,0,.16.1.1,0,0,0,.16,0h0a3.53,3.53,0,0,0,1-2.18C2.5,2.26,2.46,2.21,2.4,2.21Z"/><path class="cls-1" d="M2.4,2h0a.13.13,0,0,0,.11-.11,1.15,1.15,0,0,1,1.07-1A.11.11,0,0,0,3.7.75a.12.12,0,0,0-.12-.1A1.36,1.36,0,0,0,2.3,1.88.11.11,0,0,0,2.4,2Z"/><path class="cls-1" d="M4.07.7a.12.12,0,0,0-.14.08A.11.11,0,0,0,4,.92a1.33,1.33,0,0,1,.6.36.11.11,0,0,0,.16,0,.11.11,0,0,0,0-.15A1.5,1.5,0,0,0,4.07.7Z"/><path class="cls-1" d="M3.16,1.56a.1.1,0,0,0,0-.16A.12.12,0,0,0,3,1.4H3a1,1,0,0,0-.26.67,3.84,3.84,0,0,1-.08.76.11.11,0,1,0,.21.05h0A3.72,3.72,0,0,0,3,2.08.75.75,0,0,1,3.16,1.56Z"/><path class="cls-1" d="M4.51,2.63a.1.1,0,0,0,.1.11h0a.1.1,0,0,0,.11-.1c0-.1,0-.2,0-.3V2.11a1,1,0,0,0-1-1,1,1,0,0,0-.24,0,.11.11,0,0,0-.08.14.11.11,0,0,0,.13.08h0l.19,0a.81.81,0,0,1,.8.8v.23C4.52,2.43,4.51,2.53,4.51,2.63Z"/><path class="cls-1" d="M2.69,3.15a.11.11,0,0,0-.14.07,3.66,3.66,0,0,1-.9,1.47.11.11,0,0,0,.16.16h0a4,4,0,0,0,1-1.56A.12.12,0,0,0,2.69,3.15Z"/><path class="cls-1" d="M3.84,5.14a.11.11,0,0,0-.16,0h0A4.75,4.75,0,0,1,3,6a.12.12,0,0,0,0,.16.11.11,0,0,0,.16,0h0a5.61,5.61,0,0,0,.72-.89.11.11,0,0,0,0-.15Z"/><path class="cls-1" d="M4,4.94a.11.11,0,0,0,.15-.05,5.1,5.1,0,0,0,.57-1.7.11.11,0,0,0-.09-.13.12.12,0,0,0-.13.09h0a5.22,5.22,0,0,1-.54,1.63A.11.11,0,0,0,4,4.94Z"/><path class="cls-1" d="M3.73,4.34a.1.1,0,0,0-.14,0,5,5,0,0,1-.93,1.3.11.11,0,0,0,0,.16.12.12,0,0,0,.16,0h0a5.12,5.12,0,0,0,1-1.37A.11.11,0,0,0,3.73,4.34Z"/><path class="cls-1" d="M3.84,4.09A.11.11,0,0,0,4,4H4a5,5,0,0,0,.31-1.71.1.1,0,0,0-.11-.11h0a.11.11,0,0,0-.11.11A4.57,4.57,0,0,1,3.77,4,.11.11,0,0,0,3.84,4.09Z"/><path class="cls-1" d="M2.75,4.2a.11.11,0,0,0,.15,0h0A4.39,4.39,0,0,0,3.34,2.9a.11.11,0,0,0-.09-.13.1.1,0,0,0-.13.08h0a4.2,4.2,0,0,1-.41,1.19.11.11,0,0,0,0,.15Z"/><path class="cls-1" d="M2.62,4.43a.11.11,0,0,0-.16,0A4.22,4.22,0,0,1,2,5a.1.1,0,0,0,0,.16.1.1,0,0,0,.15,0h0a3.56,3.56,0,0,0,.49-.6.1.1,0,0,0,0-.15Z"/><path class="cls-1" d="M3.39,2.44c0-.1,0-.2,0-.3V2.09a.34.34,0,0,1,.34-.33A.35.35,0,0,1,4,1.9a.12.12,0,0,0,.15,0,.11.11,0,0,0,0-.16.55.55,0,0,0-.77-.11.53.53,0,0,0-.23.44v.05a2.53,2.53,0,0,1,0,.28.12.12,0,0,0,.11.12h0A.11.11,0,0,0,3.39,2.44Z"/><path class="cls-1" d="M3.61,3.29h0a.12.12,0,0,0,.11-.09,4.79,4.79,0,0,0,.11-1V2.09a.11.11,0,0,0-.22,0v.12a4.33,4.33,0,0,1-.11,1A.11.11,0,0,0,3.61,3.29Z"/><path class="cls-1" d="M3.54,3.54a.11.11,0,0,0-.14.07h0A4.48,4.48,0,0,1,2.32,5.36a.11.11,0,0,0,0,.15.11.11,0,0,0,.16,0h0A4.7,4.7,0,0,0,3.61,3.68.11.11,0,0,0,3.54,3.54Z"/><path class="cls-1" d="M.17,1.09A.11.11,0,0,0,.29,1V.31H1A.11.11,0,0,0,1.07.2.11.11,0,0,0,1,.09H.17A.11.11,0,0,0,.06.2V1A.11.11,0,0,0,.17,1.09Z"/><path class="cls-1" d="M6.86.09H6.08a.11.11,0,1,0,0,.22h.66V1a.11.11,0,0,0,.12.11A.11.11,0,0,0,7,1V.2A.11.11,0,0,0,6.86.09Z"/><path class="cls-1" d="M1,6.77H.29V6.1A.11.11,0,0,0,.17,6a.11.11,0,0,0-.11.11v.78A.11.11,0,0,0,.17,7H1a.11.11,0,1,0,0-.22Z"/><path class="cls-1" d="M6.86,6a.11.11,0,0,0-.12.11v.67H6.08a.11.11,0,0,0,0,.22h.78A.11.11,0,0,0,7,6.88V6.1A.11.11,0,0,0,6.86,6Z"/></g></svg>