<svg id="Layer_1" data-name="Layer 1" xmlns="http://www.w3.org/2000/svg" viewBox="0 0 7.25 4.72"><defs><style>.cls-1{fill:#6d6c80;}</style></defs><g id="Layer_1-2" data-name="Layer_1"><g id="_267725264" data-name=" 267725264"><path id="_267725312" data-name=" 267725312" class="cls-1" d="M.55.2H4.24a.38.38,0,0,1,.38.38V3.5a.39.39,0,0,1-.11.27.37.37,0,0,1-.27.11H2a.75.75,0,0,0-.09-.29H4.24l.07,0a.11.11,0,0,0,0-.07V.58a.09.09,0,0,0,0-.07.09.09,0,0,0-.07,0H.55a.09.09,0,0,0-.07,0,.09.09,0,0,0,0,.07V3.5a.11.11,0,0,0,0,.07l.07,0H.8a.63.63,0,0,0-.1.29H.55a.35.35,0,0,1-.27-.11A.4.4,0,0,1,.16,3.5V.58A.38.38,0,0,1,.28.31.35.35,0,0,1,.55.2Z"/><path id="_267725192" data-name=" 267725192" class="cls-1" d="M4.48,2.27H6.63a.4.4,0,0,1,.3.13.39.39,0,0,1,.13.29v.77a.43.43,0,0,1-.43.42H6.21a.75.75,0,0,0-.09-.29h.51a.13.13,0,0,0,.1,0,.13.13,0,0,0,0-.09V2.69a.15.15,0,0,0,0-.09.18.18,0,0,0-.1,0H4.48V2.27Zm.46,1.61H4V3.59H5A.75.75,0,0,0,4.94,3.88Z"/><path id="_267725144" data-name=" 267725144" class="cls-1" d="M4.48,1.05a.15.15,0,0,0-.14.15.14.14,0,0,0,.14.14h1l.72,1.1a.16.16,0,0,0,.2,0,.14.14,0,0,0,0-.2L5.64,1.13a.14.14,0,0,0-.13-.08Z"/><path id="_267725552" data-name=" 267725552" class="cls-1" d="M5.58,3.29a.63.63,0,0,1,.63.64.62.62,0,0,1-.63.63.63.63,0,0,1-.64-.63.65.65,0,0,1,.64-.64Zm.24.39a.35.35,0,0,0-.24-.1.34.34,0,0,0-.35.35.35.35,0,0,0,.1.24.33.33,0,0,0,.25.11.38.38,0,0,0,.35-.35.33.33,0,0,0-.11-.25Z"/><path id="_267725240" data-name=" 267725240" class="cls-1" d="M1.34,3.29A.63.63,0,0,1,2,3.93a.67.67,0,0,1-.18.45.67.67,0,0,1-.45.18A.63.63,0,0,1,.7,3.93a.6.6,0,0,1,.19-.45.6.6,0,0,1,.45-.19Zm.24.39a.35.35,0,0,0-.24-.1A.34.34,0,0,0,1,3.93a.35.35,0,0,0,.1.24.33.33,0,0,0,.25.11.32.32,0,0,0,.24-.11.32.32,0,0,0,.11-.24A.33.33,0,0,0,1.58,3.68Z"/><path id="_267725432" data-name=" 267725432" class="cls-1" d="M6.91,3a.15.15,0,0,0,.15-.14.15.15,0,0,0-.15-.15H6.27a.15.15,0,0,0-.14.15A.14.14,0,0,0,6.27,3Z"/></g></g></svg>