<svg id="Layer_1" data-name="Layer 1" xmlns="http://www.w3.org/2000/svg" viewBox="0 0 7.02 7.04"><defs><style>.cls-1{fill:#6d6c80;}</style></defs><path class="cls-1" d="M5.09,5.12H4.52A.15.15,0,0,1,4.37,5V4.4a.15.15,0,0,1,.15-.14h.57a.15.15,0,0,1,.15.14V5A.15.15,0,0,1,5.09,5.12Zm-.43-.29H5V4.54H4.66Z"/><path class="cls-1" d="M6.24,5.12H5.67A.15.15,0,0,1,5.52,5V4.4a.15.15,0,0,1,.15-.14h.57a.14.14,0,0,1,.14.14V5A.15.15,0,0,1,6.24,5.12Zm-.43-.29H6.1V4.54H5.81Z"/><path class="cls-1" d="M3.94,6.27H3.37a.15.15,0,0,1-.15-.15V5.55a.15.15,0,0,1,.15-.15h.57a.15.15,0,0,1,.15.15v.57A.15.15,0,0,1,3.94,6.27ZM3.51,6H3.8V5.69H3.51Z"/><path class="cls-1" d="M5.09,6.27H4.52a.15.15,0,0,1-.15-.15V5.55a.15.15,0,0,1,.15-.15h.57a.15.15,0,0,1,.15.15v.57A.15.15,0,0,1,5.09,6.27ZM4.66,6H5V5.69H4.66Z"/><path class="cls-1" d="M6.24,6.27H5.67a.15.15,0,0,1-.15-.15V5.55a.15.15,0,0,1,.15-.15h.57a.15.15,0,0,1,.14.15v.57A.15.15,0,0,1,6.24,6.27ZM5.81,6H6.1V5.69H5.81Z"/><path class="cls-1" d="M6.24,7H3.37a.73.73,0,0,1-.72-.72V3.11a.72.72,0,0,1,.72-.72H6.24A.72.72,0,0,1,7,3.11V6.27A.73.73,0,0,1,6.24,7ZM3.37,2.67a.44.44,0,0,0-.43.44V6.27a.43.43,0,0,0,.43.43H6.24a.43.43,0,0,0,.43-.43V3.11a.44.44,0,0,0-.43-.44Z"/><path class="cls-1" d="M3.94,5.12H3.37A.15.15,0,0,1,3.22,5V4.4a.15.15,0,0,1,.15-.14h.57a.15.15,0,0,1,.15.14V5A.15.15,0,0,1,3.94,5.12Zm-.43-.29H3.8V4.54H3.51Z"/><rect class="cls-1" x="2.79" y="3.54" width="3.59" height="0.29"/><rect class="cls-1" x="3.22" y="2.96" width="0.29" height="0.29"/><rect class="cls-1" x="3.8" y="2.96" width="0.86" height="0.29"/><path class="cls-1" d="M2.51,7h-2a.44.44,0,0,1-.43-.44V1.38a.18.18,0,0,1,0-.1L1.25.13a.15.15,0,0,1,.11,0H5.09a.43.43,0,0,1,.43.43V2.1H5.24V.52A.15.15,0,0,0,5.09.38H1.42L.35,1.44V6.55a.15.15,0,0,0,.14.15h2Z"/><path class="cls-1" d="M1.36,1.53H.21V1.24h1v-1H1.5V1.38A.15.15,0,0,1,1.36,1.53Z"/><path class="cls-1" d="M2.36,3.82H1.21a.43.43,0,0,1-.43-.43V2.24a.43.43,0,0,1,.43-.43H5V2.1H1.21a.14.14,0,0,0-.14.14V3.39a.15.15,0,0,0,.14.15H2.36Z"/><rect class="cls-1" x="0.92" y="2.67" width="1.44" height="0.29"/><rect class="cls-1" x="1.64" y="1.96" width="0.29" height="1.72"/><rect class="cls-1" x="0.78" y="4.26" width="1.58" height="0.29"/><rect class="cls-1" x="0.78" y="4.97" width="1.58" height="0.29"/><rect class="cls-1" x="0.78" y="5.69" width="1.58" height="0.29"/></svg>