<?xml version="1.0" encoding="utf-8"?>
<!-- Generator: Adobe Illustrator 24.3.0, SVG Export Plug-In . SVG Version: 6.00 Build 0)  -->
<svg version="1.1"
	 id="svg15" xmlns:cc="http://creativecommons.org/ns#" xmlns:dc="http://purl.org/dc/elements/1.1/" xmlns:rdf="http://www.w3.org/1999/02/22-rdf-syntax-ns#" xmlns:svg="http://www.w3.org/2000/svg"
	 xmlns="http://www.w3.org/2000/svg" xmlns:xlink="http://www.w3.org/1999/xlink" x="0px" y="0px" viewBox="0 0 7.6 11.9"
	 style="enable-background:new 0 0 7.6 11.9;" xml:space="preserve">
<style type="text/css">
	.st0{fill:#222A33;}
</style>
<g id="path5">
	<path class="st0" d="M5.1,0.9H2.7c0,0-0.1,0-0.1-0.1c0,0,0-0.1,0.1-0.1h2.4C5.2,0.8,5.2,0.8,5.1,0.9C5.2,0.8,5.2,0.9,5.1,0.9z"/>
</g>
<g>
	<g id="path3">
		<path class="st0" d="M6.5,11.8H1.1c-0.3,0-0.5-0.1-0.7-0.3c-0.2-0.2-0.3-0.4-0.3-0.7V1.1c0-0.3,0.1-0.5,0.3-0.7
			c0.2-0.2,0.4-0.3,0.7-0.3h5.3c0.3,0,0.5,0.1,0.7,0.3c0.2,0.2,0.3,0.4,0.3,0.7v9.7c0,0.3-0.1,0.5-0.3,0.7C7,11.7,6.7,11.8,6.5,11.8
			z M1.1,0.2c-0.2,0-0.5,0.1-0.6,0.3C0.3,0.6,0.2,0.9,0.2,1.1v9.7c0,0.2,0.1,0.5,0.3,0.6c0.2,0.2,0.4,0.3,0.6,0.3h5.3
			c0.2,0,0.5-0.1,0.6-0.3c0.2-0.2,0.3-0.4,0.3-0.6V1.1c0-0.2-0.1-0.5-0.3-0.6C6.9,0.3,6.7,0.2,6.5,0.2H1.1z"/>
	</g>
	<path d="M5.5,4.8C5.1,4.4,4.5,4.2,4,4.2c-1.2,0-2.2,1-2.2,2.2c0,0.4,0.1,0.8,0.3,1.1L1.8,8.6l1.2-0.3c0.3,0.2,0.7,0.3,1,0.3h0
		c1.2,0,2.2-1,2.2-2.2C6.2,5.8,5.9,5.3,5.5,4.8L5.5,4.8z M4,8.2C3.6,8.2,3.3,8.1,3,8L3,7.9L2.3,8.1l0.2-0.7l0-0.1
		c-0.2-0.3-0.3-0.6-0.3-1c0-1,0.8-1.8,1.8-1.8c0.5,0,0.9,0.2,1.3,0.5c0.3,0.3,0.5,0.8,0.5,1.3C5.8,7.4,5,8.2,4,8.2 M5,6.8
		c-0.1,0-0.3-0.2-0.4-0.2c-0.1,0-0.1,0-0.1,0c0,0.1-0.1,0.2-0.2,0.2c0,0-0.1,0-0.1,0c-0.1,0-0.2-0.1-0.4-0.3
		C3.6,6.5,3.5,6.3,3.4,6.3c0-0.1,0-0.1,0-0.1c0,0,0.1-0.1,0.1-0.1c0,0,0-0.1,0.1-0.1c0,0,0-0.1,0-0.1c0,0-0.1-0.3-0.2-0.4
		c0-0.1-0.1-0.1-0.1-0.1c0,0-0.1,0-0.1,0c-0.1,0-0.1,0-0.1,0.1C3,5.5,2.8,5.6,2.8,5.9S3,6.4,3.1,6.5c0,0,0.4,0.6,0.9,0.8
		c0.1,0.1,0.2,0.1,0.3,0.1c0.1,0,0.2,0,0.3,0C4.8,7.4,5,7.3,5,7.2c0-0.1,0-0.2,0-0.3C5.1,6.9,5,6.9,5,6.8"/>
</g>
</svg>
