<svg id="Layer_1" data-name="Layer 1" xmlns="http://www.w3.org/2000/svg" viewBox="0 0 1000 1000"><defs><style>.cls-1{fill:#b2b2b2;}</style></defs><circle class="cls-1" cx="498.98" cy="45.66" r="0.21"/><path class="cls-1" d="M499,82.21a1.1,1.1,0,1,1,1.1-1.1A1.1,1.1,0,0,1,499,82.21Z"/><path class="cls-1" d="M499,118.55a2,2,0,1,1,2-2A2,2,0,0,1,499,118.55Z"/><path class="cls-1" d="M499,118.55a2,2,0,1,1,2-2A2,2,0,0,1,499,118.55Z"/><path class="cls-1" d="M499,118.55a2,2,0,1,1,2-2A2,2,0,0,1,499,118.55Z"/><circle class="cls-1" cx="498.98" cy="152" r="2.89"/><circle class="cls-1" cx="498.98" cy="152" r="2.89"/><circle class="cls-1" cx="498.98" cy="152" r="2.89"/><path class="cls-1" d="M499,191.22a3.78,3.78,0,1,1,3.78-3.78A3.79,3.79,0,0,1,499,191.22Z"/><path class="cls-1" d="M499,191.22a3.78,3.78,0,1,1,3.78-3.78A3.79,3.79,0,0,1,499,191.22Z"/><path class="cls-1" d="M499,191.22a3.78,3.78,0,1,1,3.78-3.78A3.79,3.79,0,0,1,499,191.22Z"/><circle class="cls-1" cx="498.98" cy="222.89" r="4.67"/><circle class="cls-1" cx="498.98" cy="222.89" r="4.67"/><circle class="cls-1" cx="498.98" cy="222.89" r="4.67"/><path class="cls-1" d="M499,263.9a5.57,5.57,0,1,1,5.56-5.57A5.57,5.57,0,0,1,499,263.9Z"/><path class="cls-1" d="M499,263.9a5.57,5.57,0,1,1,5.56-5.57A5.57,5.57,0,0,1,499,263.9Z"/><path class="cls-1" d="M499,263.9a5.57,5.57,0,1,1,5.56-5.57A5.57,5.57,0,0,1,499,263.9Z"/><path class="cls-1" d="M499,300.24a6.46,6.46,0,1,1,6.46-6.46A6.47,6.47,0,0,1,499,300.24Z"/><path class="cls-1" d="M499,300.24a6.46,6.46,0,1,1,6.46-6.46A6.47,6.47,0,0,1,499,300.24Z"/><path class="cls-1" d="M499,300.24a6.46,6.46,0,1,1,6.46-6.46A6.47,6.47,0,0,1,499,300.24Z"/><path class="cls-1" d="M499,336.58a7.36,7.36,0,1,1,7.35-7.35A7.35,7.35,0,0,1,499,336.58Z"/><path class="cls-1" d="M499,336.58a7.36,7.36,0,1,1,7.35-7.35A7.35,7.35,0,0,1,499,336.58Z"/><path class="cls-1" d="M499,336.58a7.36,7.36,0,1,1,7.35-7.35A7.35,7.35,0,0,1,499,336.58Z"/><path class="cls-1" d="M499,372.92a8.25,8.25,0,1,1,8.24-8.25A8.25,8.25,0,0,1,499,372.92Z"/><path class="cls-1" d="M499,372.92a8.25,8.25,0,1,1,8.24-8.25A8.25,8.25,0,0,1,499,372.92Z"/><path class="cls-1" d="M499,372.92a8.25,8.25,0,1,1,8.24-8.25A8.25,8.25,0,0,1,499,372.92Z"/><circle class="cls-1" cx="498.98" cy="400.12" r="9.14"/><path class="cls-1" d="M420.1,53a.21.21,0,0,1-.21-.21.2.2,0,0,1,.21-.2.2.2,0,0,1,.2.2A.2.2,0,0,1,420.1,53Z"/><path class="cls-1" d="M426.25,88.75a1.1,1.1,0,1,1,1.1-1.1A1.1,1.1,0,0,1,426.25,88.75Z"/><path class="cls-1" d="M432.41,124.55a2,2,0,1,1,2-2A2,2,0,0,1,432.41,124.55Z"/><path class="cls-1" d="M432.41,124.55a2,2,0,1,1,2-2A2,2,0,0,1,432.41,124.55Z"/><path class="cls-1" d="M432.41,124.55a2,2,0,1,1,2-2A2,2,0,0,1,432.41,124.55Z"/><circle class="cls-1" cx="438.56" cy="157.46" r="2.89"/><circle class="cls-1" cx="438.56" cy="157.46" r="2.89"/><circle class="cls-1" cx="438.56" cy="157.46" r="2.89"/><path class="cls-1" d="M444.72,196.15a3.78,3.78,0,1,1,3.78-3.78A3.78,3.78,0,0,1,444.72,196.15Z"/><path class="cls-1" d="M444.72,196.15a3.78,3.78,0,1,1,3.78-3.78A3.78,3.78,0,0,1,444.72,196.15Z"/><path class="cls-1" d="M444.72,196.15a3.78,3.78,0,1,1,3.78-3.78A3.78,3.78,0,0,1,444.72,196.15Z"/><path class="cls-1" d="M450.87,232a4.68,4.68,0,1,1,4.68-4.67A4.67,4.67,0,0,1,450.87,232Z"/><path class="cls-1" d="M450.87,232a4.68,4.68,0,1,1,4.68-4.67A4.67,4.67,0,0,1,450.87,232Z"/><path class="cls-1" d="M450.87,232a4.68,4.68,0,1,1,4.68-4.67A4.67,4.67,0,0,1,450.87,232Z"/><path class="cls-1" d="M457,267.75a5.57,5.57,0,1,1,5.56-5.57A5.57,5.57,0,0,1,457,267.75Z"/><path class="cls-1" d="M457,267.75a5.57,5.57,0,1,1,5.56-5.57A5.57,5.57,0,0,1,457,267.75Z"/><path class="cls-1" d="M457,267.75a5.57,5.57,0,1,1,5.56-5.57A5.57,5.57,0,0,1,457,267.75Z"/><path class="cls-1" d="M463.18,303.55a6.46,6.46,0,1,1,6.46-6.46A6.46,6.46,0,0,1,463.18,303.55Z"/><path class="cls-1" d="M463.18,303.55a6.46,6.46,0,1,1,6.46-6.46A6.46,6.46,0,0,1,463.18,303.55Z"/><path class="cls-1" d="M463.18,303.55a6.46,6.46,0,1,1,6.46-6.46A6.46,6.46,0,0,1,463.18,303.55Z"/><path class="cls-1" d="M469.34,339.35a7.36,7.36,0,1,1,7.35-7.35A7.35,7.35,0,0,1,469.34,339.35Z"/><path class="cls-1" d="M469.34,339.35a7.36,7.36,0,1,1,7.35-7.35A7.35,7.35,0,0,1,469.34,339.35Z"/><path class="cls-1" d="M469.34,339.35a7.36,7.36,0,1,1,7.35-7.35A7.35,7.35,0,0,1,469.34,339.35Z"/><path class="cls-1" d="M475.49,375.15a8.25,8.25,0,1,1,8.25-8.24A8.25,8.25,0,0,1,475.49,375.15Z"/><path class="cls-1" d="M475.49,375.15a8.25,8.25,0,1,1,8.25-8.24A8.25,8.25,0,0,1,475.49,375.15Z"/><path class="cls-1" d="M475.49,375.15a8.25,8.25,0,1,1,8.25-8.24A8.25,8.25,0,0,1,475.49,375.15Z"/><circle class="cls-1" cx="481.65" cy="401.81" r="9.14"/><path class="cls-1" d="M343.64,73.62a.2.2,0,0,1-.2-.21.2.2,0,0,1,.2-.2.2.2,0,0,1,.21.2A.21.21,0,0,1,343.64,73.62Z"/><path class="cls-1" d="M355.77,107.82a1.1,1.1,0,1,1,1.1-1.1A1.1,1.1,0,0,1,355.77,107.82Z"/><path class="cls-1" d="M367.89,142a2,2,0,1,1,2-2A2,2,0,0,1,367.89,142Z"/><path class="cls-1" d="M367.89,142a2,2,0,1,1,2-2A2,2,0,0,1,367.89,142Z"/><path class="cls-1" d="M367.89,142a2,2,0,1,1,2-2A2,2,0,0,1,367.89,142Z"/><circle class="cls-1" cx="380.01" cy="173.34" r="2.89"/><circle class="cls-1" cx="380.01" cy="173.34" r="2.89"/><circle class="cls-1" cx="380.01" cy="173.34" r="2.89"/><path class="cls-1" d="M392.14,210.42a3.78,3.78,0,1,1,3.78-3.78A3.78,3.78,0,0,1,392.14,210.42Z"/><path class="cls-1" d="M392.14,210.42a3.78,3.78,0,1,1,3.78-3.78A3.78,3.78,0,0,1,392.14,210.42Z"/><path class="cls-1" d="M392.14,210.42a3.78,3.78,0,1,1,3.78-3.78A3.78,3.78,0,0,1,392.14,210.42Z"/><circle class="cls-1" cx="404.26" cy="239.95" r="4.67"/><circle class="cls-1" cx="404.26" cy="239.95" r="4.67"/><circle class="cls-1" cx="404.26" cy="239.95" r="4.67"/><path class="cls-1" d="M416.38,278.83a5.57,5.57,0,1,1,5.57-5.57A5.58,5.58,0,0,1,416.38,278.83Z"/><path class="cls-1" d="M416.38,278.83a5.57,5.57,0,1,1,5.57-5.57A5.58,5.58,0,0,1,416.38,278.83Z"/><path class="cls-1" d="M416.38,278.83a5.57,5.57,0,1,1,5.57-5.57A5.58,5.58,0,0,1,416.38,278.83Z"/><path class="cls-1" d="M428.51,313a6.46,6.46,0,1,1,6.46-6.46A6.47,6.47,0,0,1,428.51,313Z"/><path class="cls-1" d="M428.51,313a6.46,6.46,0,1,1,6.46-6.46A6.47,6.47,0,0,1,428.51,313Z"/><path class="cls-1" d="M428.51,313a6.46,6.46,0,1,1,6.46-6.46A6.47,6.47,0,0,1,428.51,313Z"/><circle class="cls-1" cx="440.63" cy="339.88" r="7.36"/><circle class="cls-1" cx="440.63" cy="339.88" r="7.36"/><circle class="cls-1" cx="440.63" cy="339.88" r="7.36"/><circle class="cls-1" cx="452.75" cy="373.18" r="8.25"/><circle class="cls-1" cx="452.75" cy="373.18" r="8.25"/><circle class="cls-1" cx="452.75" cy="373.18" r="8.25"/><circle class="cls-1" cx="464.88" cy="406.49" r="9.14"/><path class="cls-1" d="M271.94,107.25a.2.2,0,0,1-.2-.21.2.2,0,0,1,.2-.2.2.2,0,0,1,.21.2A.21.21,0,0,1,271.94,107.25Z"/><circle class="cls-1" cx="289.67" cy="137.74" r="1.1"/><path class="cls-1" d="M307.39,170.43a2,2,0,1,1,2-2A2,2,0,0,1,307.39,170.43Z"/><path class="cls-1" d="M307.39,170.43a2,2,0,1,1,2-2A2,2,0,0,1,307.39,170.43Z"/><path class="cls-1" d="M307.39,170.43a2,2,0,1,1,2-2A2,2,0,0,1,307.39,170.43Z"/><path class="cls-1" d="M325.11,202a2.89,2.89,0,1,1,2.89-2.89A2.89,2.89,0,0,1,325.11,202Z"/><path class="cls-1" d="M325.11,202a2.89,2.89,0,1,1,2.89-2.89A2.89,2.89,0,0,1,325.11,202Z"/><path class="cls-1" d="M325.11,202a2.89,2.89,0,1,1,2.89-2.89A2.89,2.89,0,0,1,325.11,202Z"/><path class="cls-1" d="M342.83,233.61a3.78,3.78,0,1,1,3.79-3.78A3.78,3.78,0,0,1,342.83,233.61Z"/><path class="cls-1" d="M342.83,233.61a3.78,3.78,0,1,1,3.79-3.78A3.78,3.78,0,0,1,342.83,233.61Z"/><path class="cls-1" d="M342.83,233.61a3.78,3.78,0,1,1,3.79-3.78A3.78,3.78,0,0,1,342.83,233.61Z"/><circle class="cls-1" cx="360.56" cy="260.53" r="4.67"/><circle class="cls-1" cx="360.56" cy="260.53" r="4.67"/><circle class="cls-1" cx="360.56" cy="260.53" r="4.67"/><path class="cls-1" d="M378.28,296.79a5.57,5.57,0,1,1,5.57-5.57A5.57,5.57,0,0,1,378.28,296.79Z"/><path class="cls-1" d="M378.28,296.79a5.57,5.57,0,1,1,5.57-5.57A5.57,5.57,0,0,1,378.28,296.79Z"/><path class="cls-1" d="M378.28,296.79a5.57,5.57,0,1,1,5.57-5.57A5.57,5.57,0,0,1,378.28,296.79Z"/><path class="cls-1" d="M396,328.38a6.46,6.46,0,1,1,6.46-6.46A6.46,6.46,0,0,1,396,328.38Z"/><path class="cls-1" d="M396,328.38a6.46,6.46,0,1,1,6.46-6.46A6.46,6.46,0,0,1,396,328.38Z"/><path class="cls-1" d="M396,328.38a6.46,6.46,0,1,1,6.46-6.46A6.46,6.46,0,0,1,396,328.38Z"/><path class="cls-1" d="M413.73,360a7.36,7.36,0,1,1,7.35-7.35A7.35,7.35,0,0,1,413.73,360Z"/><path class="cls-1" d="M413.73,360a7.36,7.36,0,1,1,7.35-7.35A7.35,7.35,0,0,1,413.73,360Z"/><path class="cls-1" d="M413.73,360a7.36,7.36,0,1,1,7.35-7.35A7.35,7.35,0,0,1,413.73,360Z"/><path class="cls-1" d="M431.45,391.56a8.25,8.25,0,1,1,8.25-8.25A8.25,8.25,0,0,1,431.45,391.56Z"/><path class="cls-1" d="M431.45,391.56a8.25,8.25,0,1,1,8.25-8.25A8.25,8.25,0,0,1,431.45,391.56Z"/><path class="cls-1" d="M431.45,391.56a8.25,8.25,0,1,1,8.25-8.25A8.25,8.25,0,0,1,431.45,391.56Z"/><circle class="cls-1" cx="449.17" cy="414.01" r="9.14"/><circle class="cls-1" cx="207.17" cy="152.61" r="0.21"/><circle class="cls-1" cx="229.96" cy="179.77" r="1.1"/><path class="cls-1" d="M252.74,208.91a2,2,0,1,1,2-2A2,2,0,0,1,252.74,208.91Z"/><path class="cls-1" d="M252.74,208.91a2,2,0,1,1,2-2A2,2,0,0,1,252.74,208.91Z"/><path class="cls-1" d="M252.74,208.91a2,2,0,1,1,2-2A2,2,0,0,1,252.74,208.91Z"/><circle class="cls-1" cx="275.52" cy="234.07" r="2.89"/><circle class="cls-1" cx="275.52" cy="234.07" r="2.89"/><circle class="cls-1" cx="275.52" cy="234.07" r="2.89"/><circle class="cls-1" cx="298.31" cy="261.23" r="3.78"/><circle class="cls-1" cx="298.31" cy="261.23" r="3.78"/><circle class="cls-1" cx="298.31" cy="261.23" r="3.78"/><circle class="cls-1" cx="321.09" cy="288.38" r="4.67"/><circle class="cls-1" cx="321.09" cy="288.38" r="4.67"/><circle class="cls-1" cx="321.09" cy="288.38" r="4.67"/><path class="cls-1" d="M343.88,321.1a5.57,5.57,0,1,1,5.56-5.57A5.57,5.57,0,0,1,343.88,321.1Z"/><path class="cls-1" d="M343.88,321.1a5.57,5.57,0,1,1,5.56-5.57A5.57,5.57,0,0,1,343.88,321.1Z"/><path class="cls-1" d="M343.88,321.1a5.57,5.57,0,1,1,5.56-5.57A5.57,5.57,0,0,1,343.88,321.1Z"/><path class="cls-1" d="M366.66,349.15a6.47,6.47,0,1,1,6.46-6.46A6.46,6.46,0,0,1,366.66,349.15Z"/><path class="cls-1" d="M366.66,349.15a6.47,6.47,0,1,1,6.46-6.46A6.46,6.46,0,0,1,366.66,349.15Z"/><path class="cls-1" d="M366.66,349.15a6.47,6.47,0,1,1,6.46-6.46A6.46,6.46,0,0,1,366.66,349.15Z"/><circle class="cls-1" cx="389.44" cy="369.84" r="7.36"/><circle class="cls-1" cx="389.44" cy="369.84" r="7.36"/><circle class="cls-1" cx="389.44" cy="369.84" r="7.36"/><path class="cls-1" d="M412.23,405.24a8.25,8.25,0,1,1,8.25-8.25A8.25,8.25,0,0,1,412.23,405.24Z"/><path class="cls-1" d="M412.23,405.24a8.25,8.25,0,1,1,8.25-8.25A8.25,8.25,0,0,1,412.23,405.24Z"/><path class="cls-1" d="M412.23,405.24a8.25,8.25,0,1,1,8.25-8.25A8.25,8.25,0,0,1,412.23,405.24Z"/><circle class="cls-1" cx="435.01" cy="424.14" r="9.14"/><path class="cls-1" d="M151.3,209a.21.21,0,0,1-.21-.21.2.2,0,0,1,.21-.2.2.2,0,0,1,.2.2A.2.2,0,0,1,151.3,209Z"/><circle class="cls-1" cx="178.45" cy="231.53" r="1.1"/><path class="cls-1" d="M205.6,256.3a2,2,0,1,1,2-2A2,2,0,0,1,205.6,256.3Z"/><path class="cls-1" d="M205.6,256.3a2,2,0,1,1,2-2A2,2,0,0,1,205.6,256.3Z"/><path class="cls-1" d="M205.6,256.3a2,2,0,1,1,2-2A2,2,0,0,1,205.6,256.3Z"/><circle class="cls-1" cx="232.76" cy="277.09" r="2.89"/><circle class="cls-1" cx="232.76" cy="277.09" r="2.89"/><circle class="cls-1" cx="232.76" cy="277.09" r="2.89"/><path class="cls-1" d="M259.91,303.66a3.78,3.78,0,1,1,3.78-3.78A3.78,3.78,0,0,1,259.91,303.66Z"/><path class="cls-1" d="M259.91,303.66a3.78,3.78,0,1,1,3.78-3.78A3.78,3.78,0,0,1,259.91,303.66Z"/><path class="cls-1" d="M259.91,303.66a3.78,3.78,0,1,1,3.78-3.78A3.78,3.78,0,0,1,259.91,303.66Z"/><path class="cls-1" d="M287.06,327.34a4.68,4.68,0,1,1,4.68-4.68A4.68,4.68,0,0,1,287.06,327.34Z"/><path class="cls-1" d="M287.06,327.34a4.68,4.68,0,1,1,4.68-4.68A4.68,4.68,0,0,1,287.06,327.34Z"/><path class="cls-1" d="M287.06,327.34a4.68,4.68,0,1,1,4.68-4.68A4.68,4.68,0,0,1,287.06,327.34Z"/><path class="cls-1" d="M314.22,351a5.57,5.57,0,1,1,5.56-5.56A5.56,5.56,0,0,1,314.22,351Z"/><path class="cls-1" d="M314.22,351a5.57,5.57,0,1,1,5.56-5.56A5.56,5.56,0,0,1,314.22,351Z"/><path class="cls-1" d="M314.22,351a5.57,5.57,0,1,1,5.56-5.56A5.56,5.56,0,0,1,314.22,351Z"/><path class="cls-1" d="M341.37,374.69a6.46,6.46,0,1,1,6.46-6.46A6.46,6.46,0,0,1,341.37,374.69Z"/><path class="cls-1" d="M341.37,374.69a6.46,6.46,0,1,1,6.46-6.46A6.46,6.46,0,0,1,341.37,374.69Z"/><path class="cls-1" d="M341.37,374.69a6.46,6.46,0,1,1,6.46-6.46A6.46,6.46,0,0,1,341.37,374.69Z"/><path class="cls-1" d="M368.52,398.37a7.36,7.36,0,1,1,7.36-7.36A7.35,7.35,0,0,1,368.52,398.37Z"/><path class="cls-1" d="M368.52,398.37a7.36,7.36,0,1,1,7.36-7.36A7.35,7.35,0,0,1,368.52,398.37Z"/><path class="cls-1" d="M368.52,398.37a7.36,7.36,0,1,1,7.36-7.36A7.35,7.35,0,0,1,368.52,398.37Z"/><path class="cls-1" d="M395.67,422.05a8.25,8.25,0,1,1,8.25-8.25A8.26,8.26,0,0,1,395.67,422.05Z"/><path class="cls-1" d="M395.67,422.05a8.25,8.25,0,1,1,8.25-8.25A8.26,8.26,0,0,1,395.67,422.05Z"/><path class="cls-1" d="M395.67,422.05a8.25,8.25,0,1,1,8.25-8.25A8.26,8.26,0,0,1,395.67,422.05Z"/><circle class="cls-1" cx="422.83" cy="436.58" r="9.14"/><path class="cls-1" d="M106,273.92a.21.21,0,1,1,.21-.2A.21.21,0,0,1,106,273.92Z"/><path class="cls-1" d="M136.72,292.54a1.1,1.1,0,1,1,1.1-1.1A1.1,1.1,0,0,1,136.72,292.54Z"/><path class="cls-1" d="M167.41,311.16a2,2,0,1,1,2-2A2,2,0,0,1,167.41,311.16Z"/><path class="cls-1" d="M167.41,311.16a2,2,0,1,1,2-2A2,2,0,0,1,167.41,311.16Z"/><path class="cls-1" d="M167.41,311.16a2,2,0,1,1,2-2A2,2,0,0,1,167.41,311.16Z"/><circle class="cls-1" cx="198.11" cy="326.89" r="2.89"/><circle class="cls-1" cx="198.11" cy="326.89" r="2.89"/><circle class="cls-1" cx="198.11" cy="326.89" r="2.89"/><path class="cls-1" d="M228.81,348.39a3.78,3.78,0,1,1,3.78-3.78A3.78,3.78,0,0,1,228.81,348.39Z"/><path class="cls-1" d="M228.81,348.39a3.78,3.78,0,1,1,3.78-3.78A3.78,3.78,0,0,1,228.81,348.39Z"/><path class="cls-1" d="M228.81,348.39a3.78,3.78,0,1,1,3.78-3.78A3.78,3.78,0,0,1,228.81,348.39Z"/><circle class="cls-1" cx="259.5" cy="362.33" r="4.67"/><circle class="cls-1" cx="259.5" cy="362.33" r="4.67"/><circle class="cls-1" cx="259.5" cy="362.33" r="4.67"/><path class="cls-1" d="M290.2,385.62a5.57,5.57,0,1,1,5.57-5.57A5.57,5.57,0,0,1,290.2,385.62Z"/><path class="cls-1" d="M290.2,385.62a5.57,5.57,0,1,1,5.57-5.57A5.57,5.57,0,0,1,290.2,385.62Z"/><path class="cls-1" d="M290.2,385.62a5.57,5.57,0,1,1,5.57-5.57A5.57,5.57,0,0,1,290.2,385.62Z"/><circle class="cls-1" cx="320.9" cy="397.78" r="6.46"/><circle class="cls-1" cx="320.9" cy="397.78" r="6.46"/><circle class="cls-1" cx="320.9" cy="397.78" r="6.46"/><path class="cls-1" d="M351.59,422.86A7.36,7.36,0,1,1,359,415.5,7.36,7.36,0,0,1,351.59,422.86Z"/><path class="cls-1" d="M351.59,422.86A7.36,7.36,0,1,1,359,415.5,7.36,7.36,0,0,1,351.59,422.86Z"/><path class="cls-1" d="M351.59,422.86A7.36,7.36,0,1,1,359,415.5,7.36,7.36,0,0,1,351.59,422.86Z"/><path class="cls-1" d="M382.29,441.47a8.25,8.25,0,1,1,8.25-8.25A8.25,8.25,0,0,1,382.29,441.47Z"/><path class="cls-1" d="M382.29,441.47a8.25,8.25,0,1,1,8.25-8.25A8.25,8.25,0,0,1,382.29,441.47Z"/><path class="cls-1" d="M382.29,441.47a8.25,8.25,0,1,1,8.25-8.25A8.25,8.25,0,0,1,382.29,441.47Z"/><circle class="cls-1" cx="412.99" cy="450.95" r="9.14"/><circle class="cls-1" cx="72.71" cy="345.57" r="0.21"/><path class="cls-1" d="M106,358.79a1.1,1.1,0,1,1,1.1-1.1A1.1,1.1,0,0,1,106,358.79Z"/><path class="cls-1" d="M139.33,371.81a2,2,0,1,1,2-2A2,2,0,0,1,139.33,371.81Z"/><path class="cls-1" d="M139.33,371.81a2,2,0,1,1,2-2A2,2,0,0,1,139.33,371.81Z"/><path class="cls-1" d="M139.33,371.81a2,2,0,1,1,2-2A2,2,0,0,1,139.33,371.81Z"/><circle class="cls-1" cx="172.63" cy="381.94" r="2.89"/><circle class="cls-1" cx="172.63" cy="381.94" r="2.89"/><circle class="cls-1" cx="172.63" cy="381.94" r="2.89"/><path class="cls-1" d="M205.94,397.84a3.78,3.78,0,1,1,3.78-3.78A3.78,3.78,0,0,1,205.94,397.84Z"/><path class="cls-1" d="M205.94,397.84a3.78,3.78,0,1,1,3.78-3.78A3.78,3.78,0,0,1,205.94,397.84Z"/><path class="cls-1" d="M205.94,397.84a3.78,3.78,0,1,1,3.78-3.78A3.78,3.78,0,0,1,205.94,397.84Z"/><circle class="cls-1" cx="239.25" cy="406.19" r="4.67"/><circle class="cls-1" cx="239.25" cy="406.19" r="4.67"/><circle class="cls-1" cx="239.25" cy="406.19" r="4.67"/><path class="cls-1" d="M272.56,423.88a5.57,5.57,0,1,1,5.57-5.57A5.57,5.57,0,0,1,272.56,423.88Z"/><path class="cls-1" d="M272.56,423.88a5.57,5.57,0,1,1,5.57-5.57A5.57,5.57,0,0,1,272.56,423.88Z"/><path class="cls-1" d="M272.56,423.88a5.57,5.57,0,1,1,5.57-5.57A5.57,5.57,0,0,1,272.56,423.88Z"/><path class="cls-1" d="M305.87,436.89a6.46,6.46,0,1,1,6.46-6.46A6.47,6.47,0,0,1,305.87,436.89Z"/><path class="cls-1" d="M305.87,436.89a6.46,6.46,0,1,1,6.46-6.46A6.47,6.47,0,0,1,305.87,436.89Z"/><path class="cls-1" d="M305.87,436.89a6.46,6.46,0,1,1,6.46-6.46A6.47,6.47,0,0,1,305.87,436.89Z"/><path class="cls-1" d="M339.17,449.91a7.36,7.36,0,1,1,7.36-7.36A7.35,7.35,0,0,1,339.17,449.91Z"/><path class="cls-1" d="M339.17,449.91a7.36,7.36,0,1,1,7.36-7.36A7.35,7.35,0,0,1,339.17,449.91Z"/><path class="cls-1" d="M339.17,449.91a7.36,7.36,0,1,1,7.36-7.36A7.35,7.35,0,0,1,339.17,449.91Z"/><path class="cls-1" d="M372.48,462.93a8.25,8.25,0,1,1,8.25-8.25A8.26,8.26,0,0,1,372.48,462.93Z"/><path class="cls-1" d="M372.48,462.93a8.25,8.25,0,1,1,8.25-8.25A8.26,8.26,0,0,1,372.48,462.93Z"/><path class="cls-1" d="M372.48,462.93a8.25,8.25,0,1,1,8.25-8.25A8.26,8.26,0,0,1,372.48,462.93Z"/><circle class="cls-1" cx="405.79" cy="466.8" r="9.14"/><circle class="cls-1" cx="52.39" cy="422.11" r="0.21"/><circle class="cls-1" cx="87.29" cy="428.27" r="1.1"/><path class="cls-1" d="M122.2,436.42a2,2,0,1,1,2-2A2,2,0,0,1,122.2,436.42Z"/><path class="cls-1" d="M122.2,436.42a2,2,0,1,1,2-2A2,2,0,0,1,122.2,436.42Z"/><path class="cls-1" d="M122.2,436.42a2,2,0,1,1,2-2A2,2,0,0,1,122.2,436.42Z"/><circle class="cls-1" cx="157.11" cy="440.58" r="2.89"/><circle class="cls-1" cx="157.11" cy="440.58" r="2.89"/><circle class="cls-1" cx="157.11" cy="440.58" r="2.89"/><path class="cls-1" d="M192,450.52a3.79,3.79,0,1,1,3.79-3.79A3.79,3.79,0,0,1,192,450.52Z"/><path class="cls-1" d="M192,450.52a3.79,3.79,0,1,1,3.79-3.79A3.79,3.79,0,0,1,192,450.52Z"/><path class="cls-1" d="M192,450.52a3.79,3.79,0,1,1,3.79-3.79A3.79,3.79,0,0,1,192,450.52Z"/><path class="cls-1" d="M226.92,457.56a4.68,4.68,0,1,1,4.68-4.67A4.67,4.67,0,0,1,226.92,457.56Z"/><path class="cls-1" d="M226.92,457.56a4.68,4.68,0,1,1,4.68-4.67A4.67,4.67,0,0,1,226.92,457.56Z"/><path class="cls-1" d="M226.92,457.56a4.68,4.68,0,1,1,4.68-4.67A4.67,4.67,0,0,1,226.92,457.56Z"/><path class="cls-1" d="M261.83,464.61A5.57,5.57,0,1,1,267.4,459,5.57,5.57,0,0,1,261.83,464.61Z"/><path class="cls-1" d="M261.83,464.61A5.57,5.57,0,1,1,267.4,459,5.57,5.57,0,0,1,261.83,464.61Z"/><path class="cls-1" d="M261.83,464.61A5.57,5.57,0,1,1,267.4,459,5.57,5.57,0,0,1,261.83,464.61Z"/><path class="cls-1" d="M296.74,471.66a6.46,6.46,0,1,1,6.46-6.46A6.47,6.47,0,0,1,296.74,471.66Z"/><path class="cls-1" d="M296.74,471.66a6.46,6.46,0,1,1,6.46-6.46A6.47,6.47,0,0,1,296.74,471.66Z"/><path class="cls-1" d="M296.74,471.66a6.46,6.46,0,1,1,6.46-6.46A6.47,6.47,0,0,1,296.74,471.66Z"/><path class="cls-1" d="M331.64,478.71a7.36,7.36,0,1,1,7.36-7.36A7.35,7.35,0,0,1,331.64,478.71Z"/><path class="cls-1" d="M331.64,478.71a7.36,7.36,0,1,1,7.36-7.36A7.35,7.35,0,0,1,331.64,478.71Z"/><path class="cls-1" d="M331.64,478.71a7.36,7.36,0,1,1,7.36-7.36A7.35,7.35,0,0,1,331.64,478.71Z"/><path class="cls-1" d="M366.55,485.76a8.25,8.25,0,1,1,8.25-8.25A8.25,8.25,0,0,1,366.55,485.76Z"/><path class="cls-1" d="M366.55,485.76a8.25,8.25,0,1,1,8.25-8.25A8.25,8.25,0,0,1,366.55,485.76Z"/><path class="cls-1" d="M366.55,485.76a8.25,8.25,0,1,1,8.25-8.25A8.25,8.25,0,0,1,366.55,485.76Z"/><circle class="cls-1" cx="401.46" cy="483.66" r="9.14"/><path class="cls-1" d="M45.66,501.23a.2.2,0,0,1-.2-.21.2.2,0,0,1,.2-.2.2.2,0,0,1,.21.2A.21.21,0,0,1,45.66,501.23Z"/><path class="cls-1" d="M81.11,502.12a1.1,1.1,0,0,1,0-2.2,1.1,1.1,0,1,1,0,2.2Z"/><path class="cls-1" d="M116.55,503a2,2,0,1,1,2-2A2,2,0,0,1,116.55,503Z"/><path class="cls-1" d="M116.55,503a2,2,0,1,1,2-2A2,2,0,0,1,116.55,503Z"/><path class="cls-1" d="M116.55,503a2,2,0,1,1,2-2A2,2,0,0,1,116.55,503Z"/><circle class="cls-1" cx="152" cy="501.02" r="2.89"/><circle class="cls-1" cx="152" cy="501.02" r="2.89"/><circle class="cls-1" cx="152" cy="501.02" r="2.89"/><path class="cls-1" d="M187.44,504.81a3.79,3.79,0,1,1,3.78-3.79A3.79,3.79,0,0,1,187.44,504.81Z"/><path class="cls-1" d="M187.44,504.81a3.79,3.79,0,1,1,3.78-3.79A3.79,3.79,0,0,1,187.44,504.81Z"/><path class="cls-1" d="M187.44,504.81a3.79,3.79,0,1,1,3.78-3.79A3.79,3.79,0,0,1,187.44,504.81Z"/><path class="cls-1" d="M222.89,505.7a4.68,4.68,0,1,1,4.67-4.68A4.68,4.68,0,0,1,222.89,505.7Z"/><path class="cls-1" d="M222.89,505.7a4.68,4.68,0,1,1,4.67-4.68A4.68,4.68,0,0,1,222.89,505.7Z"/><path class="cls-1" d="M222.89,505.7a4.68,4.68,0,1,1,4.67-4.68A4.68,4.68,0,0,1,222.89,505.7Z"/><path class="cls-1" d="M258.33,506.59A5.57,5.57,0,1,1,263.9,501,5.56,5.56,0,0,1,258.33,506.59Z"/><path class="cls-1" d="M258.33,506.59A5.57,5.57,0,1,1,263.9,501,5.56,5.56,0,0,1,258.33,506.59Z"/><path class="cls-1" d="M258.33,506.59A5.57,5.57,0,1,1,263.9,501,5.56,5.56,0,0,1,258.33,506.59Z"/><path class="cls-1" d="M293.78,507.49a6.47,6.47,0,1,1,6.46-6.47A6.47,6.47,0,0,1,293.78,507.49Z"/><path class="cls-1" d="M293.78,507.49a6.47,6.47,0,1,1,6.46-6.47A6.47,6.47,0,0,1,293.78,507.49Z"/><path class="cls-1" d="M293.78,507.49a6.47,6.47,0,1,1,6.46-6.47A6.47,6.47,0,0,1,293.78,507.49Z"/><path class="cls-1" d="M329.23,508.38a7.36,7.36,0,1,1,7.35-7.36A7.35,7.35,0,0,1,329.23,508.38Z"/><path class="cls-1" d="M329.23,508.38a7.36,7.36,0,1,1,7.35-7.36A7.35,7.35,0,0,1,329.23,508.38Z"/><path class="cls-1" d="M329.23,508.38a7.36,7.36,0,1,1,7.35-7.36A7.35,7.35,0,0,1,329.23,508.38Z"/><path class="cls-1" d="M364.67,509.27a8.25,8.25,0,1,1,8.25-8.25A8.25,8.25,0,0,1,364.67,509.27Z"/><path class="cls-1" d="M364.67,509.27a8.25,8.25,0,1,1,8.25-8.25A8.25,8.25,0,0,1,364.67,509.27Z"/><path class="cls-1" d="M364.67,509.27a8.25,8.25,0,1,1,8.25-8.25A8.25,8.25,0,0,1,364.67,509.27Z"/><circle class="cls-1" cx="400.12" cy="501.02" r="9.14"/><circle class="cls-1" cx="52.74" cy="579.9" r="0.21"/><circle class="cls-1" cx="87.65" cy="573.75" r="1.1"/><path class="cls-1" d="M122.56,569.59a2,2,0,1,1,2-2A2,2,0,0,1,122.56,569.59Z"/><path class="cls-1" d="M122.56,569.59a2,2,0,1,1,2-2A2,2,0,0,1,122.56,569.59Z"/><path class="cls-1" d="M122.56,569.59a2,2,0,1,1,2-2A2,2,0,0,1,122.56,569.59Z"/><circle class="cls-1" cx="157.46" cy="561.44" r="2.89"/><circle class="cls-1" cx="157.46" cy="561.44" r="2.89"/><circle class="cls-1" cx="157.46" cy="561.44" r="2.89"/><path class="cls-1" d="M192.37,559.06a3.78,3.78,0,1,1,3.78-3.78A3.78,3.78,0,0,1,192.37,559.06Z"/><path class="cls-1" d="M192.37,559.06a3.78,3.78,0,1,1,3.78-3.78A3.78,3.78,0,0,1,192.37,559.06Z"/><path class="cls-1" d="M192.37,559.06a3.78,3.78,0,1,1,3.78-3.78A3.78,3.78,0,0,1,192.37,559.06Z"/><path class="cls-1" d="M227.28,553.8a4.68,4.68,0,1,1,4.67-4.67A4.68,4.68,0,0,1,227.28,553.8Z"/><path class="cls-1" d="M227.28,553.8a4.68,4.68,0,1,1,4.67-4.67A4.68,4.68,0,0,1,227.28,553.8Z"/><path class="cls-1" d="M227.28,553.8a4.68,4.68,0,1,1,4.67-4.67A4.68,4.68,0,0,1,227.28,553.8Z"/><path class="cls-1" d="M262.18,548.54a5.57,5.57,0,1,1,5.57-5.57A5.56,5.56,0,0,1,262.18,548.54Z"/><path class="cls-1" d="M262.18,548.54a5.57,5.57,0,1,1,5.57-5.57A5.56,5.56,0,0,1,262.18,548.54Z"/><path class="cls-1" d="M262.18,548.54a5.57,5.57,0,1,1,5.57-5.57A5.56,5.56,0,0,1,262.18,548.54Z"/><path class="cls-1" d="M297.09,543.28a6.46,6.46,0,1,1,6.46-6.46A6.46,6.46,0,0,1,297.09,543.28Z"/><path class="cls-1" d="M297.09,543.28a6.46,6.46,0,1,1,6.46-6.46A6.46,6.46,0,0,1,297.09,543.28Z"/><path class="cls-1" d="M297.09,543.28a6.46,6.46,0,1,1,6.46-6.46A6.46,6.46,0,0,1,297.09,543.28Z"/><path class="cls-1" d="M332,538a7.36,7.36,0,1,1,7.35-7.36A7.36,7.36,0,0,1,332,538Z"/><path class="cls-1" d="M332,538a7.36,7.36,0,1,1,7.35-7.36A7.36,7.36,0,0,1,332,538Z"/><path class="cls-1" d="M332,538a7.36,7.36,0,1,1,7.35-7.36A7.36,7.36,0,0,1,332,538Z"/><path class="cls-1" d="M366.91,532.76a8.25,8.25,0,1,1,8.24-8.25A8.25,8.25,0,0,1,366.91,532.76Z"/><path class="cls-1" d="M366.91,532.76a8.25,8.25,0,1,1,8.24-8.25A8.25,8.25,0,0,1,366.91,532.76Z"/><path class="cls-1" d="M366.91,532.76a8.25,8.25,0,1,1,8.24-8.25A8.25,8.25,0,0,1,366.91,532.76Z"/><circle class="cls-1" cx="401.81" cy="518.35" r="9.14"/><path class="cls-1" d="M73.41,656.56a.2.2,0,0,1-.2-.2.2.2,0,0,1,.2-.21.21.21,0,0,1,.21.21A.2.2,0,0,1,73.41,656.56Z"/><circle class="cls-1" cx="106.72" cy="644.23" r="1.1"/><path class="cls-1" d="M140,634.1a2,2,0,1,1,2-2A2,2,0,0,1,140,634.1Z"/><path class="cls-1" d="M140,634.1a2,2,0,1,1,2-2A2,2,0,0,1,140,634.1Z"/><path class="cls-1" d="M140,634.1a2,2,0,1,1,2-2A2,2,0,0,1,140,634.1Z"/><circle class="cls-1" cx="173.34" cy="619.99" r="2.89"/><circle class="cls-1" cx="173.34" cy="619.99" r="2.89"/><circle class="cls-1" cx="173.34" cy="619.99" r="2.89"/><path class="cls-1" d="M206.64,611.64a3.78,3.78,0,1,1,3.78-3.78A3.78,3.78,0,0,1,206.64,611.64Z"/><path class="cls-1" d="M206.64,611.64a3.78,3.78,0,1,1,3.78-3.78A3.78,3.78,0,0,1,206.64,611.64Z"/><path class="cls-1" d="M206.64,611.64a3.78,3.78,0,1,1,3.78-3.78A3.78,3.78,0,0,1,206.64,611.64Z"/><circle class="cls-1" cx="239.95" cy="595.74" r="4.67"/><circle class="cls-1" cx="239.95" cy="595.74" r="4.67"/><circle class="cls-1" cx="239.95" cy="595.74" r="4.67"/><path class="cls-1" d="M273.26,589.19a5.57,5.57,0,1,1,5.57-5.57A5.57,5.57,0,0,1,273.26,589.19Z"/><path class="cls-1" d="M273.26,589.19a5.57,5.57,0,1,1,5.57-5.57A5.57,5.57,0,0,1,273.26,589.19Z"/><path class="cls-1" d="M273.26,589.19a5.57,5.57,0,1,1,5.57-5.57A5.57,5.57,0,0,1,273.26,589.19Z"/><path class="cls-1" d="M306.57,578a6.47,6.47,0,1,1,6.46-6.47A6.47,6.47,0,0,1,306.57,578Z"/><path class="cls-1" d="M306.57,578a6.47,6.47,0,1,1,6.46-6.47A6.47,6.47,0,0,1,306.57,578Z"/><path class="cls-1" d="M306.57,578a6.47,6.47,0,1,1,6.46-6.47A6.47,6.47,0,0,1,306.57,578Z"/><circle class="cls-1" cx="339.88" cy="559.37" r="7.36"/><circle class="cls-1" cx="339.88" cy="559.37" r="7.36"/><circle class="cls-1" cx="339.88" cy="559.37" r="7.36"/><path class="cls-1" d="M373.18,555.5a8.25,8.25,0,1,1,8.25-8.25A8.26,8.26,0,0,1,373.18,555.5Z"/><path class="cls-1" d="M373.18,555.5a8.25,8.25,0,1,1,8.25-8.25A8.26,8.26,0,0,1,373.18,555.5Z"/><path class="cls-1" d="M373.18,555.5a8.25,8.25,0,1,1,8.25-8.25A8.26,8.26,0,0,1,373.18,555.5Z"/><circle class="cls-1" cx="406.49" cy="535.12" r="9.14"/><path class="cls-1" d="M107,728.26a.2.2,0,0,1-.2-.2.2.2,0,0,1,.2-.21.21.21,0,0,1,.21.21A.2.2,0,0,1,107,728.26Z"/><circle class="cls-1" cx="137.74" cy="710.33" r="1.1"/><path class="cls-1" d="M168.44,694.6a2,2,0,1,1,2-2A2,2,0,0,1,168.44,694.6Z"/><path class="cls-1" d="M168.44,694.6a2,2,0,1,1,2-2A2,2,0,0,1,168.44,694.6Z"/><path class="cls-1" d="M168.44,694.6a2,2,0,1,1,2-2A2,2,0,0,1,168.44,694.6Z"/><circle class="cls-1" cx="199.13" cy="674.89" r="2.89"/><circle class="cls-1" cx="199.13" cy="674.89" r="2.89"/><circle class="cls-1" cx="199.13" cy="674.89" r="2.89"/><path class="cls-1" d="M229.83,661a3.79,3.79,0,1,1,3.78-3.78A3.78,3.78,0,0,1,229.83,661Z"/><path class="cls-1" d="M229.83,661a3.79,3.79,0,1,1,3.78-3.78A3.78,3.78,0,0,1,229.83,661Z"/><path class="cls-1" d="M229.83,661a3.79,3.79,0,1,1,3.78-3.78A3.78,3.78,0,0,1,229.83,661Z"/><circle class="cls-1" cx="260.53" cy="639.44" r="4.67"/><circle class="cls-1" cx="260.53" cy="639.44" r="4.67"/><circle class="cls-1" cx="260.53" cy="639.44" r="4.67"/><path class="cls-1" d="M291.22,627.29a5.57,5.57,0,1,1,5.57-5.57A5.56,5.56,0,0,1,291.22,627.29Z"/><path class="cls-1" d="M291.22,627.29a5.57,5.57,0,1,1,5.57-5.57A5.56,5.56,0,0,1,291.22,627.29Z"/><path class="cls-1" d="M291.22,627.29a5.57,5.57,0,1,1,5.57-5.57A5.56,5.56,0,0,1,291.22,627.29Z"/><path class="cls-1" d="M321.92,610.46a6.46,6.46,0,1,1,6.46-6.46A6.46,6.46,0,0,1,321.92,610.46Z"/><path class="cls-1" d="M321.92,610.46a6.46,6.46,0,1,1,6.46-6.46A6.46,6.46,0,0,1,321.92,610.46Z"/><path class="cls-1" d="M321.92,610.46a6.46,6.46,0,1,1,6.46-6.46A6.46,6.46,0,0,1,321.92,610.46Z"/><circle class="cls-1" cx="352.62" cy="586.27" r="7.36"/><circle class="cls-1" cx="352.62" cy="586.27" r="7.36"/><circle class="cls-1" cx="352.62" cy="586.27" r="7.36"/><path class="cls-1" d="M383.31,576.8a8.25,8.25,0,1,1,8.25-8.25A8.24,8.24,0,0,1,383.31,576.8Z"/><path class="cls-1" d="M383.31,576.8a8.25,8.25,0,1,1,8.25-8.25A8.24,8.24,0,0,1,383.31,576.8Z"/><path class="cls-1" d="M383.31,576.8a8.25,8.25,0,1,1,8.25-8.25A8.24,8.24,0,0,1,383.31,576.8Z"/><circle class="cls-1" cx="414.01" cy="550.83" r="9.14"/><path class="cls-1" d="M152.62,793a.2.2,0,0,1-.21-.2.21.21,0,0,1,.21-.21.2.2,0,0,1,.2.21A.2.2,0,0,1,152.62,793Z"/><path class="cls-1" d="M179.77,771.14a1.1,1.1,0,1,1,1.1-1.1A1.1,1.1,0,0,1,179.77,771.14Z"/><path class="cls-1" d="M206.92,749.25a2,2,0,1,1,2-2A2,2,0,0,1,206.92,749.25Z"/><path class="cls-1" d="M206.92,749.25a2,2,0,1,1,2-2A2,2,0,0,1,206.92,749.25Z"/><path class="cls-1" d="M206.92,749.25a2,2,0,1,1,2-2A2,2,0,0,1,206.92,749.25Z"/><circle class="cls-1" cx="234.07" cy="724.48" r="2.89"/><circle class="cls-1" cx="234.07" cy="724.48" r="2.89"/><circle class="cls-1" cx="234.07" cy="724.48" r="2.89"/><path class="cls-1" d="M261.23,705.47a3.78,3.78,0,1,1,3.78-3.78A3.78,3.78,0,0,1,261.23,705.47Z"/><path class="cls-1" d="M261.23,705.47a3.78,3.78,0,1,1,3.78-3.78A3.78,3.78,0,0,1,261.23,705.47Z"/><path class="cls-1" d="M261.23,705.47a3.78,3.78,0,1,1,3.78-3.78A3.78,3.78,0,0,1,261.23,705.47Z"/><path class="cls-1" d="M288.38,683.58a4.68,4.68,0,1,1,4.67-4.67A4.68,4.68,0,0,1,288.38,683.58Z"/><path class="cls-1" d="M288.38,683.58a4.68,4.68,0,1,1,4.67-4.67A4.68,4.68,0,0,1,288.38,683.58Z"/><path class="cls-1" d="M288.38,683.58a4.68,4.68,0,1,1,4.67-4.67A4.68,4.68,0,0,1,288.38,683.58Z"/><path class="cls-1" d="M315.53,661.69a5.57,5.57,0,1,1,5.57-5.57A5.57,5.57,0,0,1,315.53,661.69Z"/><path class="cls-1" d="M315.53,661.69a5.57,5.57,0,1,1,5.57-5.57A5.57,5.57,0,0,1,315.53,661.69Z"/><path class="cls-1" d="M315.53,661.69a5.57,5.57,0,1,1,5.57-5.57A5.57,5.57,0,0,1,315.53,661.69Z"/><path class="cls-1" d="M342.69,639.8a6.46,6.46,0,1,1,6.46-6.46A6.47,6.47,0,0,1,342.69,639.8Z"/><path class="cls-1" d="M342.69,639.8a6.46,6.46,0,1,1,6.46-6.46A6.47,6.47,0,0,1,342.69,639.8Z"/><path class="cls-1" d="M342.69,639.8a6.46,6.46,0,1,1,6.46-6.46A6.47,6.47,0,0,1,342.69,639.8Z"/><circle class="cls-1" cx="369.84" cy="610.56" r="7.36"/><circle class="cls-1" cx="369.84" cy="610.56" r="7.36"/><circle class="cls-1" cx="369.84" cy="610.56" r="7.36"/><path class="cls-1" d="M397,596a8.25,8.25,0,1,1,8.25-8.25A8.25,8.25,0,0,1,397,596Z"/><path class="cls-1" d="M397,596a8.25,8.25,0,1,1,8.25-8.25A8.25,8.25,0,0,1,397,596Z"/><path class="cls-1" d="M397,596a8.25,8.25,0,1,1,8.25-8.25A8.25,8.25,0,0,1,397,596Z"/><circle class="cls-1" cx="424.14" cy="564.99" r="9.14"/><path class="cls-1" d="M208.74,848.91a.2.2,0,0,1-.2-.21.2.2,0,0,1,.2-.2.2.2,0,0,1,.21.2A.21.21,0,0,1,208.74,848.91Z"/><path class="cls-1" d="M231.53,822.65a1.1,1.1,0,1,1,1.1-1.1A1.1,1.1,0,0,1,231.53,822.65Z"/><path class="cls-1" d="M254.31,796.39a2,2,0,1,1,2-2A2,2,0,0,1,254.31,796.39Z"/><path class="cls-1" d="M254.31,796.39a2,2,0,1,1,2-2A2,2,0,0,1,254.31,796.39Z"/><path class="cls-1" d="M254.31,796.39a2,2,0,1,1,2-2A2,2,0,0,1,254.31,796.39Z"/><circle class="cls-1" cx="277.09" cy="767.24" r="2.89"/><circle class="cls-1" cx="277.09" cy="767.24" r="2.89"/><circle class="cls-1" cx="277.09" cy="767.24" r="2.89"/><path class="cls-1" d="M299.88,743.87a3.78,3.78,0,1,1,3.78-3.78A3.78,3.78,0,0,1,299.88,743.87Z"/><path class="cls-1" d="M299.88,743.87a3.78,3.78,0,1,1,3.78-3.78A3.78,3.78,0,0,1,299.88,743.87Z"/><path class="cls-1" d="M299.88,743.87a3.78,3.78,0,1,1,3.78-3.78A3.78,3.78,0,0,1,299.88,743.87Z"/><path class="cls-1" d="M322.66,717.61a4.68,4.68,0,1,1,4.68-4.67A4.67,4.67,0,0,1,322.66,717.61Z"/><path class="cls-1" d="M322.66,717.61a4.68,4.68,0,1,1,4.68-4.67A4.67,4.67,0,0,1,322.66,717.61Z"/><path class="cls-1" d="M322.66,717.61a4.68,4.68,0,1,1,4.68-4.67A4.67,4.67,0,0,1,322.66,717.61Z"/><circle class="cls-1" cx="345.45" cy="685.78" r="5.57"/><circle class="cls-1" cx="345.45" cy="685.78" r="5.57"/><circle class="cls-1" cx="345.45" cy="685.78" r="5.57"/><circle class="cls-1" cx="368.23" cy="658.63" r="6.46"/><circle class="cls-1" cx="368.23" cy="658.63" r="6.46"/><circle class="cls-1" cx="368.23" cy="658.63" r="6.46"/><path class="cls-1" d="M391,638.83a7.36,7.36,0,1,1,7.36-7.35A7.35,7.35,0,0,1,391,638.83Z"/><path class="cls-1" d="M391,638.83a7.36,7.36,0,1,1,7.36-7.35A7.35,7.35,0,0,1,391,638.83Z"/><path class="cls-1" d="M391,638.83a7.36,7.36,0,1,1,7.36-7.35A7.35,7.35,0,0,1,391,638.83Z"/><path class="cls-1" d="M413.8,612.58a8.25,8.25,0,1,1,8.25-8.25A8.25,8.25,0,0,1,413.8,612.58Z"/><path class="cls-1" d="M413.8,612.58a8.25,8.25,0,1,1,8.25-8.25A8.25,8.25,0,0,1,413.8,612.58Z"/><path class="cls-1" d="M413.8,612.58a8.25,8.25,0,1,1,8.25-8.25A8.25,8.25,0,0,1,413.8,612.58Z"/><circle class="cls-1" cx="436.58" cy="577.17" r="9.14"/><circle class="cls-1" cx="273.72" cy="893.98" r="0.21"/><path class="cls-1" d="M291.44,864.38a1.1,1.1,0,1,1,1.1-1.1A1.1,1.1,0,0,1,291.44,864.38Z"/><path class="cls-1" d="M309.16,834.58a2,2,0,1,1,2-2A2,2,0,0,1,309.16,834.58Z"/><path class="cls-1" d="M309.16,834.58a2,2,0,1,1,2-2A2,2,0,0,1,309.16,834.58Z"/><path class="cls-1" d="M309.16,834.58a2,2,0,1,1,2-2A2,2,0,0,1,309.16,834.58Z"/><circle class="cls-1" cx="326.89" cy="801.89" r="2.89"/><circle class="cls-1" cx="326.89" cy="801.89" r="2.89"/><circle class="cls-1" cx="326.89" cy="801.89" r="2.89"/><path class="cls-1" d="M344.61,775a3.78,3.78,0,1,1,3.78-3.78A3.78,3.78,0,0,1,344.61,775Z"/><path class="cls-1" d="M344.61,775a3.78,3.78,0,1,1,3.78-3.78A3.78,3.78,0,0,1,344.61,775Z"/><path class="cls-1" d="M344.61,775a3.78,3.78,0,1,1,3.78-3.78A3.78,3.78,0,0,1,344.61,775Z"/><circle class="cls-1" cx="362.33" cy="740.5" r="4.67"/><circle class="cls-1" cx="362.33" cy="740.5" r="4.67"/><circle class="cls-1" cx="362.33" cy="740.5" r="4.67"/><path class="cls-1" d="M380.05,715.37a5.57,5.57,0,1,1,5.57-5.57A5.56,5.56,0,0,1,380.05,715.37Z"/><path class="cls-1" d="M380.05,715.37a5.57,5.57,0,1,1,5.57-5.57A5.56,5.56,0,0,1,380.05,715.37Z"/><path class="cls-1" d="M380.05,715.37a5.57,5.57,0,1,1,5.57-5.57A5.56,5.56,0,0,1,380.05,715.37Z"/><circle class="cls-1" cx="397.78" cy="679.1" r="6.46"/><circle class="cls-1" cx="397.78" cy="679.1" r="6.46"/><circle class="cls-1" cx="397.78" cy="679.1" r="6.46"/><circle class="cls-1" cx="415.5" cy="648.41" r="7.36"/><circle class="cls-1" cx="415.5" cy="648.41" r="7.36"/><circle class="cls-1" cx="415.5" cy="648.41" r="7.36"/><path class="cls-1" d="M433.22,626a8.25,8.25,0,1,1,8.25-8.25A8.25,8.25,0,0,1,433.22,626Z"/><path class="cls-1" d="M433.22,626a8.25,8.25,0,1,1,8.25-8.25A8.25,8.25,0,0,1,433.22,626Z"/><path class="cls-1" d="M433.22,626a8.25,8.25,0,1,1,8.25-8.25A8.25,8.25,0,0,1,433.22,626Z"/><circle class="cls-1" cx="450.95" cy="587.01" r="9.14"/><circle class="cls-1" cx="345.57" cy="927.29" r="0.21"/><circle class="cls-1" cx="357.69" cy="893.98" r="1.1"/><path class="cls-1" d="M369.82,862.67a2,2,0,1,1,2-2A2,2,0,0,1,369.82,862.67Z"/><path class="cls-1" d="M369.82,862.67a2,2,0,1,1,2-2A2,2,0,0,1,369.82,862.67Z"/><path class="cls-1" d="M369.82,862.67a2,2,0,1,1,2-2A2,2,0,0,1,369.82,862.67Z"/><circle class="cls-1" cx="381.94" cy="827.37" r="2.89"/><circle class="cls-1" cx="381.94" cy="827.37" r="2.89"/><circle class="cls-1" cx="381.94" cy="827.37" r="2.89"/><path class="cls-1" d="M394.06,797.84a3.78,3.78,0,1,1,3.78-3.78A3.78,3.78,0,0,1,394.06,797.84Z"/><path class="cls-1" d="M394.06,797.84a3.78,3.78,0,1,1,3.78-3.78A3.78,3.78,0,0,1,394.06,797.84Z"/><path class="cls-1" d="M394.06,797.84a3.78,3.78,0,1,1,3.78-3.78A3.78,3.78,0,0,1,394.06,797.84Z"/><circle class="cls-1" cx="406.19" cy="760.75" r="4.67"/><circle class="cls-1" cx="406.19" cy="760.75" r="4.67"/><circle class="cls-1" cx="406.19" cy="760.75" r="4.67"/><path class="cls-1" d="M418.31,733a5.57,5.57,0,1,1,5.57-5.57A5.57,5.57,0,0,1,418.31,733Z"/><path class="cls-1" d="M418.31,733a5.57,5.57,0,1,1,5.57-5.57A5.57,5.57,0,0,1,418.31,733Z"/><path class="cls-1" d="M418.31,733a5.57,5.57,0,1,1,5.57-5.57A5.57,5.57,0,0,1,418.31,733Z"/><path class="cls-1" d="M430.43,700.6a6.47,6.47,0,1,1,6.46-6.47A6.47,6.47,0,0,1,430.43,700.6Z"/><path class="cls-1" d="M430.43,700.6a6.47,6.47,0,1,1,6.46-6.47A6.47,6.47,0,0,1,430.43,700.6Z"/><path class="cls-1" d="M430.43,700.6a6.47,6.47,0,1,1,6.46-6.47A6.47,6.47,0,0,1,430.43,700.6Z"/><path class="cls-1" d="M442.55,668.18a7.36,7.36,0,1,1,7.36-7.35A7.35,7.35,0,0,1,442.55,668.18Z"/><path class="cls-1" d="M442.55,668.18a7.36,7.36,0,1,1,7.36-7.35A7.35,7.35,0,0,1,442.55,668.18Z"/><path class="cls-1" d="M442.55,668.18a7.36,7.36,0,1,1,7.36-7.35A7.35,7.35,0,0,1,442.55,668.18Z"/><path class="cls-1" d="M454.68,635.77a8.25,8.25,0,1,1,8.25-8.25A8.25,8.25,0,0,1,454.68,635.77Z"/><path class="cls-1" d="M454.68,635.77a8.25,8.25,0,1,1,8.25-8.25A8.25,8.25,0,0,1,454.68,635.77Z"/><path class="cls-1" d="M454.68,635.77a8.25,8.25,0,1,1,8.25-8.25A8.25,8.25,0,0,1,454.68,635.77Z"/><circle class="cls-1" cx="466.8" cy="594.21" r="9.14"/><path class="cls-1" d="M422.11,947.82a.2.2,0,0,1-.2-.21.2.2,0,0,1,.2-.2.2.2,0,0,1,.21.2A.21.21,0,0,1,422.11,947.82Z"/><path class="cls-1" d="M428.27,913.81a1.1,1.1,0,1,1,1.1-1.1A1.1,1.1,0,0,1,428.27,913.81Z"/><path class="cls-1" d="M434.42,879.79a2,2,0,1,1,2-2A2,2,0,0,1,434.42,879.79Z"/><path class="cls-1" d="M434.42,879.79a2,2,0,1,1,2-2A2,2,0,0,1,434.42,879.79Z"/><path class="cls-1" d="M434.42,879.79a2,2,0,1,1,2-2A2,2,0,0,1,434.42,879.79Z"/><circle class="cls-1" cx="440.58" cy="842.89" r="2.89"/><circle class="cls-1" cx="440.58" cy="842.89" r="2.89"/><circle class="cls-1" cx="440.58" cy="842.89" r="2.89"/><path class="cls-1" d="M446.73,811.77a3.79,3.79,0,1,1,3.78-3.78A3.79,3.79,0,0,1,446.73,811.77Z"/><path class="cls-1" d="M446.73,811.77a3.79,3.79,0,1,1,3.78-3.78A3.79,3.79,0,0,1,446.73,811.77Z"/><path class="cls-1" d="M446.73,811.77a3.79,3.79,0,1,1,3.78-3.78A3.79,3.79,0,0,1,446.73,811.77Z"/><path class="cls-1" d="M452.89,777.75a4.68,4.68,0,1,1,4.67-4.67A4.68,4.68,0,0,1,452.89,777.75Z"/><path class="cls-1" d="M452.89,777.75a4.68,4.68,0,1,1,4.67-4.67A4.68,4.68,0,0,1,452.89,777.75Z"/><path class="cls-1" d="M452.89,777.75a4.68,4.68,0,1,1,4.67-4.67A4.68,4.68,0,0,1,452.89,777.75Z"/><path class="cls-1" d="M459,743.74a5.57,5.57,0,1,1,5.57-5.57A5.56,5.56,0,0,1,459,743.74Z"/><path class="cls-1" d="M459,743.74a5.57,5.57,0,1,1,5.57-5.57A5.56,5.56,0,0,1,459,743.74Z"/><path class="cls-1" d="M459,743.74a5.57,5.57,0,1,1,5.57-5.57A5.56,5.56,0,0,1,459,743.74Z"/><path class="cls-1" d="M465.2,709.73a6.47,6.47,0,1,1,6.46-6.47A6.47,6.47,0,0,1,465.2,709.73Z"/><path class="cls-1" d="M465.2,709.73a6.47,6.47,0,1,1,6.46-6.47A6.47,6.47,0,0,1,465.2,709.73Z"/><path class="cls-1" d="M465.2,709.73a6.47,6.47,0,1,1,6.46-6.47A6.47,6.47,0,0,1,465.2,709.73Z"/><circle class="cls-1" cx="471.35" cy="668.36" r="7.36"/><circle class="cls-1" cx="471.35" cy="668.36" r="7.36"/><circle class="cls-1" cx="471.35" cy="668.36" r="7.36"/><path class="cls-1" d="M477.51,641.7a8.25,8.25,0,1,1,8.25-8.25A8.25,8.25,0,0,1,477.51,641.7Z"/><path class="cls-1" d="M477.51,641.7a8.25,8.25,0,1,1,8.25-8.25A8.25,8.25,0,0,1,477.51,641.7Z"/><path class="cls-1" d="M477.51,641.7a8.25,8.25,0,1,1,8.25-8.25A8.25,8.25,0,0,1,477.51,641.7Z"/><circle class="cls-1" cx="483.66" cy="598.54" r="9.14"/><path class="cls-1" d="M501,954.54a.2.2,0,0,1-.2-.2.2.2,0,0,1,.2-.21.21.21,0,0,1,.21.21A.2.2,0,0,1,501,954.54Z"/><path class="cls-1" d="M501,920a1.1,1.1,0,1,1,1.1-1.1A1.1,1.1,0,0,1,501,920Z"/><path class="cls-1" d="M501,885.44a2,2,0,1,1,2-2A2,2,0,0,1,501,885.44Z"/><path class="cls-1" d="M501,885.44a2,2,0,1,1,2-2A2,2,0,0,1,501,885.44Z"/><path class="cls-1" d="M501,885.44a2,2,0,1,1,2-2A2,2,0,0,1,501,885.44Z"/><circle class="cls-1" cx="501.02" cy="848" r="2.89"/><circle class="cls-1" cx="501.02" cy="848" r="2.89"/><circle class="cls-1" cx="501.02" cy="848" r="2.89"/><path class="cls-1" d="M501,816.34a3.78,3.78,0,1,1,3.79-3.78A3.79,3.79,0,0,1,501,816.34Z"/><path class="cls-1" d="M501,816.34a3.78,3.78,0,1,1,3.79-3.78A3.79,3.79,0,0,1,501,816.34Z"/><path class="cls-1" d="M501,816.34a3.78,3.78,0,1,1,3.79-3.78A3.79,3.79,0,0,1,501,816.34Z"/><circle class="cls-1" cx="501.02" cy="777.11" r="4.67"/><circle class="cls-1" cx="501.02" cy="777.11" r="4.67"/><circle class="cls-1" cx="501.02" cy="777.11" r="4.67"/><path class="cls-1" d="M501,747.23a5.57,5.57,0,1,1,5.57-5.56A5.56,5.56,0,0,1,501,747.23Z"/><path class="cls-1" d="M501,747.23a5.57,5.57,0,1,1,5.57-5.56A5.56,5.56,0,0,1,501,747.23Z"/><path class="cls-1" d="M501,747.23a5.57,5.57,0,1,1,5.57-5.56A5.56,5.56,0,0,1,501,747.23Z"/><path class="cls-1" d="M501,712.68a6.46,6.46,0,1,1,6.47-6.46A6.46,6.46,0,0,1,501,712.68Z"/><path class="cls-1" d="M501,712.68a6.46,6.46,0,1,1,6.47-6.46A6.46,6.46,0,0,1,501,712.68Z"/><path class="cls-1" d="M501,712.68a6.46,6.46,0,1,1,6.47-6.46A6.46,6.46,0,0,1,501,712.68Z"/><path class="cls-1" d="M501,678.13a7.36,7.36,0,1,1,7.36-7.36A7.35,7.35,0,0,1,501,678.13Z"/><path class="cls-1" d="M501,678.13a7.36,7.36,0,1,1,7.36-7.36A7.35,7.35,0,0,1,501,678.13Z"/><path class="cls-1" d="M501,678.13a7.36,7.36,0,1,1,7.36-7.36A7.35,7.35,0,0,1,501,678.13Z"/><path class="cls-1" d="M501,643.58a8.25,8.25,0,1,1,8.25-8.25A8.25,8.25,0,0,1,501,643.58Z"/><path class="cls-1" d="M501,643.58a8.25,8.25,0,1,1,8.25-8.25A8.25,8.25,0,0,1,501,643.58Z"/><path class="cls-1" d="M501,643.58a8.25,8.25,0,1,1,8.25-8.25A8.25,8.25,0,0,1,501,643.58Z"/><circle class="cls-1" cx="501.02" cy="599.88" r="9.14"/><path class="cls-1" d="M579.9,947.46a.2.2,0,0,1-.2-.2.2.2,0,0,1,.2-.21.21.21,0,0,1,.21.21A.2.2,0,0,1,579.9,947.46Z"/><path class="cls-1" d="M573.75,913.45a1.1,1.1,0,1,1,1.1-1.1A1.1,1.1,0,0,1,573.75,913.45Z"/><path class="cls-1" d="M567.59,879.44a2,2,0,1,1,2-2A2,2,0,0,1,567.59,879.44Z"/><path class="cls-1" d="M567.59,879.44a2,2,0,1,1,2-2A2,2,0,0,1,567.59,879.44Z"/><path class="cls-1" d="M567.59,879.44a2,2,0,1,1,2-2A2,2,0,0,1,567.59,879.44Z"/><path class="cls-1" d="M561.44,845.42a2.89,2.89,0,1,1,2.89-2.88A2.88,2.88,0,0,1,561.44,845.42Z"/><path class="cls-1" d="M561.44,845.42a2.89,2.89,0,1,1,2.89-2.88A2.88,2.88,0,0,1,561.44,845.42Z"/><path class="cls-1" d="M561.44,845.42a2.89,2.89,0,1,1,2.89-2.88A2.88,2.88,0,0,1,561.44,845.42Z"/><path class="cls-1" d="M555.28,811.41a3.78,3.78,0,1,1,3.78-3.78A3.78,3.78,0,0,1,555.28,811.41Z"/><path class="cls-1" d="M555.28,811.41a3.78,3.78,0,1,1,3.78-3.78A3.78,3.78,0,0,1,555.28,811.41Z"/><path class="cls-1" d="M555.28,811.41a3.78,3.78,0,1,1,3.78-3.78A3.78,3.78,0,0,1,555.28,811.41Z"/><path class="cls-1" d="M549.13,777.4a4.68,4.68,0,1,1,4.67-4.68A4.69,4.69,0,0,1,549.13,777.4Z"/><path class="cls-1" d="M549.13,777.4a4.68,4.68,0,1,1,4.67-4.68A4.69,4.69,0,0,1,549.13,777.4Z"/><path class="cls-1" d="M549.13,777.4a4.68,4.68,0,1,1,4.67-4.68A4.69,4.69,0,0,1,549.13,777.4Z"/><path class="cls-1" d="M543,743.38a5.57,5.57,0,1,1,5.57-5.56A5.56,5.56,0,0,1,543,743.38Z"/><path class="cls-1" d="M543,743.38a5.57,5.57,0,1,1,5.57-5.56A5.56,5.56,0,0,1,543,743.38Z"/><path class="cls-1" d="M543,743.38a5.57,5.57,0,1,1,5.57-5.56A5.56,5.56,0,0,1,543,743.38Z"/><path class="cls-1" d="M536.82,709.37a6.46,6.46,0,1,1,6.46-6.46A6.46,6.46,0,0,1,536.82,709.37Z"/><path class="cls-1" d="M536.82,709.37a6.46,6.46,0,1,1,6.46-6.46A6.46,6.46,0,0,1,536.82,709.37Z"/><path class="cls-1" d="M536.82,709.37a6.46,6.46,0,1,1,6.46-6.46A6.46,6.46,0,0,1,536.82,709.37Z"/><path class="cls-1" d="M530.66,675.36A7.36,7.36,0,1,1,538,668,7.36,7.36,0,0,1,530.66,675.36Z"/><path class="cls-1" d="M530.66,675.36A7.36,7.36,0,1,1,538,668,7.36,7.36,0,0,1,530.66,675.36Z"/><path class="cls-1" d="M530.66,675.36A7.36,7.36,0,1,1,538,668,7.36,7.36,0,0,1,530.66,675.36Z"/><path class="cls-1" d="M524.51,641.34a8.25,8.25,0,1,1,8.25-8.25A8.25,8.25,0,0,1,524.51,641.34Z"/><path class="cls-1" d="M524.51,641.34a8.25,8.25,0,1,1,8.25-8.25A8.25,8.25,0,0,1,524.51,641.34Z"/><path class="cls-1" d="M524.51,641.34a8.25,8.25,0,1,1,8.25-8.25A8.25,8.25,0,0,1,524.51,641.34Z"/><circle class="cls-1" cx="518.35" cy="598.19" r="9.14"/><path class="cls-1" d="M656.36,926.79a.2.2,0,0,1-.21-.2.21.21,0,0,1,.21-.21.2.2,0,0,1,.2.21A.2.2,0,0,1,656.36,926.79Z"/><circle class="cls-1" cx="644.23" cy="893.28" r="1.1"/><path class="cls-1" d="M632.11,862a2,2,0,1,1,2-2A2,2,0,0,1,632.11,862Z"/><path class="cls-1" d="M632.11,862a2,2,0,1,1,2-2A2,2,0,0,1,632.11,862Z"/><path class="cls-1" d="M632.11,862a2,2,0,1,1,2-2A2,2,0,0,1,632.11,862Z"/><circle class="cls-1" cx="619.99" cy="826.66" r="2.89"/><circle class="cls-1" cx="619.99" cy="826.66" r="2.89"/><circle class="cls-1" cx="619.99" cy="826.66" r="2.89"/><path class="cls-1" d="M607.86,797.14a3.78,3.78,0,1,1,3.78-3.78A3.79,3.79,0,0,1,607.86,797.14Z"/><path class="cls-1" d="M607.86,797.14a3.78,3.78,0,1,1,3.78-3.78A3.79,3.79,0,0,1,607.86,797.14Z"/><path class="cls-1" d="M607.86,797.14a3.78,3.78,0,1,1,3.78-3.78A3.79,3.79,0,0,1,607.86,797.14Z"/><path class="cls-1" d="M595.74,764.72a4.68,4.68,0,1,1,4.67-4.67A4.67,4.67,0,0,1,595.74,764.72Z"/><path class="cls-1" d="M595.74,764.72a4.68,4.68,0,1,1,4.67-4.67A4.67,4.67,0,0,1,595.74,764.72Z"/><path class="cls-1" d="M595.74,764.72a4.68,4.68,0,1,1,4.67-4.67A4.67,4.67,0,0,1,595.74,764.72Z"/><path class="cls-1" d="M583.62,732.31a5.57,5.57,0,1,1,5.57-5.57A5.57,5.57,0,0,1,583.62,732.31Z"/><path class="cls-1" d="M583.62,732.31a5.57,5.57,0,1,1,5.57-5.57A5.57,5.57,0,0,1,583.62,732.31Z"/><path class="cls-1" d="M583.62,732.31a5.57,5.57,0,1,1,5.57-5.57A5.57,5.57,0,0,1,583.62,732.31Z"/><circle class="cls-1" cx="571.49" cy="693.43" r="6.46"/><circle class="cls-1" cx="571.49" cy="693.43" r="6.46"/><circle class="cls-1" cx="571.49" cy="693.43" r="6.46"/><circle class="cls-1" cx="559.37" cy="660.12" r="7.36"/><circle class="cls-1" cx="559.37" cy="660.12" r="7.36"/><circle class="cls-1" cx="559.37" cy="660.12" r="7.36"/><path class="cls-1" d="M547.25,635.07a8.25,8.25,0,1,1,8.25-8.25A8.25,8.25,0,0,1,547.25,635.07Z"/><path class="cls-1" d="M547.25,635.07a8.25,8.25,0,1,1,8.25-8.25A8.25,8.25,0,0,1,547.25,635.07Z"/><path class="cls-1" d="M547.25,635.07a8.25,8.25,0,1,1,8.25-8.25A8.25,8.25,0,0,1,547.25,635.07Z"/><circle class="cls-1" cx="535.12" cy="593.51" r="9.14"/><path class="cls-1" d="M728.06,893.16a.2.2,0,0,1-.21-.2.21.21,0,0,1,.21-.21.2.2,0,0,1,.2.21A.2.2,0,0,1,728.06,893.16Z"/><path class="cls-1" d="M710.33,863.36a1.1,1.1,0,1,1,1.1-1.1A1.1,1.1,0,0,1,710.33,863.36Z"/><path class="cls-1" d="M692.61,833.56a2,2,0,1,1,2-2A2,2,0,0,1,692.61,833.56Z"/><path class="cls-1" d="M692.61,833.56a2,2,0,1,1,2-2A2,2,0,0,1,692.61,833.56Z"/><path class="cls-1" d="M692.61,833.56a2,2,0,1,1,2-2A2,2,0,0,1,692.61,833.56Z"/><circle class="cls-1" cx="674.89" cy="800.87" r="2.89"/><circle class="cls-1" cx="674.89" cy="800.87" r="2.89"/><circle class="cls-1" cx="674.89" cy="800.87" r="2.89"/><path class="cls-1" d="M657.17,774a3.78,3.78,0,1,1,3.78-3.78A3.79,3.79,0,0,1,657.17,774Z"/><path class="cls-1" d="M657.17,774a3.78,3.78,0,1,1,3.78-3.78A3.79,3.79,0,0,1,657.17,774Z"/><path class="cls-1" d="M657.17,774a3.78,3.78,0,1,1,3.78-3.78A3.79,3.79,0,0,1,657.17,774Z"/><path class="cls-1" d="M639.44,744.15a4.68,4.68,0,1,1,4.68-4.68A4.68,4.68,0,0,1,639.44,744.15Z"/><path class="cls-1" d="M639.44,744.15a4.68,4.68,0,1,1,4.68-4.68A4.68,4.68,0,0,1,639.44,744.15Z"/><path class="cls-1" d="M639.44,744.15a4.68,4.68,0,1,1,4.68-4.68A4.68,4.68,0,0,1,639.44,744.15Z"/><path class="cls-1" d="M621.72,714.34a5.57,5.57,0,1,1,5.57-5.56A5.56,5.56,0,0,1,621.72,714.34Z"/><path class="cls-1" d="M621.72,714.34a5.57,5.57,0,1,1,5.57-5.56A5.56,5.56,0,0,1,621.72,714.34Z"/><path class="cls-1" d="M621.72,714.34a5.57,5.57,0,1,1,5.57-5.56A5.56,5.56,0,0,1,621.72,714.34Z"/><path class="cls-1" d="M604,684.54a6.46,6.46,0,1,1,6.46-6.46A6.46,6.46,0,0,1,604,684.54Z"/><path class="cls-1" d="M604,684.54a6.46,6.46,0,1,1,6.46-6.46A6.46,6.46,0,0,1,604,684.54Z"/><path class="cls-1" d="M604,684.54a6.46,6.46,0,1,1,6.46-6.46A6.46,6.46,0,0,1,604,684.54Z"/><circle class="cls-1" cx="586.27" cy="647.38" r="7.36"/><circle class="cls-1" cx="586.27" cy="647.38" r="7.36"/><circle class="cls-1" cx="586.27" cy="647.38" r="7.36"/><path class="cls-1" d="M568.55,624.93a8.25,8.25,0,1,1,8.25-8.24A8.25,8.25,0,0,1,568.55,624.93Z"/><path class="cls-1" d="M568.55,624.93a8.25,8.25,0,1,1,8.25-8.24A8.25,8.25,0,0,1,568.55,624.93Z"/><path class="cls-1" d="M568.55,624.93a8.25,8.25,0,1,1,8.25-8.24A8.25,8.25,0,0,1,568.55,624.93Z"/><circle class="cls-1" cx="550.83" cy="585.99" r="9.14"/><path class="cls-1" d="M792.83,847.59a.2.2,0,0,1-.21-.2.21.21,0,0,1,.21-.21.2.2,0,0,1,.2.21A.2.2,0,0,1,792.83,847.59Z"/><path class="cls-1" d="M770,821.33a1.1,1.1,0,1,1,1.1-1.1A1.1,1.1,0,0,1,770,821.33Z"/><path class="cls-1" d="M747.26,795.07a2,2,0,1,1,2-2A2,2,0,0,1,747.26,795.07Z"/><path class="cls-1" d="M747.26,795.07a2,2,0,1,1,2-2A2,2,0,0,1,747.26,795.07Z"/><path class="cls-1" d="M747.26,795.07a2,2,0,1,1,2-2A2,2,0,0,1,747.26,795.07Z"/><circle class="cls-1" cx="724.48" cy="765.93" r="2.89"/><circle class="cls-1" cx="724.48" cy="765.93" r="2.89"/><circle class="cls-1" cx="724.48" cy="765.93" r="2.89"/><path class="cls-1" d="M701.69,742.55a3.78,3.78,0,1,1,3.78-3.78A3.78,3.78,0,0,1,701.69,742.55Z"/><path class="cls-1" d="M701.69,742.55a3.78,3.78,0,1,1,3.78-3.78A3.78,3.78,0,0,1,701.69,742.55Z"/><path class="cls-1" d="M701.69,742.55a3.78,3.78,0,1,1,3.78-3.78A3.78,3.78,0,0,1,701.69,742.55Z"/><path class="cls-1" d="M678.91,716.3a4.68,4.68,0,1,1,4.67-4.68A4.69,4.69,0,0,1,678.91,716.3Z"/><path class="cls-1" d="M678.91,716.3a4.68,4.68,0,1,1,4.67-4.68A4.69,4.69,0,0,1,678.91,716.3Z"/><path class="cls-1" d="M678.91,716.3a4.68,4.68,0,1,1,4.67-4.68A4.69,4.69,0,0,1,678.91,716.3Z"/><path class="cls-1" d="M656.12,690a5.57,5.57,0,1,1,5.57-5.57A5.57,5.57,0,0,1,656.12,690Z"/><path class="cls-1" d="M656.12,690a5.57,5.57,0,1,1,5.57-5.57A5.57,5.57,0,0,1,656.12,690Z"/><path class="cls-1" d="M656.12,690a5.57,5.57,0,1,1,5.57-5.57A5.57,5.57,0,0,1,656.12,690Z"/><path class="cls-1" d="M633.34,663.78a6.47,6.47,0,1,1,6.46-6.47A6.47,6.47,0,0,1,633.34,663.78Z"/><path class="cls-1" d="M633.34,663.78a6.47,6.47,0,1,1,6.46-6.47A6.47,6.47,0,0,1,633.34,663.78Z"/><path class="cls-1" d="M633.34,663.78a6.47,6.47,0,1,1,6.46-6.47A6.47,6.47,0,0,1,633.34,663.78Z"/><path class="cls-1" d="M610.56,637.52a7.36,7.36,0,1,1,7.35-7.36A7.36,7.36,0,0,1,610.56,637.52Z"/><path class="cls-1" d="M610.56,637.52a7.36,7.36,0,1,1,7.35-7.36A7.36,7.36,0,0,1,610.56,637.52Z"/><path class="cls-1" d="M610.56,637.52a7.36,7.36,0,1,1,7.35-7.36A7.36,7.36,0,0,1,610.56,637.52Z"/><path class="cls-1" d="M587.77,611.26A8.25,8.25,0,1,1,596,603,8.26,8.26,0,0,1,587.77,611.26Z"/><path class="cls-1" d="M587.77,611.26A8.25,8.25,0,1,1,596,603,8.26,8.26,0,0,1,587.77,611.26Z"/><path class="cls-1" d="M587.77,611.26A8.25,8.25,0,1,1,596,603,8.26,8.26,0,0,1,587.77,611.26Z"/><circle class="cls-1" cx="564.99" cy="575.86" r="9.14"/><circle class="cls-1" cx="848.7" cy="791.26" r="0.21"/><path class="cls-1" d="M821.55,769.57a1.1,1.1,0,1,1,1.1-1.1A1.1,1.1,0,0,1,821.55,769.57Z"/><path class="cls-1" d="M794.4,747.68a2,2,0,1,1,2-2A2,2,0,0,1,794.4,747.68Z"/><path class="cls-1" d="M794.4,747.68a2,2,0,1,1,2-2A2,2,0,0,1,794.4,747.68Z"/><path class="cls-1" d="M794.4,747.68a2,2,0,1,1,2-2A2,2,0,0,1,794.4,747.68Z"/><circle class="cls-1" cx="767.24" cy="722.91" r="2.89"/><circle class="cls-1" cx="767.24" cy="722.91" r="2.89"/><circle class="cls-1" cx="767.24" cy="722.91" r="2.89"/><path class="cls-1" d="M740.09,703.9a3.78,3.78,0,1,1,3.78-3.78A3.78,3.78,0,0,1,740.09,703.9Z"/><path class="cls-1" d="M740.09,703.9a3.78,3.78,0,1,1,3.78-3.78A3.78,3.78,0,0,1,740.09,703.9Z"/><path class="cls-1" d="M740.09,703.9a3.78,3.78,0,1,1,3.78-3.78A3.78,3.78,0,0,1,740.09,703.9Z"/><path class="cls-1" d="M712.94,682a4.68,4.68,0,1,1,4.67-4.67A4.68,4.68,0,0,1,712.94,682Z"/><path class="cls-1" d="M712.94,682a4.68,4.68,0,1,1,4.67-4.67A4.68,4.68,0,0,1,712.94,682Z"/><path class="cls-1" d="M712.94,682a4.68,4.68,0,1,1,4.67-4.67A4.68,4.68,0,0,1,712.94,682Z"/><path class="cls-1" d="M685.78,660.12a5.57,5.57,0,1,1,5.57-5.57A5.56,5.56,0,0,1,685.78,660.12Z"/><path class="cls-1" d="M685.78,660.12a5.57,5.57,0,1,1,5.57-5.57A5.56,5.56,0,0,1,685.78,660.12Z"/><path class="cls-1" d="M685.78,660.12a5.57,5.57,0,1,1,5.57-5.57A5.56,5.56,0,0,1,685.78,660.12Z"/><circle class="cls-1" cx="658.63" cy="631.77" r="6.46"/><circle class="cls-1" cx="658.63" cy="631.77" r="6.46"/><circle class="cls-1" cx="658.63" cy="631.77" r="6.46"/><circle class="cls-1" cx="631.48" cy="608.99" r="7.36"/><circle class="cls-1" cx="631.48" cy="608.99" r="7.36"/><circle class="cls-1" cx="631.48" cy="608.99" r="7.36"/><path class="cls-1" d="M604.33,594.45a8.25,8.25,0,1,1,8.25-8.25A8.25,8.25,0,0,1,604.33,594.45Z"/><path class="cls-1" d="M604.33,594.45a8.25,8.25,0,1,1,8.25-8.25A8.25,8.25,0,0,1,604.33,594.45Z"/><path class="cls-1" d="M604.33,594.45a8.25,8.25,0,1,1,8.25-8.25A8.25,8.25,0,0,1,604.33,594.45Z"/><circle class="cls-1" cx="577.17" cy="563.42" r="9.14"/><path class="cls-1" d="M894,726.49a.21.21,0,1,1,.21-.21A.21.21,0,0,1,894,726.49Z"/><path class="cls-1" d="M863.28,709.66a1.1,1.1,0,1,1,1.1-1.1A1.1,1.1,0,0,1,863.28,709.66Z"/><path class="cls-1" d="M832.59,692.83a2,2,0,1,1,2-2A2,2,0,0,1,832.59,692.83Z"/><path class="cls-1" d="M832.59,692.83a2,2,0,1,1,2-2A2,2,0,0,1,832.59,692.83Z"/><path class="cls-1" d="M832.59,692.83a2,2,0,1,1,2-2A2,2,0,0,1,832.59,692.83Z"/><circle class="cls-1" cx="801.89" cy="673.11" r="2.89"/><circle class="cls-1" cx="801.89" cy="673.11" r="2.89"/><circle class="cls-1" cx="801.89" cy="673.11" r="2.89"/><path class="cls-1" d="M771.19,659.17a3.78,3.78,0,1,1,3.78-3.78A3.78,3.78,0,0,1,771.19,659.17Z"/><path class="cls-1" d="M771.19,659.17a3.78,3.78,0,1,1,3.78-3.78A3.78,3.78,0,0,1,771.19,659.17Z"/><path class="cls-1" d="M771.19,659.17a3.78,3.78,0,1,1,3.78-3.78A3.78,3.78,0,0,1,771.19,659.17Z"/><path class="cls-1" d="M740.5,642.34a4.68,4.68,0,1,1,4.67-4.67A4.68,4.68,0,0,1,740.5,642.34Z"/><path class="cls-1" d="M740.5,642.34a4.68,4.68,0,1,1,4.67-4.67A4.68,4.68,0,0,1,740.5,642.34Z"/><path class="cls-1" d="M740.5,642.34a4.68,4.68,0,1,1,4.67-4.67A4.68,4.68,0,0,1,740.5,642.34Z"/><path class="cls-1" d="M709.8,625.51a5.57,5.57,0,1,1,5.57-5.56A5.57,5.57,0,0,1,709.8,625.51Z"/><path class="cls-1" d="M709.8,625.51a5.57,5.57,0,1,1,5.57-5.56A5.57,5.57,0,0,1,709.8,625.51Z"/><path class="cls-1" d="M709.8,625.51a5.57,5.57,0,1,1,5.57-5.56A5.57,5.57,0,0,1,709.8,625.51Z"/><path class="cls-1" d="M679.1,608.68a6.46,6.46,0,1,1,6.47-6.46A6.46,6.46,0,0,1,679.1,608.68Z"/><path class="cls-1" d="M679.1,608.68a6.46,6.46,0,1,1,6.47-6.46A6.46,6.46,0,0,1,679.1,608.68Z"/><path class="cls-1" d="M679.1,608.68a6.46,6.46,0,1,1,6.47-6.46A6.46,6.46,0,0,1,679.1,608.68Z"/><circle class="cls-1" cx="648.41" cy="584.5" r="7.36"/><circle class="cls-1" cx="648.41" cy="584.5" r="7.36"/><circle class="cls-1" cx="648.41" cy="584.5" r="7.36"/><path class="cls-1" d="M617.71,575a8.25,8.25,0,1,1,8.25-8.25A8.25,8.25,0,0,1,617.71,575Z"/><path class="cls-1" d="M617.71,575a8.25,8.25,0,1,1,8.25-8.25A8.25,8.25,0,0,1,617.71,575Z"/><path class="cls-1" d="M617.71,575a8.25,8.25,0,1,1,8.25-8.25A8.25,8.25,0,0,1,617.71,575Z"/><circle class="cls-1" cx="587.01" cy="549.05" r="9.14"/><path class="cls-1" d="M927.29,654.64a.21.21,0,1,1,.21-.21A.22.22,0,0,1,927.29,654.64Z"/><circle class="cls-1" cx="893.98" cy="642.31" r="1.1"/><path class="cls-1" d="M860.67,632.18a2,2,0,1,1,2-2A2,2,0,0,1,860.67,632.18Z"/><path class="cls-1" d="M860.67,632.18a2,2,0,1,1,2-2A2,2,0,0,1,860.67,632.18Z"/><path class="cls-1" d="M860.67,632.18a2,2,0,1,1,2-2A2,2,0,0,1,860.67,632.18Z"/><circle class="cls-1" cx="827.37" cy="618.06" r="2.89"/><circle class="cls-1" cx="827.37" cy="618.06" r="2.89"/><circle class="cls-1" cx="827.37" cy="618.06" r="2.89"/><path class="cls-1" d="M794.06,609.72a3.78,3.78,0,1,1,3.78-3.78A3.78,3.78,0,0,1,794.06,609.72Z"/><path class="cls-1" d="M794.06,609.72a3.78,3.78,0,1,1,3.78-3.78A3.78,3.78,0,0,1,794.06,609.72Z"/><path class="cls-1" d="M794.06,609.72a3.78,3.78,0,1,1,3.78-3.78A3.78,3.78,0,0,1,794.06,609.72Z"/><path class="cls-1" d="M760.75,598.49a4.68,4.68,0,1,1,4.67-4.68A4.68,4.68,0,0,1,760.75,598.49Z"/><path class="cls-1" d="M760.75,598.49a4.68,4.68,0,1,1,4.67-4.68A4.68,4.68,0,0,1,760.75,598.49Z"/><path class="cls-1" d="M760.75,598.49a4.68,4.68,0,1,1,4.67-4.68A4.68,4.68,0,0,1,760.75,598.49Z"/><circle class="cls-1" cx="727.44" cy="581.69" r="5.57"/><circle class="cls-1" cx="727.44" cy="581.69" r="5.57"/><circle class="cls-1" cx="727.44" cy="581.69" r="5.57"/><circle class="cls-1" cx="694.13" cy="569.57" r="6.46"/><circle class="cls-1" cx="694.13" cy="569.57" r="6.46"/><circle class="cls-1" cx="694.13" cy="569.57" r="6.46"/><path class="cls-1" d="M660.83,564.8a7.36,7.36,0,1,1,7.35-7.35A7.35,7.35,0,0,1,660.83,564.8Z"/><path class="cls-1" d="M660.83,564.8a7.36,7.36,0,1,1,7.35-7.35A7.35,7.35,0,0,1,660.83,564.8Z"/><path class="cls-1" d="M660.83,564.8a7.36,7.36,0,1,1,7.35-7.35A7.35,7.35,0,0,1,660.83,564.8Z"/><path class="cls-1" d="M627.52,553.57a8.25,8.25,0,1,1,8.25-8.25A8.25,8.25,0,0,1,627.52,553.57Z"/><path class="cls-1" d="M627.52,553.57a8.25,8.25,0,1,1,8.25-8.25A8.25,8.25,0,0,1,627.52,553.57Z"/><path class="cls-1" d="M627.52,553.57a8.25,8.25,0,1,1,8.25-8.25A8.25,8.25,0,0,1,627.52,553.57Z"/><circle class="cls-1" cx="594.21" cy="533.2" r="9.14"/><path class="cls-1" d="M947.61,578.09a.2.2,0,0,1-.2-.2.2.2,0,0,1,.2-.21.21.21,0,0,1,.21.21A.2.2,0,0,1,947.61,578.09Z"/><circle class="cls-1" cx="912.71" cy="571.73" r="1.1"/><path class="cls-1" d="M877.8,567.57a2,2,0,1,1,2-2A2,2,0,0,1,877.8,567.57Z"/><path class="cls-1" d="M877.8,567.57a2,2,0,1,1,2-2A2,2,0,0,1,877.8,567.57Z"/><path class="cls-1" d="M877.8,567.57a2,2,0,1,1,2-2A2,2,0,0,1,877.8,567.57Z"/><circle class="cls-1" cx="842.89" cy="559.42" r="2.89"/><circle class="cls-1" cx="842.89" cy="559.42" r="2.89"/><circle class="cls-1" cx="842.89" cy="559.42" r="2.89"/><path class="cls-1" d="M808,557.05a3.79,3.79,0,1,1,3.78-3.78A3.78,3.78,0,0,1,808,557.05Z"/><path class="cls-1" d="M808,557.05a3.79,3.79,0,1,1,3.78-3.78A3.78,3.78,0,0,1,808,557.05Z"/><path class="cls-1" d="M808,557.05a3.79,3.79,0,1,1,3.78-3.78A3.78,3.78,0,0,1,808,557.05Z"/><circle class="cls-1" cx="773.08" cy="547.11" r="4.67"/><circle class="cls-1" cx="773.08" cy="547.11" r="4.67"/><circle class="cls-1" cx="773.08" cy="547.11" r="4.67"/><circle class="cls-1" cx="738.17" cy="540.96" r="5.57"/><circle class="cls-1" cx="738.17" cy="540.96" r="5.57"/><circle class="cls-1" cx="738.17" cy="540.96" r="5.57"/><circle class="cls-1" cx="703.26" cy="534.8" r="6.46"/><circle class="cls-1" cx="703.26" cy="534.8" r="6.46"/><circle class="cls-1" cx="703.26" cy="534.8" r="6.46"/><circle class="cls-1" cx="668.36" cy="528.65" r="7.36"/><circle class="cls-1" cx="668.36" cy="528.65" r="7.36"/><circle class="cls-1" cx="668.36" cy="528.65" r="7.36"/><path class="cls-1" d="M633.45,530.74a8.25,8.25,0,1,1,8.25-8.25A8.25,8.25,0,0,1,633.45,530.74Z"/><path class="cls-1" d="M633.45,530.74a8.25,8.25,0,1,1,8.25-8.25A8.25,8.25,0,0,1,633.45,530.74Z"/><path class="cls-1" d="M633.45,530.74a8.25,8.25,0,1,1,8.25-8.25A8.25,8.25,0,0,1,633.45,530.74Z"/><circle class="cls-1" cx="598.54" cy="516.34" r="9.14"/><path class="cls-1" d="M954.34,499.18a.2.2,0,0,1-.21-.2.21.21,0,0,1,.21-.21.2.2,0,0,1,.2.21A.2.2,0,0,1,954.34,499.18Z"/><path class="cls-1" d="M918.89,500.08a1.1,1.1,0,0,1,0-2.2,1.1,1.1,0,0,1,0,2.2Z"/><path class="cls-1" d="M883.45,501a2,2,0,1,1,2-2A2,2,0,0,1,883.45,501Z"/><path class="cls-1" d="M883.45,501a2,2,0,1,1,2-2A2,2,0,0,1,883.45,501Z"/><path class="cls-1" d="M883.45,501a2,2,0,1,1,2-2A2,2,0,0,1,883.45,501Z"/><path class="cls-1" d="M848,501.86a2.89,2.89,0,1,1,2.89-2.88A2.89,2.89,0,0,1,848,501.86Z"/><path class="cls-1" d="M848,501.86a2.89,2.89,0,1,1,2.89-2.88A2.89,2.89,0,0,1,848,501.86Z"/><path class="cls-1" d="M848,501.86a2.89,2.89,0,1,1,2.89-2.88A2.89,2.89,0,0,1,848,501.86Z"/><path class="cls-1" d="M812.56,502.76a3.79,3.79,0,1,1,3.78-3.78A3.78,3.78,0,0,1,812.56,502.76Z"/><path class="cls-1" d="M812.56,502.76a3.79,3.79,0,1,1,3.78-3.78A3.78,3.78,0,0,1,812.56,502.76Z"/><path class="cls-1" d="M812.56,502.76a3.79,3.79,0,1,1,3.78-3.78A3.78,3.78,0,0,1,812.56,502.76Z"/><path class="cls-1" d="M777.11,503.65a4.68,4.68,0,1,1,4.68-4.67A4.67,4.67,0,0,1,777.11,503.65Z"/><path class="cls-1" d="M777.11,503.65a4.68,4.68,0,1,1,4.68-4.67A4.67,4.67,0,0,1,777.11,503.65Z"/><path class="cls-1" d="M777.11,503.65a4.68,4.68,0,1,1,4.68-4.67A4.67,4.67,0,0,1,777.11,503.65Z"/><path class="cls-1" d="M741.67,504.54a5.57,5.57,0,1,1,5.56-5.56A5.56,5.56,0,0,1,741.67,504.54Z"/><path class="cls-1" d="M741.67,504.54a5.57,5.57,0,1,1,5.56-5.56A5.56,5.56,0,0,1,741.67,504.54Z"/><path class="cls-1" d="M741.67,504.54a5.57,5.57,0,1,1,5.56-5.56A5.56,5.56,0,0,1,741.67,504.54Z"/><path class="cls-1" d="M706.22,505.44a6.47,6.47,0,1,1,6.46-6.46A6.46,6.46,0,0,1,706.22,505.44Z"/><path class="cls-1" d="M706.22,505.44a6.47,6.47,0,1,1,6.46-6.46A6.46,6.46,0,0,1,706.22,505.44Z"/><path class="cls-1" d="M706.22,505.44a6.47,6.47,0,1,1,6.46-6.46A6.46,6.46,0,0,1,706.22,505.44Z"/><path class="cls-1" d="M670.77,506.33a7.36,7.36,0,1,1,7.36-7.35A7.35,7.35,0,0,1,670.77,506.33Z"/><path class="cls-1" d="M670.77,506.33a7.36,7.36,0,1,1,7.36-7.35A7.35,7.35,0,0,1,670.77,506.33Z"/><path class="cls-1" d="M670.77,506.33a7.36,7.36,0,1,1,7.36-7.35A7.35,7.35,0,0,1,670.77,506.33Z"/><path class="cls-1" d="M635.33,507.22a8.25,8.25,0,1,1,8.25-8.24A8.24,8.24,0,0,1,635.33,507.22Z"/><path class="cls-1" d="M635.33,507.22a8.25,8.25,0,1,1,8.25-8.24A8.24,8.24,0,0,1,635.33,507.22Z"/><path class="cls-1" d="M635.33,507.22a8.25,8.25,0,1,1,8.25-8.24A8.24,8.24,0,0,1,635.33,507.22Z"/><circle class="cls-1" cx="599.88" cy="498.98" r="9.14"/><circle class="cls-1" cx="947.26" cy="420.1" r="0.21"/><circle class="cls-1" cx="912.35" cy="426.25" r="1.1"/><path class="cls-1" d="M877.44,434.4a2,2,0,1,1,2-2A2,2,0,0,1,877.44,434.4Z"/><path class="cls-1" d="M877.44,434.4a2,2,0,1,1,2-2A2,2,0,0,1,877.44,434.4Z"/><path class="cls-1" d="M877.44,434.4a2,2,0,1,1,2-2A2,2,0,0,1,877.44,434.4Z"/><circle class="cls-1" cx="842.54" cy="438.56" r="2.89"/><circle class="cls-1" cx="842.54" cy="438.56" r="2.89"/><circle class="cls-1" cx="842.54" cy="438.56" r="2.89"/><path class="cls-1" d="M807.63,448.5a3.78,3.78,0,1,1,3.78-3.78A3.78,3.78,0,0,1,807.63,448.5Z"/><path class="cls-1" d="M807.63,448.5a3.78,3.78,0,1,1,3.78-3.78A3.78,3.78,0,0,1,807.63,448.5Z"/><path class="cls-1" d="M807.63,448.5a3.78,3.78,0,1,1,3.78-3.78A3.78,3.78,0,0,1,807.63,448.5Z"/><path class="cls-1" d="M772.72,455.55a4.68,4.68,0,1,1,4.68-4.68A4.68,4.68,0,0,1,772.72,455.55Z"/><path class="cls-1" d="M772.72,455.55a4.68,4.68,0,1,1,4.68-4.68A4.68,4.68,0,0,1,772.72,455.55Z"/><path class="cls-1" d="M772.72,455.55a4.68,4.68,0,1,1,4.68-4.68A4.68,4.68,0,0,1,772.72,455.55Z"/><path class="cls-1" d="M737.82,462.59a5.57,5.57,0,1,1,5.56-5.56A5.56,5.56,0,0,1,737.82,462.59Z"/><path class="cls-1" d="M737.82,462.59a5.57,5.57,0,1,1,5.56-5.56A5.56,5.56,0,0,1,737.82,462.59Z"/><path class="cls-1" d="M737.82,462.59a5.57,5.57,0,1,1,5.56-5.56A5.56,5.56,0,0,1,737.82,462.59Z"/><path class="cls-1" d="M702.91,469.64a6.46,6.46,0,1,1,6.46-6.46A6.46,6.46,0,0,1,702.91,469.64Z"/><path class="cls-1" d="M702.91,469.64a6.46,6.46,0,1,1,6.46-6.46A6.46,6.46,0,0,1,702.91,469.64Z"/><path class="cls-1" d="M702.91,469.64a6.46,6.46,0,1,1,6.46-6.46A6.46,6.46,0,0,1,702.91,469.64Z"/><circle class="cls-1" cx="668" cy="469.34" r="7.36"/><circle class="cls-1" cx="668" cy="469.34" r="7.36"/><circle class="cls-1" cx="668" cy="469.34" r="7.36"/><path class="cls-1" d="M633.09,483.74a8.25,8.25,0,1,1,8.25-8.25A8.24,8.24,0,0,1,633.09,483.74Z"/><path class="cls-1" d="M633.09,483.74a8.25,8.25,0,1,1,8.25-8.25A8.24,8.24,0,0,1,633.09,483.74Z"/><path class="cls-1" d="M633.09,483.74a8.25,8.25,0,1,1,8.25-8.25A8.24,8.24,0,0,1,633.09,483.74Z"/><circle class="cls-1" cx="598.19" cy="481.65" r="9.14"/><path class="cls-1" d="M926.59,343.85a.21.21,0,0,1-.21-.21.2.2,0,0,1,.21-.2.2.2,0,0,1,.2.2A.2.2,0,0,1,926.59,343.85Z"/><path class="cls-1" d="M893.28,356.87a1.1,1.1,0,1,1,1.1-1.1A1.1,1.1,0,0,1,893.28,356.87Z"/><path class="cls-1" d="M860,369.88a2,2,0,1,1,2-2A2,2,0,0,1,860,369.88Z"/><path class="cls-1" d="M860,369.88a2,2,0,1,1,2-2A2,2,0,0,1,860,369.88Z"/><path class="cls-1" d="M860,369.88a2,2,0,1,1,2-2A2,2,0,0,1,860,369.88Z"/><path class="cls-1" d="M826.66,382.9a2.89,2.89,0,1,1,2.89-2.89A2.88,2.88,0,0,1,826.66,382.9Z"/><path class="cls-1" d="M826.66,382.9a2.89,2.89,0,1,1,2.89-2.89A2.88,2.88,0,0,1,826.66,382.9Z"/><path class="cls-1" d="M826.66,382.9a2.89,2.89,0,1,1,2.89-2.89A2.88,2.88,0,0,1,826.66,382.9Z"/><path class="cls-1" d="M793.36,395.92a3.78,3.78,0,1,1,3.78-3.78A3.78,3.78,0,0,1,793.36,395.92Z"/><path class="cls-1" d="M793.36,395.92a3.78,3.78,0,1,1,3.78-3.78A3.78,3.78,0,0,1,793.36,395.92Z"/><path class="cls-1" d="M793.36,395.92a3.78,3.78,0,1,1,3.78-3.78A3.78,3.78,0,0,1,793.36,395.92Z"/><circle class="cls-1" cx="760.05" cy="404.26" r="4.67"/><circle class="cls-1" cx="760.05" cy="404.26" r="4.67"/><circle class="cls-1" cx="760.05" cy="404.26" r="4.67"/><path class="cls-1" d="M726.74,422a5.57,5.57,0,1,1,5.57-5.57A5.57,5.57,0,0,1,726.74,422Z"/><path class="cls-1" d="M726.74,422a5.57,5.57,0,1,1,5.57-5.57A5.57,5.57,0,0,1,726.74,422Z"/><path class="cls-1" d="M726.74,422a5.57,5.57,0,1,1,5.57-5.57A5.57,5.57,0,0,1,726.74,422Z"/><path class="cls-1" d="M693.43,435a6.47,6.47,0,1,1,6.46-6.46A6.46,6.46,0,0,1,693.43,435Z"/><path class="cls-1" d="M693.43,435a6.47,6.47,0,1,1,6.46-6.46A6.46,6.46,0,0,1,693.43,435Z"/><path class="cls-1" d="M693.43,435a6.47,6.47,0,1,1,6.46-6.46A6.46,6.46,0,0,1,693.43,435Z"/><circle class="cls-1" cx="660.12" cy="440.63" r="7.36"/><circle class="cls-1" cx="660.12" cy="440.63" r="7.36"/><circle class="cls-1" cx="660.12" cy="440.63" r="7.36"/><path class="cls-1" d="M626.82,461a8.25,8.25,0,1,1,8.25-8.25A8.25,8.25,0,0,1,626.82,461Z"/><path class="cls-1" d="M626.82,461a8.25,8.25,0,1,1,8.25-8.25A8.25,8.25,0,0,1,626.82,461Z"/><path class="cls-1" d="M626.82,461a8.25,8.25,0,1,1,8.25-8.25A8.25,8.25,0,0,1,626.82,461Z"/><circle class="cls-1" cx="593.51" cy="464.88" r="9.14"/><circle class="cls-1" cx="892.96" cy="271.94" r="0.21"/><path class="cls-1" d="M862.26,290.77a1.1,1.1,0,1,1,1.1-1.1A1.1,1.1,0,0,1,862.26,290.77Z"/><path class="cls-1" d="M831.56,309.38a2,2,0,1,1,2-2A2,2,0,0,1,831.56,309.38Z"/><path class="cls-1" d="M831.56,309.38a2,2,0,1,1,2-2A2,2,0,0,1,831.56,309.38Z"/><path class="cls-1" d="M831.56,309.38a2,2,0,1,1,2-2A2,2,0,0,1,831.56,309.38Z"/><circle class="cls-1" cx="800.87" cy="325.11" r="2.89"/><circle class="cls-1" cx="800.87" cy="325.11" r="2.89"/><circle class="cls-1" cx="800.87" cy="325.11" r="2.89"/><path class="cls-1" d="M770.17,346.62a3.79,3.79,0,1,1,3.78-3.79A3.79,3.79,0,0,1,770.17,346.62Z"/><path class="cls-1" d="M770.17,346.62a3.79,3.79,0,1,1,3.78-3.79A3.79,3.79,0,0,1,770.17,346.62Z"/><path class="cls-1" d="M770.17,346.62a3.79,3.79,0,1,1,3.78-3.79A3.79,3.79,0,0,1,770.17,346.62Z"/><circle class="cls-1" cx="739.47" cy="360.56" r="4.67"/><circle class="cls-1" cx="739.47" cy="360.56" r="4.67"/><circle class="cls-1" cx="739.47" cy="360.56" r="4.67"/><path class="cls-1" d="M708.78,383.85a5.57,5.57,0,1,1,5.56-5.57A5.57,5.57,0,0,1,708.78,383.85Z"/><path class="cls-1" d="M708.78,383.85a5.57,5.57,0,1,1,5.56-5.57A5.57,5.57,0,0,1,708.78,383.85Z"/><path class="cls-1" d="M708.78,383.85a5.57,5.57,0,1,1,5.56-5.57A5.57,5.57,0,0,1,708.78,383.85Z"/><circle class="cls-1" cx="678.08" cy="396" r="6.46"/><circle class="cls-1" cx="678.08" cy="396" r="6.46"/><circle class="cls-1" cx="678.08" cy="396" r="6.46"/><path class="cls-1" d="M647.38,421.08a7.36,7.36,0,1,1,7.36-7.35A7.35,7.35,0,0,1,647.38,421.08Z"/><path class="cls-1" d="M647.38,421.08a7.36,7.36,0,1,1,7.36-7.35A7.35,7.35,0,0,1,647.38,421.08Z"/><path class="cls-1" d="M647.38,421.08a7.36,7.36,0,1,1,7.36-7.35A7.35,7.35,0,0,1,647.38,421.08Z"/><path class="cls-1" d="M616.69,439.7a8.25,8.25,0,1,1,8.24-8.25A8.25,8.25,0,0,1,616.69,439.7Z"/><path class="cls-1" d="M616.69,439.7a8.25,8.25,0,1,1,8.24-8.25A8.25,8.25,0,0,1,616.69,439.7Z"/><path class="cls-1" d="M616.69,439.7a8.25,8.25,0,1,1,8.24-8.25A8.25,8.25,0,0,1,616.69,439.7Z"/><circle class="cls-1" cx="585.99" cy="449.17" r="9.14"/><path class="cls-1" d="M847.39,207.38a.21.21,0,0,1-.21-.21.2.2,0,0,1,.21-.2.2.2,0,0,1,.2.2A.2.2,0,0,1,847.39,207.38Z"/><circle class="cls-1" cx="820.23" cy="229.96" r="1.1"/><path class="cls-1" d="M793.08,254.73a2,2,0,1,1,2-2A2,2,0,0,1,793.08,254.73Z"/><path class="cls-1" d="M793.08,254.73a2,2,0,1,1,2-2A2,2,0,0,1,793.08,254.73Z"/><path class="cls-1" d="M793.08,254.73a2,2,0,1,1,2-2A2,2,0,0,1,793.08,254.73Z"/><circle class="cls-1" cx="765.93" cy="275.52" r="2.89"/><circle class="cls-1" cx="765.93" cy="275.52" r="2.89"/><circle class="cls-1" cx="765.93" cy="275.52" r="2.89"/><path class="cls-1" d="M738.77,302.09a3.78,3.78,0,1,1,3.78-3.78A3.78,3.78,0,0,1,738.77,302.09Z"/><path class="cls-1" d="M738.77,302.09a3.78,3.78,0,1,1,3.78-3.78A3.78,3.78,0,0,1,738.77,302.09Z"/><path class="cls-1" d="M738.77,302.09a3.78,3.78,0,1,1,3.78-3.78A3.78,3.78,0,0,1,738.77,302.09Z"/><circle class="cls-1" cx="711.62" cy="321.09" r="4.67"/><circle class="cls-1" cx="711.62" cy="321.09" r="4.67"/><circle class="cls-1" cx="711.62" cy="321.09" r="4.67"/><path class="cls-1" d="M684.47,349.44a5.57,5.57,0,1,1,5.57-5.56A5.56,5.56,0,0,1,684.47,349.44Z"/><path class="cls-1" d="M684.47,349.44a5.57,5.57,0,1,1,5.57-5.56A5.56,5.56,0,0,1,684.47,349.44Z"/><path class="cls-1" d="M684.47,349.44a5.57,5.57,0,1,1,5.57-5.56A5.56,5.56,0,0,1,684.47,349.44Z"/><path class="cls-1" d="M657.31,373.12a6.46,6.46,0,1,1,6.47-6.46A6.46,6.46,0,0,1,657.31,373.12Z"/><path class="cls-1" d="M657.31,373.12a6.46,6.46,0,1,1,6.47-6.46A6.46,6.46,0,0,1,657.31,373.12Z"/><path class="cls-1" d="M657.31,373.12a6.46,6.46,0,1,1,6.47-6.46A6.46,6.46,0,0,1,657.31,373.12Z"/><circle class="cls-1" cx="630.16" cy="389.44" r="7.36"/><circle class="cls-1" cx="630.16" cy="389.44" r="7.36"/><circle class="cls-1" cx="630.16" cy="389.44" r="7.36"/><path class="cls-1" d="M603,420.48a8.25,8.25,0,1,1,8.25-8.25A8.25,8.25,0,0,1,603,420.48Z"/><path class="cls-1" d="M603,420.48a8.25,8.25,0,1,1,8.25-8.25A8.25,8.25,0,0,1,603,420.48Z"/><path class="cls-1" d="M603,420.48a8.25,8.25,0,1,1,8.25-8.25A8.25,8.25,0,0,1,603,420.48Z"/><circle class="cls-1" cx="575.86" cy="435.01" r="9.14"/><circle class="cls-1" cx="791.26" cy="151.3" r="0.21"/><path class="cls-1" d="M768.47,179.55a1.1,1.1,0,1,1,1.1-1.1A1.1,1.1,0,0,1,768.47,179.55Z"/><path class="cls-1" d="M745.69,207.6a2,2,0,1,1,2-2A2,2,0,0,1,745.69,207.6Z"/><path class="cls-1" d="M745.69,207.6a2,2,0,1,1,2-2A2,2,0,0,1,745.69,207.6Z"/><path class="cls-1" d="M745.69,207.6a2,2,0,1,1,2-2A2,2,0,0,1,745.69,207.6Z"/><circle class="cls-1" cx="722.91" cy="232.76" r="2.89"/><circle class="cls-1" cx="722.91" cy="232.76" r="2.89"/><circle class="cls-1" cx="722.91" cy="232.76" r="2.89"/><path class="cls-1" d="M700.12,263.69a3.78,3.78,0,1,1,3.78-3.78A3.78,3.78,0,0,1,700.12,263.69Z"/><path class="cls-1" d="M700.12,263.69a3.78,3.78,0,1,1,3.78-3.78A3.78,3.78,0,0,1,700.12,263.69Z"/><path class="cls-1" d="M700.12,263.69a3.78,3.78,0,1,1,3.78-3.78A3.78,3.78,0,0,1,700.12,263.69Z"/><path class="cls-1" d="M677.34,291.74a4.68,4.68,0,1,1,4.67-4.68A4.69,4.69,0,0,1,677.34,291.74Z"/><path class="cls-1" d="M677.34,291.74a4.68,4.68,0,1,1,4.67-4.68A4.69,4.69,0,0,1,677.34,291.74Z"/><path class="cls-1" d="M677.34,291.74a4.68,4.68,0,1,1,4.67-4.68A4.69,4.69,0,0,1,677.34,291.74Z"/><path class="cls-1" d="M654.55,319.78a5.57,5.57,0,1,1,5.57-5.56A5.56,5.56,0,0,1,654.55,319.78Z"/><path class="cls-1" d="M654.55,319.78a5.57,5.57,0,1,1,5.57-5.56A5.56,5.56,0,0,1,654.55,319.78Z"/><path class="cls-1" d="M654.55,319.78a5.57,5.57,0,1,1,5.57-5.56A5.56,5.56,0,0,1,654.55,319.78Z"/><path class="cls-1" d="M631.77,347.83a6.46,6.46,0,1,1,6.46-6.46A6.46,6.46,0,0,1,631.77,347.83Z"/><path class="cls-1" d="M631.77,347.83a6.46,6.46,0,1,1,6.46-6.46A6.46,6.46,0,0,1,631.77,347.83Z"/><path class="cls-1" d="M631.77,347.83a6.46,6.46,0,1,1,6.46-6.46A6.46,6.46,0,0,1,631.77,347.83Z"/><circle class="cls-1" cx="608.99" cy="368.52" r="7.36"/><circle class="cls-1" cx="608.99" cy="368.52" r="7.36"/><circle class="cls-1" cx="608.99" cy="368.52" r="7.36"/><path class="cls-1" d="M586.2,403.92a8.25,8.25,0,1,1,8.25-8.25A8.25,8.25,0,0,1,586.2,403.92Z"/><path class="cls-1" d="M586.2,403.92a8.25,8.25,0,1,1,8.25-8.25A8.25,8.25,0,0,1,586.2,403.92Z"/><path class="cls-1" d="M586.2,403.92a8.25,8.25,0,1,1,8.25-8.25A8.25,8.25,0,0,1,586.2,403.92Z"/><circle class="cls-1" cx="563.42" cy="422.83" r="9.14"/><path class="cls-1" d="M726.28,106.23a.21.21,0,1,1,.21-.21A.21.21,0,0,1,726.28,106.23Z"/><circle class="cls-1" cx="708.56" cy="136.72" r="1.1"/><path class="cls-1" d="M690.84,169.41a2,2,0,1,1,2-2A2,2,0,0,1,690.84,169.41Z"/><path class="cls-1" d="M690.84,169.41a2,2,0,1,1,2-2A2,2,0,0,1,690.84,169.41Z"/><path class="cls-1" d="M690.84,169.41a2,2,0,1,1,2-2A2,2,0,0,1,690.84,169.41Z"/><circle class="cls-1" cx="673.11" cy="198.11" r="2.89"/><circle class="cls-1" cx="673.11" cy="198.11" r="2.89"/><circle class="cls-1" cx="673.11" cy="198.11" r="2.89"/><path class="cls-1" d="M655.39,232.59a3.78,3.78,0,1,1,3.78-3.78A3.78,3.78,0,0,1,655.39,232.59Z"/><path class="cls-1" d="M655.39,232.59a3.78,3.78,0,1,1,3.78-3.78A3.78,3.78,0,0,1,655.39,232.59Z"/><path class="cls-1" d="M655.39,232.59a3.78,3.78,0,1,1,3.78-3.78A3.78,3.78,0,0,1,655.39,232.59Z"/><circle class="cls-1" cx="637.67" cy="259.5" r="4.67"/><circle class="cls-1" cx="637.67" cy="259.5" r="4.67"/><circle class="cls-1" cx="637.67" cy="259.5" r="4.67"/><path class="cls-1" d="M620,295.77a5.57,5.57,0,1,1,5.56-5.57A5.57,5.57,0,0,1,620,295.77Z"/><path class="cls-1" d="M620,295.77a5.57,5.57,0,1,1,5.56-5.57A5.57,5.57,0,0,1,620,295.77Z"/><path class="cls-1" d="M620,295.77a5.57,5.57,0,1,1,5.56-5.57A5.57,5.57,0,0,1,620,295.77Z"/><path class="cls-1" d="M602.22,327.36a6.47,6.47,0,1,1,6.46-6.46A6.46,6.46,0,0,1,602.22,327.36Z"/><path class="cls-1" d="M602.22,327.36a6.47,6.47,0,1,1,6.46-6.46A6.46,6.46,0,0,1,602.22,327.36Z"/><path class="cls-1" d="M602.22,327.36a6.47,6.47,0,1,1,6.46-6.46A6.46,6.46,0,0,1,602.22,327.36Z"/><path class="cls-1" d="M584.5,359a7.36,7.36,0,1,1,7.36-7.36A7.36,7.36,0,0,1,584.5,359Z"/><path class="cls-1" d="M584.5,359a7.36,7.36,0,1,1,7.36-7.36A7.36,7.36,0,0,1,584.5,359Z"/><path class="cls-1" d="M584.5,359a7.36,7.36,0,1,1,7.36-7.36A7.36,7.36,0,0,1,584.5,359Z"/><path class="cls-1" d="M566.78,390.54a8.25,8.25,0,1,1,8.25-8.25A8.25,8.25,0,0,1,566.78,390.54Z"/><path class="cls-1" d="M566.78,390.54a8.25,8.25,0,1,1,8.25-8.25A8.25,8.25,0,0,1,566.78,390.54Z"/><path class="cls-1" d="M566.78,390.54a8.25,8.25,0,1,1,8.25-8.25A8.25,8.25,0,0,1,566.78,390.54Z"/><circle class="cls-1" cx="549.05" cy="412.99" r="9.14"/><path class="cls-1" d="M654.43,72.92a.21.21,0,0,1-.21-.21.21.21,0,1,1,.42,0A.21.21,0,0,1,654.43,72.92Z"/><path class="cls-1" d="M642.31,107.12a1.1,1.1,0,1,1,1.1-1.1A1.1,1.1,0,0,1,642.31,107.12Z"/><path class="cls-1" d="M630.18,141.32a2,2,0,1,1,2-2A2,2,0,0,1,630.18,141.32Z"/><path class="cls-1" d="M630.18,141.32a2,2,0,1,1,2-2A2,2,0,0,1,630.18,141.32Z"/><path class="cls-1" d="M630.18,141.32a2,2,0,1,1,2-2A2,2,0,0,1,630.18,141.32Z"/><circle class="cls-1" cx="618.06" cy="172.63" r="2.89"/><circle class="cls-1" cx="618.06" cy="172.63" r="2.89"/><circle class="cls-1" cx="618.06" cy="172.63" r="2.89"/><path class="cls-1" d="M605.94,209.72a3.78,3.78,0,1,1,3.78-3.78A3.78,3.78,0,0,1,605.94,209.72Z"/><path class="cls-1" d="M605.94,209.72a3.78,3.78,0,1,1,3.78-3.78A3.78,3.78,0,0,1,605.94,209.72Z"/><path class="cls-1" d="M605.94,209.72a3.78,3.78,0,1,1,3.78-3.78A3.78,3.78,0,0,1,605.94,209.72Z"/><circle class="cls-1" cx="593.81" cy="239.25" r="4.67"/><circle class="cls-1" cx="593.81" cy="239.25" r="4.67"/><circle class="cls-1" cx="593.81" cy="239.25" r="4.67"/><circle class="cls-1" cx="581.69" cy="272.56" r="5.57"/><circle class="cls-1" cx="581.69" cy="272.56" r="5.57"/><circle class="cls-1" cx="581.69" cy="272.56" r="5.57"/><path class="cls-1" d="M569.57,312.33a6.47,6.47,0,1,1,6.46-6.46A6.46,6.46,0,0,1,569.57,312.33Z"/><path class="cls-1" d="M569.57,312.33a6.47,6.47,0,1,1,6.46-6.46A6.46,6.46,0,0,1,569.57,312.33Z"/><path class="cls-1" d="M569.57,312.33a6.47,6.47,0,1,1,6.46-6.46A6.46,6.46,0,0,1,569.57,312.33Z"/><circle class="cls-1" cx="557.45" cy="339.17" r="7.36"/><circle class="cls-1" cx="557.45" cy="339.17" r="7.36"/><circle class="cls-1" cx="557.45" cy="339.17" r="7.36"/><path class="cls-1" d="M545.32,380.73a8.25,8.25,0,1,1,8.25-8.25A8.25,8.25,0,0,1,545.32,380.73Z"/><path class="cls-1" d="M545.32,380.73a8.25,8.25,0,1,1,8.25-8.25A8.25,8.25,0,0,1,545.32,380.73Z"/><path class="cls-1" d="M545.32,380.73a8.25,8.25,0,1,1,8.25-8.25A8.25,8.25,0,0,1,545.32,380.73Z"/><circle class="cls-1" cx="533.2" cy="405.79" r="9.14"/><path class="cls-1" d="M577.89,52.59a.2.2,0,0,1-.21-.2.21.21,0,0,1,.21-.21.2.2,0,0,1,.2.21A.2.2,0,0,1,577.89,52.59Z"/><path class="cls-1" d="M571.73,88.39a1.1,1.1,0,1,1,1.1-1.1A1.1,1.1,0,0,1,571.73,88.39Z"/><path class="cls-1" d="M565.58,124.19a2,2,0,1,1,2-2A2,2,0,0,1,565.58,124.19Z"/><path class="cls-1" d="M565.58,124.19a2,2,0,1,1,2-2A2,2,0,0,1,565.58,124.19Z"/><path class="cls-1" d="M565.58,124.19a2,2,0,1,1,2-2A2,2,0,0,1,565.58,124.19Z"/><circle class="cls-1" cx="559.42" cy="157.11" r="2.89"/><circle class="cls-1" cx="559.42" cy="157.11" r="2.89"/><circle class="cls-1" cx="559.42" cy="157.11" r="2.89"/><path class="cls-1" d="M553.27,195.8a3.79,3.79,0,1,1,3.78-3.79A3.79,3.79,0,0,1,553.27,195.8Z"/><path class="cls-1" d="M553.27,195.8a3.79,3.79,0,1,1,3.78-3.79A3.79,3.79,0,0,1,553.27,195.8Z"/><path class="cls-1" d="M553.27,195.8a3.79,3.79,0,1,1,3.78-3.79A3.79,3.79,0,0,1,553.27,195.8Z"/><circle class="cls-1" cx="547.11" cy="226.92" r="4.67"/><circle class="cls-1" cx="547.11" cy="226.92" r="4.67"/><circle class="cls-1" cx="547.11" cy="226.92" r="4.67"/><path class="cls-1" d="M541,267.4a5.57,5.57,0,1,1,5.56-5.57A5.57,5.57,0,0,1,541,267.4Z"/><path class="cls-1" d="M541,267.4a5.57,5.57,0,1,1,5.56-5.57A5.57,5.57,0,0,1,541,267.4Z"/><path class="cls-1" d="M541,267.4a5.57,5.57,0,1,1,5.56-5.57A5.57,5.57,0,0,1,541,267.4Z"/><path class="cls-1" d="M534.8,303.2a6.47,6.47,0,1,1,6.46-6.46A6.46,6.46,0,0,1,534.8,303.2Z"/><path class="cls-1" d="M534.8,303.2a6.47,6.47,0,1,1,6.46-6.46A6.46,6.46,0,0,1,534.8,303.2Z"/><path class="cls-1" d="M534.8,303.2a6.47,6.47,0,1,1,6.46-6.46A6.46,6.46,0,0,1,534.8,303.2Z"/><path class="cls-1" d="M528.65,339a7.36,7.36,0,1,1,7.35-7.36A7.36,7.36,0,0,1,528.65,339Z"/><path class="cls-1" d="M528.65,339a7.36,7.36,0,1,1,7.35-7.36A7.36,7.36,0,0,1,528.65,339Z"/><path class="cls-1" d="M528.65,339a7.36,7.36,0,1,1,7.35-7.36A7.36,7.36,0,0,1,528.65,339Z"/><path class="cls-1" d="M522.49,374.8a8.25,8.25,0,1,1,8.25-8.25A8.25,8.25,0,0,1,522.49,374.8Z"/><path class="cls-1" d="M522.49,374.8a8.25,8.25,0,1,1,8.25-8.25A8.25,8.25,0,0,1,522.49,374.8Z"/><path class="cls-1" d="M522.49,374.8a8.25,8.25,0,1,1,8.25-8.25A8.25,8.25,0,0,1,522.49,374.8Z"/><circle class="cls-1" cx="516.34" cy="401.46" r="9.14"/></svg>