<?xml version="1.0" encoding="utf-8"?>
<!-- Generator: Adobe Illustrator 24.3.0, SVG Export Plug-In . SVG Version: 6.00 Build 0)  -->
<svg version="1.2" baseProfile="tiny" id="Layer_1" xmlns="http://www.w3.org/2000/svg" xmlns:xlink="http://www.w3.org/1999/xlink"
	 x="0px" y="0px" viewBox="0 0 69 69" overflow="visible" xml:space="preserve">
<path fill="#FFC224" d="M37.4,2.9c0-1.6-1.3-2.9-2.9-2.9c-1.6,0-2.9,1.3-2.9,2.9v63.2c0,1.6,1.3,2.9,2.9,2.9c1.6,0,2.9-1.3,2.9-2.9
	V2.9z"/>
<path fill="#FFC224" d="M69,34.5c0-1.6-1.3-2.9-2.9-2.9H2.9c-1.6,0-2.9,1.3-2.9,2.9c0,1.6,1.3,2.9,2.9,2.9h63.2
	C67.7,37.4,69,36.1,69,34.5z"/>
<path fill="#FFC224" d="M54.8,58.9c1.1,1.1,3,1.1,4.1,0c1.1-1.1,1.1-3,0-4.1L14.2,10.1c-1.1-1.1-3-1.1-4.1,0c-1.1,1.1-1.1,3,0,4.1
	L54.8,58.9z"/>
<path fill="#FFC224" d="M10.1,54.8c-1.1,1.1-1.1,3,0,4.1c1.1,1.1,3,1.1,4.1,0l44.7-44.7c1.1-1.1,1.1-3,0-4.1c-1.1-1.1-3-1.1-4.1,0
	L10.1,54.8z"/>
</svg>
